<?xml version="1.0" encoding="UTF-8"?>
<svg width="175px" height="75px" viewBox="0 0 175 75" version="1.1" xmlns="http://www.w3.org/2000/svg" xmlns:xlink="http://www.w3.org/1999/xlink">
    <!-- Generator: Sketch 45.2 (43514) - http://www.bohemiancoding.com/sketch -->
    <title>hutton_logo_CMYK</title>
    <desc>Created with Sketch.</desc>
    <defs></defs>
    <g id="Page-1" stroke="none" stroke-width="1" fill="none" fill-rule="evenodd">
        <g id="Sekond" transform="translate(-553.000000, -4493.000000)" fill="#8C8987">
            <g id="Team" transform="translate(357.000000, 4353.000000)">
                <g id="hutton_logo_CMYK" transform="translate(196.000000, 140.000000)">
                    <path d="M39.0919725,40.0212523 C39.0919725,40.3700546 38.7260771,40.5456565 37.9891752,40.5456565 L29.9938941,40.5456565 L27.6172275,40.5456565 L25.297685,40.5456565 C24.5229007,40.5456565 24.1377634,40.391367 24.1377634,40.0806868 C24.1377634,39.7697064 25.0409268,39.5562826 26.8472536,39.4398151 C27.812051,39.363871 28.3682601,39.1978748 28.5203908,38.9463289 C28.677332,38.694783 28.7533974,37.79306 28.7533974,36.2411599 L28.7533974,19.2606112 L11.1705739,19.2606112 L11.1705739,35.7641832 C11.1705739,37.5129975 11.3085739,38.5428949 11.5794627,38.8538752 C11.8551621,39.1669568 12.7676458,39.3782794 14.3268353,39.4968482 C15.3394366,39.5751936 15.8430314,39.7483941 15.8430314,40.0212523 C15.8430314,40.3700546 15.4533843,40.5456565 14.6786,40.5456565 L14.1509529,40.5456565 L11.1991359,40.5456565 L9.3594366,40.5456565 L6.90670458,40.5456565 L2.00124052,40.5456565 C1.22164575,40.5456565 0.831998693,40.391367 0.831998693,40.0806868 C0.831998693,39.7697064 1.22164575,39.5751936 2.00124052,39.4968482 C2.50513595,39.4587261 3.03278301,39.4209041 3.57937124,39.3806808 C4.43503137,39.3047367 4.98161961,39.1099238 5.21462614,38.7992436 C5.32857386,38.6047307 5.3905085,37.5178003 5.3905085,35.5387525 L5.3905085,4.79312001 C5.3905085,3.0443057 5.30031242,2.01680975 5.12443007,1.70612956 C4.95305752,1.39514919 4.34002484,1.22194873 3.28473072,1.1817254 C2.07730588,1.10097857 1.36926667,1.0391427 1.15520131,0.998919373 C0.941436601,0.958696044 0.831998693,0.794800985 0.831998693,0.507834544 C0.831998693,0.1803446 1.08394641,0.0164495407 1.59265229,0.0164495407 C1.74929281,0.0164495407 2.07730588,0.0353605091 2.58601176,0.0734826199 C3.56043007,0.15182806 5.85622092,0.189649997 9.47849542,0.189649997 C11.4652144,0.189649997 12.8437111,0.161133457 13.6233059,0.104400552 C13.8990052,0.0449660803 14.2459595,0.0164495407 14.6786,0.0164495407 C15.377319,0.0164495407 15.7290837,0.210962358 15.7290837,0.600288167 C15.7290837,0.951491865 15.0968092,1.12709371 13.8277503,1.12709371 C12.5632013,1.12709371 11.8028484,1.27417902 11.5509007,1.56594825 C11.2989529,1.86011887 11.1705739,2.78555562 11.1705739,4.3446599 L11.1705739,17.8014648 L28.7533974,17.8014648 L28.7533974,5.22266915 C28.7533974,3.15597046 28.5964562,1.93846431 28.2873843,1.56594825 C27.9738026,1.19583358 26.8851359,1.02983731 25.0171752,1.07006064 C24.4324039,1.07006064 24.1377634,0.894458786 24.1377634,0.543255088 C24.1377634,0.19205139 24.4705869,0.0164495407 25.1314235,0.0164495407 L25.4260641,0.0164495407 L28.2873843,0.0164495407 L31.4391359,0.0164495407 L36.2589137,0.0164495407 L37.8656065,0.0164495407 C38.6830837,0.0164495407 39.0919725,0.189649997 39.0919725,0.540853695 C39.0919725,0.889656 38.2363124,1.08416882 36.5204824,1.12469232 C36.0165869,1.12469232 35.645881,1.16251426 35.4128745,1.2408597 C35.0229268,1.35732725 34.7806,1.57075104 34.680783,1.8817314 C34.5857765,2.1924116 34.5334627,3.10614156 34.5334627,4.62232095 L34.5334627,35.6480158 C34.5334627,37.5129975 34.6332797,38.6023294 34.8232928,38.9130095 C35.2084301,39.3401573 36.3253582,39.5538813 38.169868,39.5538813 C38.7829007,39.4779372 39.0919725,39.6322267 39.0919725,40.0212523" id="Fill-1"></path>
                    <path d="M66.8279882,14.479318 C66.8279882,14.7497749 66.5189163,14.8875548 65.8962627,14.8875548 L65.6016222,14.8875548 L64.4368902,14.8875548 C63.8097268,14.8875548 63.5006549,15.274179 63.5006549,16.0477277 L63.5006549,26.7876568 C63.5006549,30.5416341 63.4197791,32.9619379 63.2676484,34.0461668 C63.1107072,35.1306958 62.702119,36.2128234 62.0412824,37.2970523 C60.5202758,39.7341658 57.8345373,40.9537732 53.9795569,40.9537732 C50.7854131,40.9537732 48.2373739,40.2159452 46.3267203,38.7420904 C44.5775176,37.3850033 43.6981059,34.7674851 43.6981059,30.8880351 L43.6981059,18.6082128 C43.6981059,16.5153989 43.6313608,15.369034 43.4936614,15.1769226 C43.3556614,14.9824098 42.7853216,14.8851534 41.7730209,14.8851534 C40.9552431,14.8851534 40.5466549,14.7308639 40.5466549,14.4198835 C40.5466549,14.1470253 40.8175438,14.0119469 41.364132,14.0119469 L42.1816092,14.0119469 L43.1752693,14.0119469 L44.0498706,14.0119469 L48.9553346,14.0119469 L49.9486941,14.0119469 L50.5902889,14.0119469 C51.2938183,14.0119469 51.6407725,14.1683376 51.6407725,14.479318 C51.6407725,14.8662424 50.9231124,15.0418443 49.4829817,15.0037222 C49.0551516,15.0037222 48.7983935,15.072462 48.7223281,15.2078405 C48.6462627,15.3429189 48.6035699,15.7796722 48.6035699,16.5153989 L48.6035699,30.4797983 C48.6035699,34.2812031 49.093034,36.7441316 50.0674523,37.8667827 C51.156119,39.1479258 52.772132,39.7887975 54.9160928,39.7887975 C57.9106026,39.7887975 59.9544458,38.549979 61.0479229,36.0726421 C61.5897007,34.8341238 61.8654,32.8409678 61.8654,30.0928739 L61.8654,29.4547037 L61.8654,28.1186288 L61.8654,16.0429249 C61.8654,15.5401333 61.765583,15.2315543 61.565949,15.1153869 C61.366315,14.9989194 60.8245373,14.9397851 59.9306941,14.9397851 C59.0371516,14.9397851 58.5951908,14.7665846 58.5951908,14.4174821 C58.5951908,14.1470253 58.8278967,14.0119469 59.2939098,14.0119469 L59.878681,14.0119469 L62.564119,14.0119469 L63.2060144,14.0119469 L65.0787856,14.0119469 L65.8962627,14.0119469 C66.5189163,14.0119469 66.8279882,14.1683376 66.8279882,14.479318" id="Fill-3"></path>
                    <path d="M92.3821608,21.0854896 C92.3821608,21.6194993 92.1491542,21.8851534 91.6834418,21.8851534 C91.1747359,21.8851534 90.9038471,21.5267455 90.8659647,20.8126313 C90.7469059,19.2703368 90.4188928,18.0126073 89.8723046,17.0325389 C89.1308928,15.6799544 87.4385137,15.0036621 84.7909582,15.0036621 C84.4013111,15.0036621 83.7975987,15.0228733 82.9798209,15.0606952 L82.9798209,38.5048928 C82.9798209,39.243021 83.545651,39.6320466 84.6722,39.6701687 C85.8035595,39.710392 86.3690889,39.8670829 86.3690889,40.1375398 C86.3690889,40.410398 86.0362654,40.5457766 85.3757294,40.5457766 L84.9668405,40.5457766 L83.3315856,40.5457766 L81.7534549,40.5457766 L80.4083307,40.5457766 L77.2568797,40.5457766 L75.8546314,40.5457766 C75.0750366,40.5457766 74.6853895,40.410398 74.6853895,40.1375398 C74.6853895,39.8646815 75.3269843,39.7079906 76.615285,39.6701687 C77.0809974,39.6701687 77.3900693,39.6296452 77.5467098,39.5512998 C77.8605922,39.4732545 78.0364745,39.2691361 78.0743569,38.9392448 C78.1125399,38.606952 78.131481,37.6244822 78.131481,35.9873327 L78.131481,15.0036621 C75.0939778,14.9658402 73.1165791,15.2720178 72.2040954,15.9266975 C71.2865007,16.5840788 70.673468,18.1263733 70.3643961,20.5538813 C70.2456379,21.4414961 69.9936902,21.8851534 69.6040431,21.8851534 C69.2522784,21.8851534 69.0763961,21.4438975 69.0763961,20.5610854 C69.0763961,19.4528426 69.2522784,17.2675752 69.6040431,14.0118869 L83.2128275,14.0118869 C84.4202523,14.0118869 86.8729843,13.9785676 90.5710235,13.9146305 C90.8849059,13.9146305 91.2934941,13.8503932 91.8022,13.7201177 L91.8593242,14.9184127 L92.0352065,16.9731044 L92.2110889,19.372396 L92.3250366,20.3995918 C92.3632196,20.7438915 92.3821608,20.9717236 92.3821608,21.0854896" id="Fill-5"></path>
                    <path d="M118.140748,21.0854896 C118.140748,21.6194993 117.907741,21.8851534 117.442029,21.8851534 C116.933323,21.8851534 116.662434,21.5267455 116.624552,20.8126313 C116.505493,19.2703368 116.17748,18.0126073 115.630892,17.0325389 C114.88948,15.6799544 113.197101,15.0036621 110.549545,15.0036621 C110.159898,15.0036621 109.556186,15.0228733 108.738408,15.0606952 L108.738408,38.5048928 C108.738408,39.243021 109.304238,39.6320466 110.430787,39.6701687 C111.562146,39.710392 112.127676,39.8670829 112.127676,40.1375398 C112.127676,40.410398 111.794852,40.5457766 111.134316,40.5457766 L110.725427,40.5457766 L109.090173,40.5457766 L107.512042,40.5457766 L106.166918,40.5457766 L103.015467,40.5457766 L101.613218,40.5457766 C100.833624,40.5457766 100.443976,40.410398 100.443976,40.1375398 C100.443976,39.8646815 101.085571,39.7079906 102.373872,39.6701687 C102.839584,39.6701687 103.148656,39.6296452 103.305297,39.5512998 C103.619179,39.4732545 103.795061,39.2691361 103.832944,38.9392448 C103.871127,38.606952 103.890068,37.6244822 103.890068,35.9873327 L103.890068,15.0036621 C100.852565,14.9658402 98.875166,15.2720178 97.9626824,15.9266975 C97.0450876,16.5840788 96.4320549,18.1263733 96.122983,20.5538813 C96.0042248,21.4414961 95.7522771,21.8851534 95.3626301,21.8851534 C95.0108654,21.8851534 94.834983,21.4438975 94.834983,20.5610854 C94.834983,19.4528426 95.0108654,17.2675752 95.3626301,14.0118869 L108.971414,14.0118869 C110.178839,14.0118869 112.631571,13.9785676 116.32961,13.9146305 C116.643493,13.9146305 117.052081,13.8503932 117.560787,13.7201177 L117.617911,14.9184127 L117.793793,16.9731044 L117.969676,19.372396 L118.083624,20.3995918 C118.121807,20.7438915 118.140748,20.9717236 118.140748,21.0854896" id="Fill-7"></path>
                    <path d="M141.327784,27.627574 C141.327784,23.1285646 140.415,19.5787056 138.585222,16.9803986 C137.41568,15.3123312 135.799667,14.479348 133.736582,14.479348 C130.894203,14.479348 128.831118,16.0288467 127.542817,19.1326469 C126.649275,21.3038062 126.202503,24.0588041 126.202503,27.3949391 C126.202503,31.3908567 126.901222,34.513868 128.303471,36.7633728 C129.705719,39.0128775 131.649745,40.1376298 134.145471,40.1376298 C138.932176,40.1376298 141.327784,35.9682116 141.327784,27.627574 M146.81802,27.4543735 C146.81802,31.2176562 145.591654,34.4070061 143.138922,37.0266254 C140.68619,39.6438434 137.686569,40.9538032 134.145471,40.9538032 C130.366556,40.9538032 127.181732,39.6249325 124.59581,36.967191 C122.005379,34.312151 120.712268,31.0612655 120.712268,27.2193372 C120.712268,23.225821 121.948255,19.9560245 124.419928,17.4147506 C126.891601,14.8755778 130.057484,13.6037402 133.912464,13.6037402 C137.572621,13.6037402 140.638686,14.9326109 143.110359,17.5900522 C145.582033,20.2477937 146.81802,23.5344 146.81802,27.4543735" id="Fill-9"></path>
                    <path d="M174.734548,14.4200036 C174.734548,14.6928619 174.306718,14.8282404 173.451058,14.8282404 L172.63358,14.8282404 L171.987175,14.8282404 C171.640221,14.8282404 171.435776,14.9065858 171.373842,15.0629765 C171.317018,15.2196674 171.288456,15.746473 171.288456,16.6433932 L171.288456,38.1418623 C171.288456,39.5490785 171.269214,40.3700546 171.231332,40.6026896 C171.188639,40.8350243 171.017267,40.9538933 170.703685,40.9538933 C170.275855,40.9538933 168.887737,39.3236477 166.549254,36.0607552 C166.278365,35.6315063 165.855345,35.0476676 165.275384,34.3050369 C165.194508,34.1885694 164.980744,33.8968001 164.633489,33.4270277 C162.684652,30.8476316 159.162495,26.0022213 154.057397,18.8856937 L154.057397,37.3803206 C154.057397,38.8301615 154.261842,39.5917032 154.67043,39.6700486 C155.079319,39.7483941 155.830352,39.7886174 156.918718,39.7886174 L157.151724,39.7886174 C157.622247,39.7886174 157.855254,39.9143903 157.855254,40.1683376 C157.855254,40.4601069 157.427424,40.605091 156.567254,40.605091 C156.415123,40.605091 155.768417,40.5645674 154.641868,40.486222 C154.057397,40.4484001 153.52975,40.4294891 153.063737,40.4294891 C152.67409,40.4294891 152.284443,40.4484001 151.894495,40.486222 C151.157894,40.5645674 150.359058,40.605091 149.503698,40.605091 C148.876234,40.605091 148.567162,40.4601069 148.567162,40.1683376 C148.567162,39.9143903 148.937868,39.7886174 149.67477,39.7886174 L150.202417,39.7886174 L150.96277,39.7294831 C151.894495,39.6511377 152.38426,39.4755358 152.422142,39.2002762 C152.460325,39.0435853 152.479267,38.4765564 152.479267,37.496488 L152.479267,21.346521 C152.479267,18.4111184 152.303384,16.648196 151.95643,16.0619559 C151.485607,15.2791019 150.573123,14.8873747 149.208757,14.8873747 C148.234339,14.8873747 147.749685,14.7213784 147.749685,14.3938885 C147.749685,14.1399412 148.001633,14.0117668 148.510038,14.0117668 L148.743044,14.0117668 L151.95643,14.0117668 L152.711973,14.0117668 L153.767267,14.0117668 L155.925358,14.0117668 L169.710325,32.9617578 L169.710325,16.7526565 C169.710325,15.7821937 169.672142,15.217266 169.596077,15.0605751 C169.515201,14.9065858 169.20643,14.8282404 168.659842,14.8282404 L167.433476,14.8282404 L167.081711,14.8282404 C166.344809,14.8282404 165.974103,14.6832563 165.974103,14.3914871 C165.974103,14.2110824 166.159306,14.1021192 166.530312,14.0663985 C166.896208,14.030978 168.21277,14.0117668 170.470678,14.0117668 C172.609829,14.0117668 173.859946,14.0285766 174.206901,14.0615957 C174.558665,14.0973164 174.734548,14.2158852 174.734548,14.4200036" id="Fill-11"></path>
                    <path d="M87.3611556,54.0549018 C86.2303974,54.0549018 85.3521882,54.4022033 84.7307373,55.0950051 C83.5873516,56.368944 83.0116,58.4428469 83.0116,61.317314 C83.0116,63.598337 83.4135739,65.3684637 84.2130118,66.6276941 C85.0082405,67.8872246 86.130881,68.5178904 87.572515,68.5178904 C88.9146327,68.5178904 89.9254301,67.922345 90.6046065,66.7330552 C91.3544366,65.4158912 91.7314562,63.6601729 91.7314562,61.4662004 C91.7314562,58.8750976 91.2011033,56.8588281 90.140698,55.4134898 C89.4738484,54.5078646 88.5499399,54.0549018 87.3611556,54.0549018" id="Fill-13"></path>
                    <path d="M100.935816,54.2658042 C100.343528,54.2658042 99.9541817,54.3651618 99.771685,54.5656781 C99.6847961,54.6503272 99.6433059,54.8697545 99.6433059,55.2254608 L99.6433059,60.8933481 C99.755149,60.9080567 99.8835281,60.9161614 100.024535,60.9161614 C100.956561,60.9161614 101.75179,60.7093414 102.402103,60.2978027 C103.20575,59.7851054 103.607724,58.8419583 103.607724,57.4626583 C103.607724,55.3329231 102.717188,54.2658042 100.935816,54.2658042" id="Fill-15"></path>
                    <path d="M16.7373255,54.3712853 C15.7887634,54.3712853 15.2172209,54.470643 15.0181882,54.6690581 C14.9355085,54.7684157 14.8940183,55.1094135 14.8940183,55.6884493 L14.8940183,66.989704 C14.8940183,67.384433 14.9021359,67.6263733 14.922881,67.7113226 C14.9478353,67.7959717 15.0058614,67.8665126 15.1050771,67.924146 C15.4448157,68.0937444 16.1573647,68.1786936 17.2469333,68.1786936 C18.7754562,68.1786936 20.0057307,67.6410818 20.9377569,66.5634568 C21.9278092,65.4302996 22.4205804,63.6397611 22.4205804,61.1912409 C22.4205804,58.8399772 21.960881,57.115477 21.0453908,56.0192412 C20.1256915,54.9212043 18.6882667,54.3712853 16.7373255,54.3712853" id="Fill-17"></path>
                    <path d="M163.718059,57.9715135 C163.54819,57.9715135 163.428229,57.789608 163.357575,57.4215945 C163.328712,57.1670469 163.299549,56.9127994 163.270686,56.6582518 C163.17117,56.1518581 163.009719,55.7196074 162.786033,55.3681035 C162.487784,54.9007324 161.998922,54.6050609 161.319745,54.4786876 C160.88049,54.3940385 160.528425,54.3589182 160.259039,54.3712253 C159.596399,54.3919373 159.194425,54.4042445 159.04951,54.4147506 L159.04951,67.2024674 C159.04951,67.7112625 159.186307,68.0297473 159.455693,68.1579216 C159.596399,68.2281623 159.989954,68.2695864 160.640268,68.2839947 C160.810137,68.2987032 160.897026,68.3584379 160.897026,68.4640992 C160.897026,68.5838686 160.785183,68.6439035 160.557288,68.6439035 C160.445444,68.6439035 160.346229,68.6375998 160.259039,68.6231915 C159.409993,68.5943747 158.809288,68.5817674 158.457222,68.5817674 C157.989105,68.5817674 157.554059,68.5922735 157.143967,68.6129855 C156.733876,68.6336975 156.208033,68.6439035 155.573954,68.6439035 C155.246843,68.6439035 155.085392,68.5880711 155.085392,68.4743051 C155.085392,68.348232 155.387549,68.27589 155.996673,68.2632827 C156.435627,68.2632827 156.71734,68.1705289 156.845719,67.986222 C156.916373,67.8745572 156.953654,67.5830882 156.953654,67.1178183 L156.953654,54.4147506 C155.55351,54.4291589 154.683418,54.4993997 154.34368,54.6257729 C153.453144,54.9502612 152.927,55.8186648 152.773967,57.2312841 C152.732477,57.65513 152.632961,57.8661524 152.475719,57.8661524 C152.30585,57.8661524 152.222869,57.717266 152.222869,57.4215945 C152.222869,57.2664045 152.227078,57.1112145 152.243614,56.9560245 L152.285105,56.4682416 C152.326595,55.8186648 152.392739,54.9646695 152.475719,53.9059555 L153.432399,53.9059555 L157.757301,53.9701927 C158.266608,53.9846011 159.057928,53.9846011 160.134869,53.9701927 L163.651915,53.9059555 C163.680778,54.6981149 163.771876,55.8684937 163.929418,57.4215945 C163.929418,57.4648196 163.937536,57.5164495 163.950163,57.5806868 C163.966699,57.6446239 163.970908,57.6818455 163.970908,57.696554 C163.970908,57.8805607 163.887928,57.9715135 163.718059,57.9715135 L163.718059,57.9715135 Z M150.072895,54.3093894 L149.604778,54.3093894 L149.22385,54.3093894 C148.995954,54.3093894 148.863366,54.3484121 148.821876,54.4249565 C148.780686,54.5036021 148.755732,54.7392388 148.755732,55.1321667 L148.755732,67.3123312 C148.755732,68.0606652 148.751523,68.4971183 148.734987,68.6231915 C148.72266,68.7492646 148.68117,68.8135018 148.610817,68.8135018 C148.523627,68.8135018 148.42832,68.7348562 148.312569,68.5796662 L145.603379,64.6176682 C144.033366,62.3162334 142.119706,59.4417662 139.870216,55.9966681 L139.870216,67.8187249 C139.886752,68.0027316 139.990477,68.1185988 140.193418,68.1684277 C140.39215,68.2179564 140.872595,68.2488743 141.626634,68.2632827 C141.813039,68.2632827 141.908346,68.3191151 141.908346,68.4328811 C141.908346,68.5736627 141.721941,68.6439035 141.357248,68.6439035 C141.228869,68.6439035 140.827196,68.6231915 140.147719,68.5817674 C139.919824,68.5673591 139.700346,68.5592544 139.489288,68.5592544 C139.501614,68.5592544 139.381353,68.5736627 139.116477,68.6024794 C138.85551,68.6294951 138.457745,68.6439035 137.919275,68.6439035 L137.707915,68.6439035 C137.380804,68.6439035 137.219052,68.5817674 137.219052,68.4535931 C137.219052,68.3254187 137.360059,68.2632827 137.64568,68.2632827 C138.47849,68.2488743 138.963144,68.1951432 139.095732,68.1041904 C139.232229,68.0111365 139.298673,67.7112625 139.298673,67.2024674 L139.298673,56.7474035 C139.298673,55.5749235 139.058451,54.8385964 138.577706,54.5429249 C138.350111,54.4003422 137.948137,54.3298013 137.368176,54.3298013 C136.999575,54.3298013 136.817379,54.2553581 136.817379,54.1064718 C136.817379,53.974095 136.925013,53.9059555 137.136373,53.9059555 C137.418085,53.9059555 137.778268,53.9203638 138.217523,53.9494807 C138.656477,53.9761962 138.888582,53.9909047 138.917444,53.9909047 C138.958935,53.9909047 139.157667,53.9846011 139.509732,53.9701927 C139.97785,53.9701927 140.429431,53.9494807 140.868686,53.9059555 L148.18419,64.8100798 L148.18419,55.3888155 C148.18419,54.9502612 148.175771,54.6855076 148.163444,54.5945548 C148.150817,54.5036021 148.092791,54.4333613 147.993575,54.3838326 C147.894059,54.3340037 147.55432,54.3093894 146.974359,54.3093894 C146.468961,54.3093894 146.212203,54.2451522 146.212203,54.1190791 C146.212203,53.9761962 146.382072,53.9059555 146.72181,53.9059555 L147.463222,53.9059555 L148.059719,53.9059555 L148.461693,53.9059555 L148.842621,53.9059555 L149.480608,53.9059555 L150.135131,53.9059555 C150.445706,53.9059555 150.603248,53.9761962 150.603248,54.1190791 C150.603248,54.2595605 150.424961,54.3237978 150.072895,54.3093894 L150.072895,54.3093894 Z M135.450307,66.2512157 C135.425353,66.8860839 135.408817,67.4942367 135.408817,68.0732725 L135.408817,68.7720778 C134.025209,68.6874287 131.279039,68.6439035 127.182033,68.6439035 L125.715745,68.6439035 L124.742229,68.6439035 L124.530869,68.6439035 C124.261784,68.6439035 124.124987,68.5880711 124.124987,68.4743051 C124.124987,68.3977607 124.170686,68.3545356 124.253366,68.3419283 C124.294856,68.3419283 124.563941,68.3233175 125.061222,68.2839947 C125.425614,68.2572792 125.649301,68.1786336 125.728072,68.0504593 C125.806843,67.9243861 125.844124,67.5914931 125.844124,67.0514799 L125.844124,55.1156571 C125.844124,54.7062196 125.786098,54.4621781 125.665837,54.3838326 C125.545876,54.305187 125.156529,54.2658642 124.510124,54.2658642 C124.282529,54.2658642 124.170686,54.2058294 124.170686,54.0857597 C124.170686,53.9659903 124.323719,53.9059555 124.634595,53.9059555 L128.263183,53.9059555 L130.657588,53.9059555 L133.627745,53.9059555 C134.054373,53.9059555 134.43951,53.87924 134.795784,53.8213064 C134.824647,54.4291589 134.886882,55.2687459 134.986399,56.3418683 L135.069078,57.2519962 C135.085915,57.3222369 135.089824,57.4152909 135.089824,57.5269556 C135.089824,57.6695383 135.027889,57.7397791 134.899209,57.7397791 C134.746176,57.7397791 134.630124,57.562076 134.559771,57.2063697 C134.294595,55.9285285 133.85534,55.1177583 133.246516,54.7764603 C132.794935,54.5222129 131.60615,54.3940385 129.684072,54.3940385 L127.94419,54.3940385 L127.94419,60.6184487 L128.453797,60.6184487 C130.036137,60.6184487 131.001536,60.4983791 131.349392,60.25854 C131.693039,60.0187008 131.933562,59.3198955 132.057732,58.1618239 C132.086595,57.8661524 132.165366,57.717266 132.293745,57.717266 C132.447078,57.717266 132.52585,57.8454404 132.52585,58.0996878 C132.52585,58.3539353 132.509314,58.7282524 132.484359,59.2205379 C132.455497,59.7146245 132.43866,60.0889416 132.43866,60.3434892 C132.43866,61.8548658 132.463614,62.8910668 132.509314,63.4556943 C132.521641,63.598277 132.52585,63.7180465 132.52585,63.8174041 C132.52585,63.9993096 132.447078,64.0923636 132.293745,64.0923636 C132.194229,64.0923636 132.128085,64.0326289 132.090804,63.9125593 C132.057732,63.7924896 131.995497,63.3998619 131.912817,62.7358768 C131.800974,61.9046947 131.457026,61.3877949 130.877065,61.1911809 C130.624516,61.1065318 129.961575,61.0630065 128.892752,61.0630065 L127.94419,61.0630065 L127.94419,68.1579216 C131.055353,68.1579216 132.877915,68.0939845 133.416386,67.9697124 C134.348412,67.7607913 134.878765,66.8674731 135.007144,65.2918593 C135.036007,64.9445578 135.127105,64.7686558 135.280438,64.7686558 C135.425353,64.7686558 135.496007,64.9175422 135.496007,65.2132137 C135.496007,65.2711473 135.47917,65.6166477 135.450307,66.2512157 L135.450307,66.2512157 Z M121.912778,68.6646155 L121.680974,68.6646155 L120.604033,68.6646155 L119.398412,68.6646155 L117.919797,68.6646155 L116.776412,68.6646155 L116.631497,68.6646155 C116.333248,68.6646155 116.184124,68.6024794 116.184124,68.4743051 C116.184124,68.3338236 116.391275,68.2632827 116.801366,68.2632827 C117.522033,68.2632827 117.960987,68.1849373 118.11432,68.0297473 C118.184673,67.9595065 118.221954,67.4858318 118.221954,66.6090232 L118.221954,55.622351 C118.221954,55.6367593 118.135065,55.8829021 117.965196,56.3625803 C117.397863,58.0708711 116.573471,60.6391607 115.496229,64.0677493 L114.510386,67.4384043 C114.311654,68.1020892 114.170948,68.4328811 114.087967,68.4328811 C113.988451,68.4328811 113.880817,68.2632827 113.768974,67.9243861 C113.358882,66.6402413 112.207379,63.4328811 110.306046,58.3065078 L109.460908,56.0440956 L109.460908,57.1463349 L109.460908,64.0284265 C109.460908,66.6111245 109.485562,67.9180825 109.527052,67.9450982 C109.626569,68.1291049 109.966307,68.2200576 110.546268,68.2200576 C111.010176,68.2200576 111.24619,68.2923996 111.24619,68.4307799 C111.24619,68.5880711 111.097065,68.6646155 110.798817,68.6646155 C110.616621,68.6646155 110.446752,68.6523083 110.28951,68.6231915 C110.090477,68.5943747 109.916699,68.5817674 109.759157,68.5817674 L107.319353,68.6646155 C107.066503,68.6646155 106.938124,68.6024794 106.938124,68.4743051 C106.938124,68.3338236 107.340098,68.255178 108.147654,68.2407696 C108.487392,68.2407696 108.686124,68.1849373 108.740242,68.0711713 C108.797967,67.9595065 108.827131,67.5914931 108.827131,66.968932 L108.827131,56.8113406 C108.827131,55.6367593 108.810595,55.0018911 108.785641,54.9028336 C108.727614,54.7041184 108.607654,54.5696404 108.425157,54.4993997 C108.238752,54.4291589 107.845196,54.3712253 107.236373,54.3298013 C107.008477,54.3153929 106.896634,54.2532569 106.896634,54.1397911 C106.896634,53.9846011 107.103784,53.9059555 107.518085,53.9059555 L107.882477,53.9059555 L108.997,53.9059555 C109.841837,53.9059555 110.434425,53.901753 110.778072,53.8915471 C110.848725,54.0734526 111.258817,55.1858978 112.008346,57.2228793 C112.331549,58.0708711 113.238621,60.548208 114.725954,64.6506874 C114.995039,63.7306538 115.276752,62.8247283 115.562673,61.9314102 L117.828399,54.9337516 C117.969405,54.5285165 118.097784,54.1935222 118.205418,53.9266675 L121.333118,53.9059555 C121.792817,53.9059555 122.057993,53.9287687 122.124137,53.9701927 C122.19449,54.0134178 122.231771,54.0755538 122.231771,54.1602029 C122.231771,54.3030858 122.11181,54.3733265 121.871588,54.3733265 C121.473824,54.3733265 121.204739,54.3877349 121.063732,54.4168518 C120.723993,54.4726842 120.49219,54.5864501 120.36381,54.7560485 C120.293157,54.855106 120.260085,55.684487 120.260085,57.2414901 L120.260085,67.1157171 C120.260085,67.6824458 120.313902,68.0153389 120.425745,68.1143963 C120.61215,68.2428709 121.07215,68.3047067 121.805144,68.3047067 L121.933523,68.3047067 C122.215235,68.3047067 122.356242,68.3668428 122.356242,68.4848112 C122.356242,68.6066819 122.211327,68.6646155 121.912778,68.6646155 L121.912778,68.6646155 Z M104.075601,60.6412619 C103.342608,61.1209401 102.406373,61.3607793 101.275614,61.3607793 C100.794869,61.3607793 100.25219,61.3112505 99.643366,61.2118929 L99.643366,67.2252807 C99.643366,67.550069 99.6556928,67.7547878 99.6848562,67.8394369 C99.7552092,68.0381521 99.9127516,68.1579216 100.152974,68.1993456 C100.563065,68.2572792 100.956621,68.2839947 101.341758,68.2839947 C101.495092,68.2839947 101.573863,68.3338236 101.573863,68.4328811 C101.573863,68.5736627 101.474346,68.6439035 101.275614,68.6439035 L101.064255,68.6439035 L96.6732092,68.6439035 L96.399915,68.6439035 C95.9732876,68.6439035 95.7619281,68.5736627 95.7619281,68.4328811 C95.7619281,68.3338236 95.9110523,68.2839947 96.2093007,68.2839947 C96.8722418,68.2839947 97.2531699,68.2200576 97.3526863,68.0939845 C97.4645294,68.0360509 97.5306732,67.8952693 97.5433007,67.6698385 L97.5433007,55.1570811 C97.5433007,54.7188269 97.4230392,54.4498709 97.182817,54.3505133 C97.0418105,54.2946809 96.7934706,54.2658642 96.4414052,54.2658642 L96.2300458,54.2658642 L96.0809216,54.2658642 C95.8695621,54.2658642 95.7619281,54.2100318 95.7619281,54.0962658 C95.7619281,53.9701927 95.9606601,53.9059555 96.3542157,53.9059555 L101.022765,53.9059555 C102.634268,53.9059555 103.814935,54.1893198 104.564464,54.7539473 C105.41381,55.3888155 105.836229,56.2860359 105.836229,57.4420064 C105.836229,58.8132017 105.24815,59.8782194 104.075601,60.6412619 L104.075601,60.6412619 Z M92.207902,66.6960737 C90.9403464,68.1498169 89.3907778,68.8774389 87.5516797,68.8774389 C85.6007386,68.8774389 83.9603725,68.1393108 82.6305817,66.6648556 C81.3007908,65.1904004 80.6381503,63.370745 80.6381503,61.2118929 C80.6381503,59.0095155 81.2758366,57.2063697 82.5560196,55.8021553 C83.835902,54.3961398 85.4723595,53.6949331 87.469,53.6949331 C89.3453791,53.6949331 90.9235098,54.4291589 92.1952745,55.8973104 C93.4712484,57.365462 94.1050261,59.1854175 94.1050261,61.3607793 C94.1050261,63.463799 93.4712484,65.2423306 92.207902,66.6960737 L92.207902,66.6960737 Z M78.952085,65.6370595 L78.952085,65.8273699 L78.952085,66.1251426 L78.952085,66.9503212 C78.952085,67.3183346 78.9313399,67.9243861 78.8859412,68.7720778 L78.6538366,68.7720778 C78.5708562,68.7720778 78.3640065,68.7576694 78.0408039,68.7288527 C77.7176013,68.6997358 77.349,68.6874287 76.9389085,68.6874287 L68.1321634,68.6231915 C67.8919412,68.6231915 67.7716797,68.5592544 67.7716797,68.4328811 C67.7716797,68.3338236 67.9665033,68.2695864 68.3474314,68.2428709 C68.8819935,68.213754 69.2048954,68.1537192 69.3128301,68.0627664 C69.4162549,67.9697124 69.4700719,67.7049589 69.4700719,67.2688059 L69.4700719,55.3681035 C69.4700719,54.8449 69.4162549,54.5408237 69.3128301,54.4561746 C69.2048954,54.3712253 68.8281765,54.3298013 68.1775621,54.3298013 C67.9084771,54.3298013 67.7716797,54.2532569 67.7716797,54.0962658 C67.7716797,53.9701927 67.8585686,53.9059555 68.0284379,53.9059555 L68.2190523,53.9059555 C68.6871699,53.9494807 69.6110784,53.9701927 70.9985948,53.9701927 C71.1230654,53.9701927 71.3714052,53.9596866 71.7400065,53.9389746 C72.1089085,53.9164615 72.411366,53.9059555 72.6515882,53.9059555 L72.8833922,53.9059555 C73.1401503,53.9059555 73.2688301,53.9761962 73.2688301,54.1190791 C73.2688301,54.2037282 73.2273399,54.2553581 73.1485686,54.2760701 C73.0740065,54.2988834 72.8295752,54.3153929 72.4194837,54.3298013 C72.0093922,54.3445098 71.7649608,54.4105481 71.6861895,54.5306178 C71.607719,54.6503872 71.5704379,55.0226031 71.5704379,55.643063 L71.5704379,68.1351084 C71.951366,68.1498169 72.481719,68.1579216 73.1608954,68.1579216 C74.8138889,68.1579216 75.9819281,68.0732725 76.6614052,67.9036741 C77.3405817,67.7340758 77.7963725,67.415591 78.0408039,66.9503212 C78.2810261,66.4850513 78.421732,65.8564868 78.4632222,65.0664285 C78.4758497,64.8824218 78.5585294,64.7914691 78.7076536,64.7914691 C78.881732,64.7914691 78.9644118,64.8968302 78.952085,65.1078526 L78.952085,65.6370595 Z M65.8496013,66.2512157 C65.8207386,66.8860839 65.8081111,67.4942367 65.8081111,68.0732725 L65.8081111,68.7720778 C64.4205948,68.6874287 61.6783333,68.6439035 57.5771176,68.6439035 L56.1150392,68.6439035 L55.1373137,68.6439035 L54.9262549,68.6439035 C54.6568693,68.6439035 54.524281,68.5880711 54.524281,68.4743051 C54.524281,68.3977607 54.5657712,68.3545356 54.6526601,68.3419283 C54.6941503,68.3419283 54.9635359,68.3233175 55.4563072,68.2839947 C55.8249085,68.2572792 56.0485948,68.1786336 56.1231569,68.0504593 C56.2019281,67.9243861 56.2434183,67.5914931 56.2434183,67.0514799 L56.2434183,55.1156571 C56.2434183,54.7062196 56.181183,54.4621781 56.0612222,54.3838326 C55.9409608,54.305187 55.5558235,54.2658642 54.9055098,54.2658642 C54.6776144,54.2658642 54.5657712,54.2058294 54.5657712,54.0857597 C54.5657712,53.9659903 54.7233137,53.9059555 55.0338889,53.9059555 L58.6585686,53.9059555 L61.0568824,53.9059555 L64.0270392,53.9059555 C64.4494575,53.9059555 64.8388039,53.87924 65.1908693,53.8213064 C65.2200327,54.4291589 65.282268,55.2687459 65.3814837,56.3418683 L65.4686732,57.2519962 C65.481,57.3222369 65.4894183,57.4152909 65.4894183,57.5269556 C65.4894183,57.6695383 65.427183,57.7397791 65.2988039,57.7397791 C65.1412614,57.7397791 65.0294183,57.562076 64.9590654,57.2063697 C64.6896797,55.9285285 64.2507255,55.1177583 63.641902,54.7764603 C63.1903203,54.5222129 62.0012353,54.3940385 60.0791569,54.3940385 L58.3395752,54.3940385 L58.3395752,60.6184487 L58.8488824,60.6184487 C60.4354314,60.6184487 61.4008301,60.4983791 61.7444771,60.25854 C62.092634,60.0187008 62.3286471,59.3198955 62.4570261,58.1618239 C62.4858889,57.8661524 62.560451,57.717266 62.6891307,57.717266 C62.8463725,57.717266 62.9209346,57.8454404 62.9209346,58.0996878 C62.9209346,58.3539353 62.9086078,58.7282524 62.8794444,59.2205379 C62.8505817,59.7146245 62.8382549,60.0889416 62.8382549,60.3434892 C62.8382549,61.8548658 62.859,62.8910668 62.9043987,63.4556943 C62.9167255,63.598277 62.9209346,63.7180465 62.9209346,63.8174041 C62.9209346,63.9993096 62.8463725,64.0923636 62.6891307,64.0923636 C62.5896144,64.0923636 62.5231699,64.0326289 62.490098,63.9125593 C62.452817,63.7924896 62.3947908,63.3998619 62.3121111,62.7358768 C62.1960588,61.9046947 61.8521111,61.3877949 61.2763595,61.1911809 C61.0238105,61.1065318 60.3608693,61.0630065 59.2923464,61.0630065 L58.3395752,61.0630065 L58.3395752,68.1579216 C61.4504379,68.1579216 63.2772092,68.0939845 63.8114706,67.9697124 C64.7477059,67.7607913 65.2780588,66.8674731 65.4022288,65.2918593 C65.4313922,64.9445578 65.5224902,64.7686558 65.679732,64.7686558 C65.8207386,64.7686558 65.8910915,64.9175422 65.8910915,65.2132137 C65.8910915,65.2711473 65.8787647,65.6166477 65.8496013,66.2512157 L65.8496013,66.2512157 Z M52.7059281,54.2244402 C52.0844771,54.2388485 51.6701765,54.3319025 51.4549085,54.5015009 C51.243549,54.6710992 51.0240719,55.0682296 50.8003856,55.6904905 L50.0794183,57.6653359 C48.3398366,62.4360029 47.1134706,66.0963259 46.4093399,68.6439035 C46.3678497,68.8135018 46.2932876,68.8981509 46.1979804,68.8981509 C46.0822288,68.8981509 45.8501242,68.368944 45.4980588,67.3102299 C44.8600719,65.3765084 44.3673007,63.9227652 44.0110261,62.9490004 C43.6340065,61.8734766 43.0747908,60.2708471 42.3291699,58.1369094 L41.2976275,55.2831542 C41.1569216,54.8881251 40.9993791,54.6236717 40.8295098,54.4891937 C40.6596405,54.3547157 40.3779281,54.2802726 39.9804641,54.2658642 C39.5165556,54.2532569 39.2348431,54.2388485 39.1434444,54.2244402 C39.0523464,54.2100318 39.0069477,54.1541994 39.0069477,54.0548418 C39.0069477,53.9266675 39.1476536,53.8645314 39.429366,53.8645314 L39.6199804,53.8645314 C39.8767386,53.8645314 40.3159935,53.8750375 40.9455621,53.8957495 C41.5751307,53.9164615 42.0267124,53.9266675 42.296098,53.9266675 C42.366451,53.9266675 42.6355359,53.9164615 43.1120719,53.8957495 C43.584098,53.8750375 44.259366,53.8645314 45.1375752,53.8645314 L45.4316144,53.8645314 C45.6886732,53.8645314 45.8128431,53.9287687 45.8128431,54.056943 C45.8128431,54.1977247 45.5602941,54.2739689 45.0506863,54.2886774 L43.7581765,54.3319025 C43.4599281,54.346611 43.3108039,54.4435673 43.3108039,54.6215705 C43.3108039,54.6503872 43.3234314,54.710422 43.348085,54.7992736 L43.4972092,55.3762082 C43.5263725,55.4899742 44.2181765,57.4771267 45.5726209,61.3421685 C45.7963072,62.0079546 46.2271438,63.2755898 46.8651307,65.1429729 C49.2054183,58.5421444 50.3776667,55.072432 50.3776667,54.7332353 C50.3776667,54.4084469 50.0298105,54.2595605 49.3380065,54.2886774 L48.6792745,54.2886774 C48.5094052,54.2886774 48.4225163,54.2244402 48.4225163,54.0983671 C48.4225163,53.943177 48.6338758,53.8645314 49.0605033,53.8645314 L49.7811699,53.8645314 C50.1747255,53.9059555 50.4648562,53.9266675 50.6512614,53.9266675 L51.3304379,53.9266675 L52.7305817,53.8645314 C52.9834314,53.8645314 53.1118105,53.9203638 53.1118105,54.0341298 C53.1118105,54.1478958 52.9750131,54.212133 52.7059281,54.2244402 L52.7059281,54.2244402 Z M37.7932092,66.2512157 C37.7640458,66.8860839 37.751719,67.4942367 37.751719,68.0732725 L37.751719,68.7720778 C36.363902,68.6874287 33.6216405,68.6439035 29.5207255,68.6439035 L28.0586471,68.6439035 L27.0809216,68.6439035 L26.8695621,68.6439035 C26.6004771,68.6439035 26.4678889,68.5880711 26.4678889,68.4743051 C26.4678889,68.3977607 26.5093791,68.3545356 26.596268,68.3419283 C26.6377582,68.3419283 26.9068431,68.3233175 27.399915,68.2839947 C27.7685163,68.2572792 27.9922026,68.1786336 28.0667647,68.0504593 C28.1455359,67.9243861 28.1870261,67.5914931 28.1870261,67.0514799 L28.1870261,55.1156571 C28.1870261,54.7062196 28.1247908,54.4621781 28.0045294,54.3838326 C27.8845686,54.305187 27.4994314,54.2658642 26.848817,54.2658642 C26.6212222,54.2658642 26.5093791,54.2058294 26.5093791,54.0857597 C26.5093791,53.9659903 26.6666209,53.9059555 26.9774967,53.9059555 L30.6018758,53.9059555 L33.0004902,53.9059555 L35.9703464,53.9059555 C36.3930654,53.9059555 36.7824118,53.87924 37.1344771,53.8213064 C37.1636405,54.4291589 37.2255752,55.2687459 37.3250915,56.3418683 L37.4119804,57.2519962 C37.4246078,57.3222369 37.4327255,57.4152909 37.4327255,57.5269556 C37.4327255,57.6695383 37.3707908,57.7397791 37.2421111,57.7397791 C37.0848693,57.7397791 36.9730261,57.562076 36.9026732,57.2063697 C36.6332876,55.9285285 36.1943333,55.1177583 35.5852092,54.7764603 C35.1336275,54.5222129 33.9448431,54.3940385 32.0227647,54.3940385 L30.2828824,54.3940385 L30.2828824,60.6184487 L30.7924902,60.6184487 C32.3790392,60.6184487 33.3441373,60.4983791 33.688085,60.25854 C34.0359412,60.0187008 34.2719542,59.3198955 34.400634,58.1618239 C34.4294967,57.8661524 34.5040588,57.717266 34.6324379,57.717266 C34.7899804,57.717266 34.8645425,57.8454404 34.8645425,58.0996878 C34.8645425,58.3539353 34.851915,58.7282524 34.8230523,59.2205379 C34.7941895,59.7146245 34.7815621,60.0889416 34.7815621,60.3434892 C34.7815621,61.8548658 34.8023072,62.8910668 34.8480065,63.4556943 C34.8603333,63.598277 34.8645425,63.7180465 34.8645425,63.8174041 C34.8645425,63.9993096 34.7899804,64.0923636 34.6324379,64.0923636 C34.5332222,64.0923636 34.4667778,64.0326289 34.4337059,63.9125593 C34.3964248,63.7924896 34.3383987,63.3998619 34.2554183,62.7358768 C34.1396667,61.9046947 33.795719,61.3877949 33.2199673,61.1911809 C32.9674183,61.1065318 32.3044771,61.0630065 31.2356536,61.0630065 L30.2828824,61.0630065 L30.2828824,68.1579216 C33.3940458,68.1579216 35.220817,68.0939845 35.7550784,67.9697124 C36.6913137,67.7607913 37.221366,66.8674731 37.3458366,65.2918593 C37.3746993,64.9445578 37.4657974,64.7686558 37.6233399,64.7686558 C37.7640458,64.7686558 37.8346993,64.9175422 37.8346993,65.2132137 C37.8346993,65.2711473 37.8220719,65.6166477 37.7932092,66.2512157 L37.7932092,66.2512157 Z M22.1886863,67.0950051 C20.9169216,68.1143963 19.2104118,68.6231915 17.0769739,68.6231915 L16.3232353,68.6231915 L14.3843203,68.6231915 L13.323915,68.6231915 L11.646268,68.6231915 L11.3314837,68.6231915 C11.062098,68.6231915 10.9256013,68.5529507 10.9256013,68.4124692 C10.9256013,68.2839947 11.1534967,68.2200576 11.6047778,68.2200576 C12.1847386,68.2200576 12.5452222,68.1143963 12.6859281,67.9036741 C12.7439542,67.8043165 12.7731176,67.5356607 12.7731176,67.0992075 L12.7731176,55.684487 C12.7731176,54.9937864 12.7193007,54.5903524 12.611366,54.4786876 C12.5079412,54.3652218 12.1432484,54.3093894 11.522098,54.3093894 C11.1946863,54.3093894 11.0332353,54.2307438 11.0332353,54.0755538 C11.0332353,53.9638891 11.1534967,53.9059555 11.393719,53.9059555 L11.8618366,53.9059555 L12.8146078,53.9059555 L15.0845425,53.9059555 C17.6280719,53.9059555 19.4298889,54.0839587 20.4902941,54.4375638 C21.7785948,54.8614096 22.8182549,55.7009966 23.6095752,56.9539233 C24.4008954,58.2071501 24.7983595,59.6485862 24.7983595,61.27583 C24.7983595,63.7678754 23.9285686,65.7076004 22.1886863,67.0950051 L22.1886863,67.0950051 Z M0.245784314,74.7704569 L174.650425,74.7704569 L174.650425,47.7493846 L0.245784314,47.7493846 L0.245784314,74.7704569 Z" id="Fill-19"></path>
                </g>
            </g>
        </g>
    </g>
</svg>