<?xml version="1.0" encoding="UTF-8"?>
<svg width="136px" height="52px" viewBox="0 0 136 52" version="1.1" xmlns="http://www.w3.org/2000/svg" xmlns:xlink="http://www.w3.org/1999/xlink">
    <!-- Generator: Sketch 45.2 (43514) - http://www.bohemiancoding.com/sketch -->
    <title>mr-black</title>
    <desc>Created with Sketch.</desc>
    <defs>
        <polygon id="path-1" points="0.0180530973 0.0474385965 0.0180530973 30.9813567 135.882354 30.9813567 135.882354 0.0474385965 0.0180530973 0.0474385965"></polygon>
    </defs>
    <g id="Page-1" stroke="none" stroke-width="1" fill="none" fill-rule="evenodd">
        <g id="Sekond" transform="translate(-572.000000, -4409.000000)">
            <g id="Team" transform="translate(357.000000, 4353.000000)">
                <g id="mr-black" transform="translate(215.000000, 56.000000)">
                    <g id="Group-3" transform="translate(0.000000, 5.777778)">
                        <mask id="mask-2" fill="white">
                            <use xlink:href="#path-1"></use>
                        </mask>
                        <g id="Clip-2"></g>
                        <path d="M134.277735,11.9624327 C130.79469,8.33246784 122.424673,5.51352047 110.752442,3.39033918 C102.406496,1.89176608 92.3888319,0.828654971 81.4146549,0.344538012 C81.644531,0.911672515 81.814531,1.51621053 81.9484248,2.14355556 C94.7883894,2.73927485 106.264442,4.13384795 115.176956,6.07183626 C121.197363,7.3794386 126.05515,8.94126316 129.335097,10.6295906 C130.974319,11.4701053 132.216071,12.3455906 133.004991,13.1867135 C133.799027,14.0342222 134.124885,14.7978012 134.126991,15.5136374 C134.126991,16.2294737 133.799027,16.9915322 133.004991,17.8408655 C130.23685,20.8532164 121.957699,23.8555322 110.445841,25.8911345 C102.83285,27.2571228 93.7765133,28.2606316 83.8515221,28.7897544 C83.9697699,28.9384561 84.0786903,29.0591813 84.1722655,29.1415906 C84.5637168,29.4998129 84.9900708,29.669193 85.6029735,29.6740585 C85.6724779,29.6740585 85.8641416,29.6609825 86.1370442,29.6257076 C86.4343186,29.5892164 86.6386195,29.565193 86.8375044,29.5630643 C87.181115,29.5630643 87.5785841,29.6424327 87.9032389,29.9474386 C87.9080531,29.9526082 87.9176814,29.9559532 87.9249027,29.9620351 C87.9261062,29.9644678 87.9282124,29.9684211 87.9321239,29.9693333 C87.9333274,29.9717661 87.9357345,29.9741988 87.9369381,29.9741988 C87.9462655,29.9839298 87.950177,29.9973099 87.9583009,30.0079532 C88.0446549,30.1049591 88.1093451,30.2068304 88.1607965,30.3071813 C98.6060177,29.594386 107.961434,28.3406082 115.545841,26.6896842 C121.659522,25.359883 126.625327,23.7804211 130.132442,21.9810994 C131.884195,21.0770292 133.281805,20.1197427 134.277735,19.064538 C135.257416,18.0272749 135.867009,16.8413099 135.88115,15.5632047 C135.882354,15.5464795 135.882354,15.5300585 135.882354,15.5136374 C135.882354,14.2169825 135.26915,13.0124678 134.277735,11.9624327 Z M1.60461947,11.9624327 C0.614106195,13.0124678 0,14.2169825 0,15.5136374 C0,16.8109006 0.614106195,18.0135906 1.60461947,19.064538 C3.43761062,20.9727251 6.63361062,22.6552749 10.9359646,24.1325614 C10.9970442,23.5675556 11.0484956,22.9551111 11.0915221,22.311345 C9.35421239,21.6964678 7.82872566,21.0575673 6.54484956,20.3967719 C4.90833628,19.5562573 3.66628319,18.6825965 2.87736283,17.8408655 C2.08332743,16.9915322 1.75776991,16.2294737 1.75536283,15.5136374 C1.75776991,14.7978012 2.08332743,14.0342222 2.87736283,13.1867135 C4.36223009,11.5710643 7.43246018,9.9602807 11.7336106,8.49850292 C11.7441416,8.21630409 11.756177,7.91373099 11.7658053,7.58652632 C11.7694159,7.34750877 11.7742301,7.01635088 11.7766372,6.61160234 C9.4559115,7.37214035 7.43576991,8.18376608 5.7499115,9.04769591 C3.99695575,9.94933333 2.60325664,10.9072281 1.60461947,11.9624327 Z M67.942531,1.82243275 C69.8570619,1.82243275 71.7490265,1.8434152 73.620531,1.87747368 C73.3307788,1.20633918 72.9582832,0.613356725 72.5153805,0.0839298246 C71.0019292,0.0620350877 69.4812566,0.0474385965 67.942531,0.0474385965 C66.7835221,0.0474385965 65.6314336,0.0538245614 64.4865664,0.0665964912 C64.4543717,0.438502924 64.435115,0.857239766 64.4399292,1.32736842 L64.4399292,1.8434152 C65.5929204,1.82973099 66.7522301,1.82243275 67.9220708,1.82243275 C67.9280885,1.82243275 67.9329027,1.82243275 67.942531,1.82243275 Z M20.7044956,24.9554386 C18.7442301,24.530924 16.9121416,24.0781287 15.2154513,23.6013099 L15.2154513,25.0947135 C15.2142478,25.2160468 15.2154513,25.3285614 15.2178584,25.4435088 C17.6089912,26.0930526 20.2399292,26.6945497 23.0920177,27.2537778 L22.2681947,25.2802105 C21.7437522,25.1722573 21.2144956,25.0655205 20.7044956,24.9554386 Z M31.0119115,28.5774971 C33.8652035,28.986807 36.8599115,29.3483743 39.9876106,29.6597661 C40.1193982,29.5022456 40.2223009,29.3462456 40.2869912,29.1996725 C40.3983186,28.9588304 40.4930973,28.5242807 40.5361239,27.9288655 C37.4872566,27.6287251 34.5608496,27.283883 31.7770619,26.8931228 L31.0119115,28.5774971 Z M25.4368142,5.13644444 C29.3606549,4.43277193 33.6738407,3.82701754 38.2824956,3.33073684 L39.1409204,1.45326316 C32.6797168,2.11953216 26.7871858,3.00535673 21.6444602,4.0654269 L22.3545487,5.72030409 C23.3543894,5.51899415 24.3816106,5.3228538 25.4368142,5.13644444 Z M48.5083717,28.6285848 C48.7478761,29.3210058 49.1345133,29.8726316 49.6938584,30.3229942 C49.7489204,30.3689123 49.8124071,30.4050994 49.8686726,30.4449357 C51.3652743,30.5358596 52.8826372,30.6134035 54.4153451,30.6821287 C54.6033982,30.5769123 54.7577522,30.4814269 54.8630619,30.4075322 C55.3971327,30.0395789 55.7804602,29.5724912 56.0545664,28.9722105 C53.4801947,28.8718596 50.9548673,28.7423158 48.4939292,28.5787135 C48.4975398,28.5945263 48.5047611,28.6139883 48.5083717,28.6285848 Z M67.942531,29.2069708 C66.9532212,29.2069708 65.9714336,29.1996725 64.9920531,29.1899415 C65.2854159,29.7370058 65.6615221,30.1013099 66.1760354,30.3445848 L66.281646,30.4050994 C66.425469,30.5066667 66.8370796,30.693076 67.4346372,30.8758363 C67.5375398,30.9083743 67.6335221,30.9445614 67.7304071,30.9813567 C67.8023186,30.9813567 67.8706195,30.9813567 67.942531,30.9813567 C70.683292,30.9813567 73.3786195,30.9424327 76.0333274,30.8721871 C75.6873097,30.3491462 75.3364779,29.7695439 74.9772212,29.1245614 C72.6625133,29.1768655 70.3192212,29.2069708 67.942531,29.2069708 Z M56.3419115,0.26851462 C53.3532212,0.380421053 50.4280177,0.534596491 47.5888673,0.730736842 C47.5458407,1.14704094 47.5205664,1.62081871 47.5205664,2.15693567 L47.5205664,2.51272515 C50.4457699,2.30867836 53.4609381,2.14902924 56.5477168,2.03408187 C56.5046903,1.22580117 56.4303717,0.631602339 56.3419115,0.26851462 L56.3419115,0.26851462 Z" id="Fill-1" fill="#8C8987" mask="url(#mask-2)"></path>
                    </g>
                    <path d="M51.1378053,37.5719766 C50.4135752,37.4354386 49.7741947,37.1511111 49.2184602,36.7129123 C48.546885,36.1731462 48.065469,35.4858947 47.7802301,34.6627135 C47.4940885,33.8410526 47.3325133,32.5474386 47.3003186,30.790386 L46.7506018,8.42491228 L46.7506018,7.93471345 C46.7506018,6.62528655 46.8811858,5.61356725 47.1408496,4.89712281 C47.3996106,4.18007018 47.8127257,3.66645614 48.3801947,3.35901754 C48.9982124,2.94271345 49.6484248,2.64804678 50.3332389,2.47562573 C51.0171504,2.30259649 51.3619646,1.97995322 51.3619646,1.50982456 C51.3619646,1.05794152 51.2828319,0.74077193 51.1212566,0.55922807 C50.9641947,0.377684211 50.6482655,0.287672515 50.1824956,0.287672515 C50.0326549,0.287672515 49.5346903,0.343929825 48.6892035,0.453403509 C47.8425133,0.566526316 47.0692389,0.621567251 46.3684779,0.621567251 C45.9664956,0.621567251 45.4932035,0.566526316 44.9486018,0.453403509 C44.4061062,0.343929825 44.0600885,0.287672515 43.9078407,0.287672515 C43.6241062,0.287672515 43.3821947,0.372210526 43.1824071,0.543415205 C42.981115,0.712795322 42.795469,1.01323977 42.6290796,1.44140351 L30.2178761,28.6383158 C30.1351327,28.8396257 30.0226018,28.9992749 29.8814867,29.1154386 C29.7400708,29.2349474 29.6037699,29.292117 29.4695752,29.292117 C29.3365841,29.292117 29.2204425,29.2349474 29.1199469,29.1154386 C29.0191504,28.9992749 28.9102301,28.8031345 28.795292,28.528538 L17.4606549,2.01583626 C17.1408142,1.27749708 16.8835575,0.80980117 16.6810619,0.611836257 C16.4797699,0.413567251 16.212885,0.305918129 15.8789027,0.287672515 C15.8118053,0.287672515 15.6345841,0.313520468 15.3520531,0.364304094 C14.3630442,0.535508772 13.458885,0.621567251 12.637469,0.621567251 C11.4149735,0.621567251 10.1491504,0.535508772 8.84421239,0.364304094 C8.56017699,0.313520468 8.38295575,0.287672515 8.31615929,0.287672515 C7.98067257,0.287672515 7.74357522,0.374035088 7.60125664,0.547368421 C7.45743363,0.717964912 7.38552212,0.985263158 7.38552212,1.34652632 C7.38552212,1.90879532 7.7640354,2.28556725 8.51955752,2.47562573 C9.27387611,2.66507602 9.89670796,2.9591345 10.3826372,3.35901754 C11.1550088,4.1034386 11.7083363,5.09691228 12.0435221,6.34217544 C12.3799115,7.58561404 12.5466018,9.39709942 12.5466018,11.7757193 C12.5466018,12.4848655 12.5426903,13.0200702 12.5345664,13.383462 C12.5249381,13.7465497 12.5129027,14.0837895 12.4987611,14.390924 L11.9213628,27.0591579 C11.8208673,29.2170058 11.6243894,31.0078129 11.3286195,32.4312749 C11.0340531,33.8544327 10.6365841,34.9461287 10.1338053,35.7072749 C9.71226549,36.3391813 9.1159115,36.9224327 8.34353982,37.4472982 C7.5699646,37.9739883 7.18332743,38.3708304 7.18332743,38.6445146 C7.18332743,39.0243275 7.26366372,39.3244678 7.42283186,39.5397661 C7.58079646,39.7578012 7.81187611,39.8666667 8.1160708,39.8666667 C8.12930973,39.8666667 8.72536283,39.7891228 9.89670796,39.6331228 C11.0698584,39.4768187 12.2279646,39.3995789 13.3668142,39.3995789 C14.2372743,39.3995789 15.2395221,39.4768187 16.3699469,39.6331228 C17.5015752,39.7891228 18.1909027,39.8666667 18.443646,39.8666667 C18.9109204,39.8666667 19.2352743,39.7915556 19.411292,39.6389006 C19.5861062,39.484117 19.6760708,39.2083041 19.6760708,38.8135906 C19.6760708,38.1819883 19.2927434,37.7465263 18.5312035,37.5154152 C17.7684602,37.2827836 17.2115221,37.0179181 16.8558761,36.7299415 C15.9854159,36.4407485 15.3664956,35.8587135 14.9976106,34.9871813 C14.6299292,34.1144327 14.4454867,32.7432749 14.4454867,30.8724912 L14.4454867,28.4750175 L14.897115,14.6375439 C14.9305133,14.0916959 14.9771504,13.7091462 15.0370265,13.4920234 C15.0956991,13.2733801 15.1832566,13.1651228 15.2981947,13.1651228 C15.4344956,13.1845848 15.5521416,13.2569591 15.6514336,13.383462 C15.7507257,13.5090526 15.8945487,13.7915556 16.0786903,14.2270175 L26.0737876,38.1722573 C26.1035752,38.2425029 26.1396814,38.3224795 26.1730796,38.411883 C26.4219115,39.0702456 26.7646195,39.3995789 27.1969912,39.3995789 C27.4470265,39.3995789 27.6531327,39.3293333 27.8219292,39.1864094 C27.9859115,39.0450058 28.1775752,38.7327018 28.3942124,38.2522339 L39.2092212,14.4456608 C39.4273628,13.9916491 39.6247434,13.6367719 39.8019646,13.383462 C39.9803894,13.1295439 40.1266195,13 40.2463717,13 C40.3288142,13 40.4127611,13.1295439 40.4988142,13.383462 C40.5815575,13.6367719 40.6354159,13.9530292 40.6498584,14.335883 L41.3310619,31.690807 L41.3310619,32.9153918 C41.3310619,33.9839766 41.218531,34.7767485 40.9910619,35.2921871 C40.7635929,35.8079298 40.339646,36.2844444 39.7159115,36.7177778 C39.4953628,36.8993216 39.1746195,37.1146199 38.7542832,37.3712749 C38.0107965,37.7875789 37.6395044,38.2282105 37.6395044,38.6998596 C37.6395044,39.1164678 37.7412035,39.4138713 37.9449027,39.5957193 C38.1446903,39.7757427 38.4549027,39.8666667 38.877646,39.8666667 C38.9961947,39.8666667 39.714708,39.7891228 41.0340885,39.6331228 C42.3549735,39.4768187 43.6373451,39.3995789 44.882708,39.3995789 C46.075115,39.3995789 47.3397345,39.4768187 48.6795752,39.6331228 C50.0149027,39.7891228 50.7511681,39.8666667 50.8853628,39.8666667 C51.3724956,39.8666667 51.7176106,39.7672281 51.9222124,39.5689591 C52.1210973,39.3716023 52.2215929,39.0267602 52.2215929,38.535345 C52.2215929,38.0269006 51.8599292,37.7079064 51.1378053,37.5719766" id="Fill-4" fill="#8C8987"></path>
                    <path d="M67.8862655,18.7431111 C66.0626018,18.7431111 64.9020885,18.606269 64.4101416,18.3344094 C63.9166903,18.0640702 63.6711681,17.3108304 63.6711681,16.0768187 L63.6711681,7.1051462 C63.6711681,5.29730994 63.8974336,4.1034386 64.3502655,3.52566082 C64.8003894,2.94697076 65.6218053,2.65716959 66.8096991,2.65716959 C69.4225841,2.65716959 71.4725133,3.49890058 72.9655044,5.18418713 C74.4539823,6.86673684 75.1986726,9.17693567 75.1986726,12.1117427 C75.1986726,14.4477895 74.6251858,16.1403743 73.4794159,17.1800702 C72.3309381,18.2200702 70.4678584,18.7431111 67.8862655,18.7431111 Z M87.3872212,36.2978246 C87.2722832,36.1780117 87.0869381,36.1199298 86.8375044,36.1199298 C86.7177522,36.1199298 86.5179646,36.1390877 86.231823,36.1755789 C85.9456814,36.2132865 85.7395752,36.2287953 85.6029735,36.2287953 C84.8309027,36.2287953 84.1791858,35.9846082 83.6502301,35.4928889 C83.122177,35.0029942 82.4969381,34.0216842 81.7772212,32.5498713 L76.5517522,22.1109474 C76.2382301,21.4556257 75.9457699,20.9423158 75.6740708,20.5783158 C75.4032743,20.2143158 75.1114159,19.9397193 74.7975929,19.7581754 C77.0572389,18.9425965 78.733469,17.8025497 79.8280885,16.3352982 C80.9260177,14.868655 81.4754336,13.0206784 81.4754336,10.7913684 C81.4754336,7.47735673 80.4313628,4.91536842 78.3480354,3.10449123 C76.2644071,1.29391813 73.2982832,0.388023392 69.4487611,0.388023392 C68.2452212,0.388023392 66.5882478,0.465567251 64.4793451,0.621567251 C62.3731504,0.777567251 60.8753451,0.853894737 59.9892389,0.853894737 C58.2468142,0.853894737 56.3635752,0.73651462 54.3410265,0.497497076 C53.7543009,0.423906433 53.3950442,0.388023392 53.2584425,0.388023392 C52.8405133,0.388023392 52.5281947,0.487157895 52.3163717,0.685122807 C52.1078584,0.882479532 52.0025487,1.17106433 52.0025487,1.54844444 C52.0025487,2.1791345 52.5531681,2.59361404 53.6513982,2.79157895 C54.7469204,2.98923977 55.5550973,3.36753216 56.0762301,3.92311111 C56.5416991,4.43307602 56.8747788,5.04977778 57.0685487,5.77352047 C57.2626195,6.49878363 57.3586018,7.79330994 57.3586018,9.66105263 L57.3586018,31.5405848 C57.3586018,32.8938012 57.1943186,33.9900585 56.8675575,34.8311813 C56.5407965,35.6698713 56.0148496,36.3364444 55.2954336,36.829076 C55.0583363,36.9935906 54.7147257,37.189731 54.2630973,37.4244912 C53.3709735,37.8590409 52.9292743,38.3541053 52.9292743,38.9130292 C52.9292743,39.2545263 53.032177,39.5157427 53.2430973,39.6972865 C53.4501062,39.8751813 53.7543009,39.9658012 54.1577876,39.9658012 C54.3744248,39.9658012 55.2701593,39.8885614 56.8446903,39.7334737 C58.4156106,39.5762573 59.8743009,39.4999298 61.210531,39.4999298 C62.4655221,39.4999298 63.781292,39.5762573 65.1524248,39.7334737 C66.5235575,39.8885614 67.2682478,39.9658012 67.3843894,39.9658012 C67.8369204,39.9658012 68.1555575,39.8751813 68.34,39.6972865 C68.5217345,39.5157427 68.6177168,39.2010058 68.6177168,38.7506433 C68.6177168,38.1360702 68.1447257,37.6857076 67.2095752,37.397731 C66.5738053,37.2006784 66.1224779,37.0106199 65.855292,36.829076 C65.0672743,36.4659883 64.490177,35.8416842 64.1227965,34.9546433 C63.7539115,34.0672982 63.5718761,32.8767719 63.5718761,31.3769825 L63.5718761,23.1740585 C63.5718761,22.4098713 63.7141947,21.8935205 64.0087611,21.6207485 C64.3021239,21.3488889 64.8759115,21.2111345 65.7295221,21.2111345 C66.935469,21.2111345 67.772531,21.2847251 68.243115,21.4300819 C68.7085841,21.5760468 69.1277168,21.820538 69.4969027,22.1665965 C69.9984779,22.6391579 71.1310088,24.8465731 72.8902832,28.7864094 L73.3416106,29.8233684 C75.014531,33.605076 76.5015044,36.240655 77.7995221,37.7319298 C79.0999469,39.2229006 80.5116991,39.9658012 82.0383894,39.9658012 C83.3761239,39.9658012 84.6344248,39.6331228 85.8078761,38.9711111 C86.9789204,38.307883 87.5668496,37.6194152 87.5668496,36.9114854 C87.5668496,36.6198596 87.5069735,36.4152047 87.3872212,36.2978246 L87.3872212,36.2978246 Z" id="Fill-5" fill="#8C8987"></path>
                    <path d="M90.944885,22.4259883 L90.944885,23.1250994 C90.944885,23.1840936 90.947292,23.2555556 90.9506018,23.3422222 C90.9554159,23.4276725 90.9581239,23.4796725 90.9581239,23.4988304 C90.9581239,23.6435789 90.8070796,23.7749474 90.5101062,23.894152 C90.4096106,23.9352047 90.3316814,23.9659181 90.2766195,23.9878129 C89.6179823,24.2745731 88.970177,24.4938246 88.3437345,24.6443509 C87.7163894,24.7936608 87.1404956,24.8681637 86.6184602,24.8681637 C85.332177,24.8681637 84.2929204,24.5196725 83.4979823,23.8190409 C82.7042478,23.1202339 82.3067788,22.2003509 82.3067788,21.0615205 C82.3067788,19.7624327 82.7617168,18.6756023 83.6715929,17.8013333 C84.584177,16.9270643 85.7106903,16.4888655 87.0517345,16.4888655 C87.7476814,16.4888655 88.4481416,16.6147602 89.155823,16.8671579 C89.8598938,17.1183392 90.2335929,17.2454503 90.2766195,17.2454503 C90.4072035,17.2454503 90.5076991,17.1992281 90.5808142,17.1067836 C90.6524248,17.0164678 90.7267434,16.9699415 90.7938407,16.9699415 C90.8467965,16.9699415 90.8862124,16.9881871 90.9075752,17.0237661 C90.9328496,17.0581287 90.944885,17.1256374 90.944885,17.221731 C90.944885,17.2405848 90.9292389,17.3567485 90.9015575,17.5690058 C90.8717699,17.7818713 90.858531,17.9877427 90.858531,18.1844912 C90.858531,18.473076 90.8826018,18.7802105 90.9253274,19.110152 C90.9328496,19.1883041 90.9397699,19.2378713 90.944885,19.2603743 C90.944885,19.3795789 90.9328496,19.4510409 90.9075752,19.4756725 C90.8838053,19.4993918 90.8404779,19.5118596 90.7818053,19.5118596 C90.6548319,19.5118596 90.5627611,19.4206316 90.502885,19.236655 C90.4418053,19.0508538 90.374708,18.8863392 90.3015929,18.7446316 C90.034708,18.2370994 89.5999292,17.8189708 89.001469,17.4878129 C88.402708,17.1581754 87.7834867,16.9924444 87.1489204,16.9924444 C86.1921062,16.9924444 85.4308673,17.2968421 84.8655044,17.9059415 C84.2992389,18.515345 84.0176106,19.3394386 84.0176106,20.3779181 C84.0176106,21.5650994 84.3004425,22.5163041 84.8700177,23.230924 C85.4413982,23.9467602 86.1960177,24.3037661 87.1347788,24.3037661 C87.5415752,24.3037661 87.9294159,24.2408187 88.3022124,24.1167485 C88.6732035,23.991462 88.9391858,23.8403275 89.0959469,23.6612164 C89.1711681,23.5745497 89.2334513,23.4276725 89.2791858,23.2175439 C89.325823,23.006807 89.3471858,22.7614035 89.3471858,22.4828538 C89.3471858,22.1501754 89.2836991,21.9093333 89.1567257,21.7557661 C89.027646,21.6031111 88.8098053,21.5076257 88.4995929,21.4647485 C88.4087257,21.4355556 88.2889735,21.4090994 88.1382301,21.3823392 C87.9104602,21.3382456 87.7943186,21.258269 87.7943186,21.1433216 C87.7943186,21.073076 87.8195929,21.0204678 87.8710442,20.9879298 C87.9224956,20.9532632 88.0148673,20.9380585 88.1382301,20.9380585 C88.1929912,20.9380585 88.4349027,20.9520468 88.8600531,20.9794152 C89.2876106,21.0058713 89.6778584,21.0204678 90.0383186,21.0204678 C90.3533451,21.0204678 90.6801062,21.0058713 91.0164956,20.9794152 C91.355292,20.9520468 91.5376283,20.9380585 91.5662124,20.9380585 C91.6811504,20.9380585 91.7635929,20.9532632 91.8150442,20.9879298 C91.8716106,21.0204678 91.8977876,21.0688187 91.8977876,21.1317661 C91.8977876,21.2391111 91.8045133,21.3133099 91.6224779,21.3510175 C91.4392389,21.3890292 91.3101593,21.4282573 91.2415575,21.4647485 C91.1353451,21.5663158 91.0574159,21.687345 91.012885,21.8287485 C90.9662478,21.969848 90.944885,22.1690292 90.944885,22.4259883" id="Fill-6" fill="#8C8987"></path>
                    <path d="M94.622,19.8442339 L94.580177,20.7723275 C94.8843717,20.3989006 95.1512566,20.120655 95.3799292,19.9360702 C95.6073982,19.7514854 95.7942478,19.6596491 95.940177,19.6596491 C96.1342478,19.6596491 96.3569027,19.7612164 96.6084425,19.9634386 C96.8599823,20.1653567 96.9857522,20.3432515 96.9857522,20.4959064 C96.9857522,20.6324444 96.907823,20.8191579 96.7510619,21.0533099 C96.5927965,21.2868538 96.4549912,21.4051462 96.3355398,21.4051462 C96.2672389,21.4051462 96.1161947,21.3242573 95.8887257,21.1643041 C95.6615575,21.004655 95.4590619,20.9255906 95.2830442,20.9255906 C95.0411327,20.9255906 94.862708,21.0192515 94.750177,21.2105263 C94.6349381,21.3999766 94.580177,21.6995088 94.580177,22.1054737 L94.580177,23.2449123 C94.580177,23.5328889 94.6039469,23.734807 94.6529912,23.8491462 C94.7035398,23.9625731 94.7932035,24.0574503 94.9213805,24.1325614 C95.0375221,24.1955088 95.2015044,24.248117 95.4088142,24.2909942 C95.6146195,24.332655 95.7163186,24.4083743 95.7163186,24.5154152 C95.7163186,24.5783626 95.6886372,24.6267135 95.631469,24.6595556 C95.574,24.6927018 95.4912566,24.709731 95.3871504,24.709731 C95.3116283,24.709731 95.1295929,24.6993918 94.8341239,24.6790175 C94.5404602,24.6583392 94.2841062,24.6486082 94.0677699,24.6486082 C93.6338938,24.6486082 93.2150619,24.6662456 92.8115752,24.7036491 C92.7529027,24.7066901 92.7134867,24.709731 92.6954336,24.709731 C92.6271327,24.709731 92.5669558,24.6927018 92.5230265,24.6595556 C92.4784956,24.6267135 92.4544248,24.5814035 92.4544248,24.5251462 C92.4544248,24.4767953 92.5708673,24.3834386 92.804354,24.2462924 C93.0366372,24.1088421 93.1539823,23.8710409 93.1539823,23.5316725 L93.1539823,21.3145263 C93.1539823,21.0423626 93.1359292,20.8641637 93.0977168,20.7820585 C93.0619115,20.6996491 92.9957168,20.6324444 92.9027434,20.5810526 C92.830531,20.5448655 92.7071681,20.520538 92.5287434,20.5098947 C92.3430973,20.4989474 92.2558407,20.4408655 92.2558407,20.3356491 C92.2558407,20.2231345 92.3888319,20.1425497 92.6593274,20.0932865 C92.9310265,20.0479766 93.1693274,19.9947602 93.3754336,19.9299883 C93.6065133,19.857614 93.84,19.7733801 94.0722832,19.6785029 C94.3033628,19.5839298 94.4339469,19.5367953 94.4652389,19.5367953 C94.5010442,19.5367953 94.5344425,19.5495673 94.5681416,19.5729825 C94.6039469,19.5960936 94.622,19.6216374 94.622,19.6480936 L94.622,19.8442339" id="Fill-7" fill="#8C8987"></path>
                    <path d="M100.291575,20.0771696 C99.8032389,20.0771696 99.4214159,20.2164444 99.1470088,20.4928655 C98.8762124,20.7692865 98.738708,21.1643041 98.738708,21.6782222 C98.738708,22.4776842 98.9219469,23.1351345 99.2869204,23.6517895 C99.6509912,24.1687485 100.120673,24.4266199 100.689345,24.4266199 C101.157522,24.4266199 101.530018,24.2879532 101.798106,24.010924 C102.068903,23.734807 102.202796,23.3519532 102.202796,22.8654035 C102.202796,22.0549942 102.021965,21.3878129 101.659097,20.8641637 C101.297434,20.3396023 100.842496,20.0771696 100.291575,20.0771696 Z M100.449841,19.6596491 C101.363628,19.6596491 102.106814,19.890152 102.681805,20.3517661 C103.256496,20.8142924 103.543841,21.4097076 103.543841,22.1398363 C103.543841,22.9259181 103.242053,23.5709006 102.643593,24.0756959 C102.043628,24.5807953 101.280584,24.8325848 100.356265,24.8325848 C99.4954336,24.8325848 98.7844425,24.596 98.2223894,24.1228304 C97.6657522,23.6496608 97.3868319,23.0493801 97.3868319,22.3232047 C97.3868319,21.5760468 97.6838053,20.9441404 98.2789558,20.4305263 C98.8750088,19.9169123 99.5986372,19.6596491 100.449841,19.6596491 L100.449841,19.6596491 Z" id="Fill-8" fill="#8C8987"></path>
                    <path d="M106.325522,21.0967953 L106.325522,22.2313684 C106.325522,22.8936842 106.427221,23.3556023 106.632124,23.6168187 C106.834319,23.8783392 107.17823,24.0097076 107.659646,24.0097076 C108.031841,24.0097076 108.320389,23.9248655 108.519274,23.7573099 C108.719062,23.5891462 108.818354,23.3428304 108.818354,23.0220117 L108.818354,20.855345 C108.818354,20.6947836 108.795788,20.5643275 108.739522,20.4636725 C108.691381,20.3633216 108.61977,20.2997661 108.529805,20.2739181 C108.485876,20.2593216 108.416071,20.2404678 108.316779,20.2231345 C108.071558,20.1763041 107.948195,20.0923743 107.948195,19.9664795 C107.948195,19.9059649 107.971965,19.8597427 108.012584,19.8296374 C108.052,19.7983158 108.11669,19.7831111 108.203044,19.7831111 C108.221097,19.7831111 108.256903,19.7849357 108.313168,19.789193 C108.369434,19.7922339 108.410354,19.7940585 108.437735,19.7940585 C108.886956,19.7940585 109.365664,19.7581754 109.866336,19.6864094 C110.005044,19.6681637 110.092602,19.6596491 110.133221,19.6596491 C110.193097,19.6596491 110.236124,19.6745497 110.262602,19.7031345 C110.290283,19.7329357 110.299611,19.7837193 110.299611,19.8545731 C110.299611,19.8652164 110.299611,19.899883 110.29269,19.954924 C110.261398,20.3186199 110.244549,20.6996491 110.244549,21.0967953 L110.244549,23.2622456 C110.244549,23.5353216 110.262602,23.7132164 110.299611,23.796538 C110.334513,23.8819883 110.400407,23.9437193 110.496088,23.9841637 C110.568903,24.0276491 110.695876,24.0592749 110.873097,24.0756959 C111.050319,24.0924211 111.14269,24.1526316 111.14269,24.254807 C111.14269,24.3594152 111.083115,24.4290526 110.967876,24.4634152 C110.850531,24.4999064 110.552354,24.5166316 110.07846,24.5166316 C109.927416,24.5166316 109.735752,24.5555556 109.508283,24.6321871 C109.27931,24.7079064 109.134584,24.7459181 109.071097,24.7459181 C108.987451,24.7459181 108.91554,24.722807 108.861681,24.6790175 C108.806619,24.6346199 108.781345,24.5807953 108.781345,24.5166316 L108.781345,24.384655 L108.818354,23.9175673 C108.456991,24.2067602 108.11669,24.4174971 107.795947,24.5494737 C107.473699,24.6811462 107.148142,24.7459181 106.82108,24.7459181 C106.184106,24.7459181 105.707504,24.5519064 105.387965,24.1620585 C105.072938,23.7734269 104.914973,23.188655 104.914973,22.405614 L104.914973,20.855345 C104.914973,20.6996491 104.887593,20.5704094 104.833434,20.4709708 C104.780779,20.3700117 104.705257,20.302807 104.610779,20.2739181 C104.567752,20.2593216 104.498248,20.2404678 104.400159,20.2231345 C104.162761,20.1763041 104.04692,20.0923743 104.04692,19.9664795 C104.04692,19.9059649 104.065876,19.8597427 104.105593,19.8296374 C104.147416,19.7983158 104.209699,19.7831111 104.292142,19.7831111 C104.313805,19.7831111 104.350814,19.7849357 104.401062,19.789193 C104.453717,19.7922339 104.494637,19.7940585 104.519912,19.7940585 C104.971239,19.7940585 105.445434,19.7581754 105.949416,19.6864094 C106.087221,19.6681637 106.174478,19.6596491 106.209381,19.6596491 C106.272867,19.6596491 106.321912,19.6745497 106.352,19.7061754 C106.380584,19.7396257 106.397133,19.7870643 106.397133,19.8545731 C106.397133,19.8761637 106.391416,19.9391111 106.380584,20.0443275 C106.344478,20.4189708 106.325522,20.7692865 106.325522,21.0967953" id="Fill-9" fill="#8C8987"></path>
                    <path d="M113.623788,23.630807 C113.818761,23.8491462 114.047735,24.0182222 114.309805,24.1386433 C114.572177,24.2572398 114.853504,24.3159298 115.158602,24.3159298 C115.629487,24.3159298 115.994761,24.1717895 116.254425,23.8801637 C116.514088,23.5909708 116.64377,23.178924 116.64377,22.646152 C116.64377,22.0011696 116.47708,21.4741754 116.138283,21.0621287 C115.799487,20.6512982 115.371929,20.445731 114.852301,20.445731 C114.610389,20.445731 114.386531,20.4837427 114.180425,20.559462 C113.979133,20.6345731 113.793788,20.7476959 113.623788,20.8970058 L113.623788,23.630807 Z M113.652673,19.7685146 L113.623788,20.4691462 C113.983044,20.1854269 114.323044,19.981076 114.642885,19.8533567 C114.963628,19.7238129 115.294301,19.6596491 115.636407,19.6596491 C116.292938,19.6596491 116.813469,19.8624795 117.196796,20.2678363 C117.579823,20.6738012 117.771487,21.2305965 117.771487,21.9385263 C117.771487,22.7486316 117.479327,23.4276725 116.901027,23.975345 C116.321522,24.5221053 115.617451,24.7954854 114.785204,24.7954854 C114.59023,24.7954854 114.400973,24.7720702 114.217434,24.726152 C114.035699,24.6790175 113.836814,24.605731 113.623788,24.5056842 L113.623788,25.7679766 C113.623788,25.9175906 113.653575,26.0462222 113.714956,26.1541754 C113.773327,26.2618246 113.863292,26.3506199 113.985451,26.4178246 C114.071504,26.4649591 114.210513,26.5087485 114.402177,26.5449357 C114.595947,26.5838596 114.693133,26.6562339 114.693133,26.7629708 C114.693133,26.8365614 114.664248,26.8888655 114.606779,26.926269 C114.548106,26.9636725 114.463257,26.9831345 114.351929,26.9831345 C114.337487,26.9831345 114.295363,26.978269 114.221345,26.9709708 C113.777239,26.9384327 113.317186,26.9201871 112.834566,26.9201871 C112.543611,26.9201871 112.245735,26.936 111.949664,26.9673216 C111.872938,26.978269 111.826301,26.9831345 111.81577,26.9831345 C111.758301,26.9831345 111.711363,26.9636725 111.672248,26.9283977 C111.633735,26.8934269 111.615681,26.8499415 111.615681,26.7967251 C111.615681,26.7191813 111.696018,26.6367719 111.855186,26.5510175 C111.910248,26.5221287 111.953274,26.4987135 111.984566,26.4795556 C112.068212,26.4263392 112.123575,26.3551813 112.152159,26.2666901 C112.184655,26.1775906 112.198796,25.9954386 112.198796,25.723883 L112.198796,21.2880702 C112.198796,21.0423626 112.17954,20.8732865 112.141327,20.7808421 C112.101611,20.6871813 112.027593,20.6169357 111.919876,20.569193 C111.853982,20.5375673 111.746265,20.5156725 111.597628,20.5032047 C111.446584,20.4892164 111.37377,20.4341754 111.37377,20.3356491 C111.37377,20.2188772 111.52692,20.1297778 111.83954,20.0668304 C112.068212,20.0196959 112.256265,19.9728655 112.41092,19.9299883 C112.638088,19.860655 112.866761,19.7782456 113.098142,19.6812398 C113.329221,19.5851462 113.458602,19.5367953 113.484779,19.5367953 C113.544655,19.5367953 113.587982,19.5535205 113.614159,19.5875789 C113.64154,19.6210292 113.652673,19.6812398 113.652673,19.7685146 L113.652673,19.7685146 Z" id="Fill-10" fill="#8C8987"></path>
                    <path d="M9.90874336,46.3021988 C9.90874336,46.5056374 9.95297345,46.6266667 10.0390265,46.6725848 C10.1265841,46.7163743 10.3275752,46.7403977 10.6474159,46.7403977 C11.1011504,46.7403977 11.426708,46.6534269 11.6316106,46.4840468 C11.8316991,46.3122339 11.9297876,46.0349006 11.9297876,45.652655 C11.9297876,45.1697544 11.798,44.7920702 11.5395398,44.5147368 C11.2783717,44.238924 10.9179115,44.0996491 10.4593628,44.0996491 C10.249646,44.0996491 10.1073274,44.148 10.0293982,44.2425731 C9.94936283,44.3380585 9.90874336,44.5341988 9.90874336,44.8319064 L9.90874336,46.3021988 Z M11.8605841,46.9052164 C11.915646,46.9353216 11.9692035,46.9800234 12.0182478,47.040538 C12.0660885,47.0998363 12.1166372,47.1822456 12.1716991,47.2898947 L13.0912035,48.9964678 C13.2169735,49.2385263 13.3273982,49.3978713 13.4206726,49.477848 C13.5115398,49.5587368 13.6264779,49.5988772 13.7630796,49.5988772 C13.785646,49.5988772 13.8217522,49.5964444 13.872,49.5891462 C13.9222478,49.5842807 13.9595575,49.5809357 13.9797168,49.5809357 C14.0227434,49.5809357 14.0564425,49.5903626 14.0769027,49.6098246 C14.0958584,49.6280702 14.1066903,49.6618246 14.1066903,49.7113918 C14.1066903,49.8263392 14.0049912,49.9400702 13.798885,50.0492398 C13.5906726,50.1581053 13.3704248,50.212538 13.1357345,50.212538 C12.8673451,50.212538 12.6194159,50.0899883 12.3907434,49.8458012 C12.1608673,49.6037427 11.9,49.1704094 11.6066372,48.5509708 L11.5275044,48.3812865 C11.217292,47.7363041 11.018708,47.3771696 10.9311504,47.2996257 C10.8664602,47.2415439 10.7924425,47.2026199 10.7109027,47.1785965 C10.6293628,47.154269 10.4810265,47.1433216 10.2713097,47.1433216 C10.1193628,47.1433216 10.0188673,47.1652164 9.96831858,47.2102222 C9.91686726,47.2546199 9.88948673,47.3385497 9.88948673,47.462924 L9.88948673,48.8064094 C9.88948673,49.0505965 9.92168142,49.2467368 9.98877876,49.3908772 C10.053469,49.5371462 10.1551681,49.6402339 10.2929735,49.6992281 C10.3396106,49.7296374 10.4199469,49.7609591 10.5312743,49.7925848 C10.6976637,49.8397193 10.7804071,49.9133099 10.7804071,50.0139649 C10.7804071,50.0878596 10.7647611,50.1386433 10.7322655,50.1675322 C10.7000708,50.1979415 10.6426018,50.212538 10.563469,50.212538 C10.5421062,50.212538 10.4115221,50.2003743 10.1696106,50.1775673 C9.92529204,50.150807 9.69661947,50.1401637 9.4739646,50.1401637 C9.2380708,50.1401637 8.98171681,50.150807 8.704,50.1775673 C8.42628319,50.2003743 8.27042478,50.212538 8.22980531,50.212538 C8.16150442,50.212538 8.10523894,50.1979415 8.06823009,50.1675322 C8.03212389,50.1386433 8.01437168,50.0963743 8.01437168,50.0404211 C8.01437168,49.9488889 8.09320354,49.8676959 8.24876106,49.7974503 C8.32789381,49.7588304 8.38897345,49.7259883 8.432,49.6992281 C8.55776991,49.6183392 8.65014159,49.5091696 8.70761062,49.3714152 C8.76507965,49.2333567 8.7939646,49.0542456 8.7939646,48.8316491 L8.7939646,45.2494269 C8.7939646,44.9447251 8.7759115,44.7327719 8.74341593,44.6141754 C8.7100177,44.4943626 8.65014159,44.3940117 8.56739823,44.3106901 C8.47653097,44.2185497 8.33511504,44.1556023 8.14134513,44.1239766 C7.94847788,44.0902222 7.85129204,44.0224094 7.85129204,43.9159766 C7.85129204,43.8542456 7.86934513,43.8055906 7.90635398,43.7730526 C7.94246018,43.7414269 7.99872566,43.7247018 8.07184071,43.7247018 C8.09561062,43.7247018 8.15909735,43.7292632 8.262,43.7414269 C8.6179469,43.7782222 8.94952212,43.7973801 9.25612389,43.7973801 C9.41168142,43.7973801 9.67495575,43.7852164 10.0462478,43.7608889 C10.4163363,43.7368655 10.7084956,43.7247018 10.9203186,43.7247018 C11.5994159,43.7247018 12.1202478,43.8721871 12.4876283,44.1701988 C12.8541062,44.4676023 13.0373451,44.8887719 13.0373451,45.4334035 C13.0373451,45.798924 12.9404602,46.1027135 12.7475929,46.3423392 C12.5559292,46.5831813 12.2604602,46.7717193 11.8605841,46.9052164 L11.8605841,46.9052164 Z" id="Fill-11" fill="#8C8987"></path>
                    <path d="M17.1721062,47.6651462 C17.4642655,47.6651462 17.6571327,47.648117 17.7516106,47.6167953 C17.8451858,47.5839532 17.891823,47.5042807 17.891823,47.3771696 C17.891823,47.1144327 17.8090796,46.897614 17.6450973,46.7245848 C17.4820177,46.5518596 17.2774159,46.4645848 17.0306903,46.4645848 C16.796,46.4645848 16.6010265,46.5612865 16.4427611,46.7549942 C16.2835929,46.946269 16.2056637,47.183462 16.2056637,47.4653567 C16.2056637,47.5450292 16.2297345,47.5985497 16.2739646,47.6250058 C16.3193982,47.6517661 16.4081593,47.6651462 16.5411504,47.6651462 L17.1721062,47.6651462 Z M18.5227788,47.9312281 L16.5769558,47.9312281 C16.414177,47.9312281 16.3160885,47.9458246 16.2799823,47.9725848 C16.2417699,48.0014737 16.2261239,48.0692865 16.2261239,48.1805848 C16.2261239,48.568 16.359115,48.9104094 16.626,49.2117661 C16.8940885,49.5119064 17.2163363,49.6618246 17.5912389,49.6618246 C17.8593274,49.6618246 18.1180885,49.5842807 18.3708319,49.4246316 C18.6235752,49.2649825 18.7646903,49.1874386 18.7911681,49.1874386 C18.8257699,49.1874386 18.8486372,49.1947368 18.8651858,49.2151111 C18.8808319,49.2357895 18.8892566,49.2683275 18.8892566,49.3157661 C18.8892566,49.4945731 18.6903717,49.6992281 18.2953097,49.9306433 C17.8990442,50.160538 17.4714867,50.2767018 17.0126372,50.2767018 C16.5182832,50.2767018 16.1099823,50.1000234 15.7853274,49.7430175 C15.4609735,49.3884444 15.2981947,48.9359532 15.2981947,48.3840234 C15.2981947,47.7426901 15.4742124,47.2090058 15.8214336,46.7863158 C16.1722655,46.3642339 16.6115575,46.1534971 17.1444248,46.1534971 C17.6234336,46.1534971 18.0293274,46.3122339 18.3669204,46.6315322 C18.7036106,46.9511345 18.8736106,47.3041871 18.8736106,47.6952515 C18.8736106,47.7980351 18.8546549,47.8634152 18.8197522,47.8901754 C18.7872566,47.9193684 18.6867611,47.9312281 18.5227788,47.9312281 L18.5227788,47.9312281 Z" id="Fill-12" fill="#8C8987"></path>
                    <path d="M22.6012743,48.1416608 C22.1424248,48.2338012 21.8168673,48.3596959 21.6122655,48.5217778 C21.4133805,48.681731 21.3137876,48.899462 21.3137876,49.1704094 C21.3137876,49.3458713 21.3583186,49.477848 21.4491858,49.5663392 C21.5415575,49.6572632 21.6790619,49.6992281 21.8635044,49.6992281 C22.1282832,49.6992281 22.3160354,49.6572632 22.4297699,49.5687719 C22.5438053,49.4827135 22.6012743,49.2893099 22.6012743,48.9912982 L22.6012743,48.1416608 Z M23.543646,47.7679298 L23.543646,49.1910877 C23.543646,49.4100351 23.5601947,49.5435322 23.5999115,49.5867135 C23.6345133,49.6305029 23.7160531,49.6520936 23.8430265,49.6520936 C23.8619823,49.6520936 23.8944779,49.6508772 23.9338938,49.6450994 C23.9757168,49.6387135 24.0058053,49.6362807 24.022354,49.6362807 C24.0560531,49.6362807 24.0846372,49.6472281 24.1099115,49.6739883 C24.1387965,49.6992281 24.150531,49.7272047 24.150531,49.7563977 C24.150531,49.8458012 24.0608673,49.9437193 23.883646,50.046807 C23.7064248,50.150807 23.5219823,50.2040234 23.3339292,50.2040234 C23.2177876,50.2040234 23.1064602,50.1593216 22.9987434,50.0708304 C22.8919292,49.9838596 22.7986549,49.8555322 22.717115,49.6910175 C22.4550442,49.8822924 22.1929735,50.0249123 21.9318053,50.1179649 C21.6718407,50.2113216 21.4085664,50.2584561 21.1389735,50.2584561 C20.8853274,50.2584561 20.6864425,50.1821287 20.5453274,50.027345 C20.4039115,49.8759064 20.3332035,49.6593918 20.3332035,49.3808421 C20.3332035,48.9867368 20.502,48.6729123 20.8423009,48.4408889 C21.1823009,48.2097778 21.7654159,48.0185029 22.5904425,47.8670643 C22.5904425,47.8454737 22.5904425,47.8150643 22.5964602,47.7776608 C22.6000708,47.7387368 22.6012743,47.7061988 22.6012743,47.6843041 C22.6012743,47.2889825 22.5245487,46.9970526 22.3762124,46.8060819 C22.2275752,46.6160234 22.0001062,46.5190175 21.697115,46.5190175 C21.5283186,46.5190175 21.412177,46.5494269 21.3474867,46.6096374 C21.2815929,46.6680234 21.2493982,46.7793216 21.2493982,46.9389708 L21.2493982,47.0429708 C21.2493982,47.1059181 21.2430796,47.1518363 21.2361593,47.1880234 C21.2277345,47.2220819 21.2144956,47.2488421 21.1967434,47.2704327 C21.1594336,47.3093567 21.0754867,47.3504094 20.9500177,47.391462 C20.8242478,47.4340351 20.7081062,47.4544094 20.6027965,47.4544094 C20.5128319,47.4544094 20.4577699,47.4376842 20.428885,47.4048421 C20.4015044,47.3723041 20.3870619,47.2996257 20.3870619,47.1858947 C20.3870619,46.9255906 20.5426195,46.689614 20.8555398,46.4743158 C21.1630442,46.2590175 21.5427611,46.1534971 21.9868673,46.1534971 C22.2730088,46.1534971 22.5293628,46.1985029 22.7568319,46.2879064 C22.986708,46.3797427 23.1759646,46.5105029 23.326708,46.6847485 C23.4058407,46.7756725 23.4609027,46.8833216 23.4921947,47.0125614 C23.528,47.1396725 23.543646,47.3552749 23.543646,47.6554152 L23.543646,47.7679298 L23.543646,47.7679298 Z" id="Fill-13" fill="#8C8987"></path>
                    <path d="M26.807646,45.0389942 L26.807646,49.0156257 C26.807646,49.2370058 26.8220885,49.3954386 26.8518761,49.4900117 C26.8807611,49.582152 26.9334159,49.6584795 27.0077345,49.7174737 C27.074531,49.7682573 27.1644956,49.8117427 27.2842478,49.8458012 C27.4027965,49.8795556 27.4590619,49.9400702 27.4590619,50.027345 C27.4590619,50.0829942 27.4446195,50.121614 27.4124248,50.1459415 C27.3811327,50.1727018 27.3284779,50.1845614 27.2604779,50.1845614 C27.2352035,50.1845614 27.1295929,50.1775673 26.9475575,50.1617544 C26.7646195,50.1459415 26.5982301,50.1401637 26.4471858,50.1401637 C26.1658584,50.1401637 25.8869381,50.1529357 25.612531,50.1809123 C25.5646903,50.1845614 25.5336991,50.1845614 25.5216637,50.1845614 C25.4714159,50.1845614 25.4316991,50.1727018 25.403115,50.1483743 C25.3733274,50.121614 25.358885,50.0899883 25.358885,50.0513684 C25.358885,50.0066667 25.4368142,49.9254737 25.602,49.8035322 C25.7671858,49.685848 25.8472212,49.4997427 25.8472212,49.250386 L25.8472212,44.8285614 C25.8472212,44.6080936 25.8342832,44.4606082 25.8102124,44.3876257 C25.7888496,44.3176842 25.7467257,44.2644678 25.6928673,44.2279766 C25.6462301,44.1990877 25.5695044,44.1784094 25.458177,44.1701988 C25.3492566,44.1601637 25.2941947,44.1169825 25.2941947,44.0370058 C25.2941947,43.9339181 25.3922832,43.8676257 25.5911681,43.8311345 C25.7611681,43.8022456 25.9061947,43.7669708 26.0208319,43.7247018 C26.1514159,43.6796959 26.2940354,43.6134035 26.4471858,43.5261287 C26.5994336,43.4388538 26.6963186,43.3956725 26.7369381,43.3956725 C26.7727434,43.3956725 26.8040354,43.410269 26.8269027,43.4415906 C26.8506726,43.4732164 26.8615044,43.5139649 26.8615044,43.5647485 C26.8615044,43.5671813 26.8542832,43.732 26.8341239,44.0585965 C26.8184779,44.3876257 26.807646,44.713614 26.807646,45.0389942" id="Fill-14" fill="#8C8987"></path>
                    <path d="M33.8579823,44.6832047 L33.8579823,46.1087953 C33.8579823,46.2456374 33.8892743,46.3435556 33.9491504,46.4016374 C34.0090265,46.462152 34.107115,46.4910409 34.2473274,46.4910409 L34.5370796,46.4910409 C34.7416814,46.4910409 34.9056637,46.4682339 35.0281239,46.4183626 C35.1475752,46.3700117 35.2507788,46.2903392 35.3284071,46.1802573 C35.370531,46.1233918 35.4171681,46.036117 35.4710265,45.9163041 C35.5477522,45.7432749 35.6350088,45.6584327 35.7358053,45.6584327 C35.7821416,45.6584327 35.8182478,45.675462 35.8444248,45.7092164 C35.8684956,45.7432749 35.880531,45.7919298 35.880531,45.8497076 C35.880531,45.8521404 35.8721062,45.922386 35.8540531,46.0555789 C35.8363009,46.1896842 35.8266726,46.3277427 35.8266726,46.4682339 C35.8266726,46.8370994 35.841115,47.2147836 35.8721062,47.5985497 C35.8769204,47.6773099 35.880531,47.722924 35.880531,47.7375205 C35.880531,47.8004678 35.8696991,47.8454737 35.8468319,47.8731462 C35.825469,47.898386 35.7893628,47.9117661 35.7439292,47.9117661 C35.6458407,47.9117661 35.5871681,47.8320936 35.5630973,47.6663626 C35.5453451,47.5514152 35.5236814,47.4580585 35.5008142,47.3926784 C35.4325133,47.2135673 35.3344248,47.0888889 35.2050442,47.0189474 C35.0759646,46.9483977 34.8722655,46.9122105 34.5909381,46.9122105 L34.2376991,46.9122105 C34.091469,46.9122105 33.9909735,46.946269 33.9383186,47.0092164 C33.8856637,47.0742924 33.8579823,47.2135673 33.8579823,47.4279532 L33.8579823,48.8559766 C33.8579823,49.2333567 33.9070265,49.4693333 33.9993982,49.5602573 C34.0950796,49.6520936 34.2879469,49.6992281 34.5825133,49.6992281 C34.8830973,49.6992281 35.1764602,49.6508772 35.4710265,49.5541754 C35.7619823,49.458386 36.0026903,49.3291462 36.1871327,49.1679766 C36.3174159,49.0591111 36.4302478,48.9213567 36.5271327,48.7614035 C36.6252212,48.5968889 36.7007434,48.5172164 36.7582124,48.5172164 C36.7976283,48.5172164 36.8289204,48.5339415 36.8517876,48.568 C36.8767611,48.6029708 36.8887965,48.6464561 36.8887965,48.7008889 C36.8887965,48.818269 36.8550973,48.9791345 36.7855929,49.1813567 C36.7175929,49.3808421 36.6324425,49.5541754 36.5331504,49.6980117 C36.4097876,49.8737778 36.2515221,50.0054503 36.0565487,50.089076 C35.864885,50.1714854 35.624177,50.212538 35.3380354,50.212538 C35.2146726,50.212538 34.9655398,50.2003743 34.5909381,50.1775673 C34.2148319,50.150807 33.8998053,50.1401637 33.6473628,50.1401637 C33.338354,50.1401637 33.0257345,50.150807 32.7061947,50.1775673 C32.3887611,50.2003743 32.2259823,50.212538 32.2175575,50.212538 C32.145646,50.212538 32.0941947,50.1979415 32.0547788,50.1675322 C32.0198761,50.1386433 32.0009204,50.0927251 32.0009204,50.0322105 C32.0009204,49.9488889 32.0728319,49.8701287 32.2175575,49.7974503 C32.305115,49.7512281 32.370708,49.7150409 32.4164425,49.6812865 C32.5434159,49.6098246 32.6342832,49.5079532 32.6941593,49.373848 C32.7516283,49.2385263 32.7805133,49.061848 32.7805133,48.8389474 L32.7805133,45.2448655 C32.7805133,44.9447251 32.7624602,44.7339883 32.7266549,44.6166082 C32.6917522,44.4992281 32.6270619,44.3976608 32.5386018,44.3106901 C32.4353982,44.2185497 32.2786372,44.1556023 32.0692212,44.125193 C31.8595044,44.0938713 31.7566018,44.0248421 31.7566018,43.9159766 C31.7566018,43.8575906 31.7770619,43.8092398 31.8176814,43.7754854 C31.8570973,43.7414269 31.9169735,43.7247018 31.9900885,43.7247018 C31.9973097,43.7247018 32.033115,43.7271345 32.0978053,43.732 C32.5972743,43.7754854 33.1418761,43.7973801 33.7322124,43.7973801 C34.1585664,43.7973801 34.6351681,43.7852164 35.1620177,43.7608889 C35.6912743,43.7368655 36.006,43.7247018 36.108,43.7247018 C36.2707788,43.7247018 36.3712743,43.7438596 36.4109912,43.784 C36.4504071,43.8238363 36.4696637,43.9135439 36.4696637,44.0512982 L36.4696637,44.2465263 C36.4696637,44.4739883 36.4732743,44.7047953 36.4804956,44.9371228 C36.4804956,44.9830409 36.4804956,45.0098012 36.4804956,45.0186199 C36.4804956,45.0934269 36.4696637,45.1405614 36.448,45.1648889 C36.4263363,45.1876959 36.390531,45.1986433 36.3318584,45.1986433 C36.2373805,45.1986433 36.1799115,45.1283977 36.1678761,44.9854737 C36.1534336,44.8452865 36.1296637,44.7412865 36.0971681,44.6734737 C36.0075044,44.4834152 35.8483363,44.3493099 35.6229735,44.2717661 C35.3955044,44.1942222 35.0530973,44.1556023 34.5909381,44.1556023 C34.3192389,44.1556023 34.1287788,44.1942222 34.0195575,44.2717661 C33.9142478,44.3493099 33.8579823,44.485848 33.8579823,44.6832047" id="Fill-15" fill="#8C8987"></path>
                    <path d="M40.7744248,46.585614 L40.8126372,47.0514854 L40.8126372,47.1871111 C40.8126372,47.2135673 40.7993982,47.2366784 40.776531,47.2573567 C40.7515575,47.2789474 40.724177,47.2889825 40.6904779,47.2889825 C40.6366195,47.2889825 40.5791504,47.2318129 40.5240885,47.1180819 C40.4858761,47.040538 40.4497699,46.9824561 40.4223894,46.9389708 C40.3143717,46.7863158 40.1873982,46.6725848 40.041469,46.5926082 C39.8988496,46.5129357 39.740885,46.4743158 39.570885,46.4743158 C39.4020885,46.4743158 39.2678938,46.5153684 39.1673982,46.5977778 C39.0644956,46.6789708 39.0151504,46.790269 39.0151504,46.9292398 C39.0151504,47.0742924 39.060885,47.1904561 39.1493451,47.2825965 C39.2393097,47.3735205 39.4403009,47.4836023 39.7553274,47.6119298 C39.7875221,47.6225731 39.8320531,47.6408187 39.8919292,47.6651462 C40.6498584,47.9652865 41.0292743,48.3995322 41.0292743,48.970924 C41.0292743,49.3510409 40.8953805,49.6606082 40.6281947,49.9002339 C40.3625133,50.1386433 40.0125841,50.2584561 39.5853274,50.2584561 C39.372,50.2584561 39.105115,50.2234854 38.7864779,50.1581053 C38.6417522,50.1276959 38.5316283,50.1058012 38.4633274,50.0951579 C38.4142832,50.0854269 38.378177,50.0708304 38.3565133,50.0455906 C38.336354,50.0224795 38.3255221,49.9862924 38.3255221,49.9400702 C38.3255221,49.9355088 38.3279292,49.9254737 38.3351504,49.903883 C38.3351504,49.8965848 38.3315398,49.8917193 38.3255221,49.8859415 L38.3532035,49.5745497 C38.3532035,49.4006082 38.3459823,49.2151111 38.3291327,49.0180585 C38.3279292,48.9767018 38.3255221,48.9502456 38.3255221,48.9380819 C38.3255221,48.8751345 38.3387611,48.8340819 38.3565133,48.8097544 C38.378177,48.7869474 38.4142832,48.7735673 38.4633274,48.7735673 C38.5304248,48.7735673 38.5878938,48.8483743 38.6321239,48.9964678 C38.676354,49.1439532 38.7362301,49.2817076 38.8129558,49.4100351 C38.9278938,49.6037427 39.060885,49.7475789 39.2068142,49.8458012 C39.3542478,49.9437193 39.5134159,49.9920702 39.685823,49.9920702 C39.8810973,49.9920702 40.041469,49.9355088 40.1600177,49.8239064 C40.2785664,49.7113918 40.339646,49.5587368 40.339646,49.364117 C40.339646,49.198386 40.2857876,49.065193 40.1804779,48.9621053 C40.0760708,48.860538 39.8272389,48.7358596 39.4306726,48.590807 C39.0332035,48.4466667 38.7554867,48.2845848 38.5987257,48.1030409 C38.4404602,47.9218012 38.3616283,47.6809591 38.3616283,47.381731 C38.3616283,47.0104327 38.4922124,46.7115088 38.7518761,46.4889123 C39.0118407,46.2660117 39.361469,46.1534971 39.7995575,46.1534971 C40.1242124,46.1534971 40.3625133,46.1814737 40.5168673,46.2404678 C40.6700177,46.2976374 40.7563717,46.4138012 40.7744248,46.585614" id="Fill-16" fill="#8C8987"></path>
                    <path d="M44.0230796,45.4239766 L44.0230796,46.1255205 C44.0230796,46.1936374 44.0312035,46.2380351 44.0504602,46.2590175 C44.0682124,46.2793918 44.1175575,46.2903392 44.1939823,46.2903392 L44.6600531,46.2903392 C44.7509204,46.2903392 44.8393805,46.2614503 44.9257345,46.2030643 C45.013292,46.1449825 45.0611327,46.1160936 45.0704602,46.1160936 C45.0921239,46.1160936 45.1113805,46.1255205 45.1279292,46.1425497 C45.1423717,46.1607953 45.1483894,46.1839064 45.1483894,46.2152281 C45.1483894,46.3797427 45.110177,46.5056374 45.0310442,46.5904795 C44.9498053,46.6777544 44.8372743,46.7209357 44.6910442,46.7209357 L44.1858584,46.7209357 C44.1223717,46.7209357 44.0814513,46.731883 44.0564779,46.7549942 C44.0324071,46.7768889 44.0230796,46.8203743 44.0230796,46.8854503 L44.0230796,48.9453801 C44.0230796,49.260117 44.0540708,49.4672047 44.1187611,49.572117 C44.1858584,49.6764211 44.2959823,49.7272047 44.4611681,49.7272047 C44.5917522,49.7272047 44.7223363,49.7004444 44.853823,49.6496608 C44.9856106,49.5964444 45.0671504,49.572117 45.0969381,49.572117 C45.1351504,49.572117 45.1628319,49.5809357 45.1844956,49.5988772 C45.2082655,49.6159064 45.2190973,49.6414503 45.2190973,49.6739883 C45.2190973,49.790152 45.0861062,49.9209123 44.8228319,50.0626199 C44.5592566,50.2064561 44.2803363,50.2767018 43.9845664,50.2767018 C43.6421593,50.2767018 43.4038584,50.1918596 43.2660531,50.0200468 C43.1282478,49.8506667 43.0602478,49.5179883 43.0602478,49.0241404 L43.0602478,46.9210292 C43.0602478,46.8516959 43.0494159,46.8021287 43.0265487,46.7695906 C43.0015752,46.7379649 42.965469,46.7209357 42.9152212,46.7209357 L42.7238584,46.7209357 C42.654354,46.7209357 42.6074159,46.7127251 42.5824425,46.6944795 C42.5571681,46.6777544 42.5439292,46.6485614 42.5439292,46.6096374 C42.5439292,46.5673684 42.6399115,46.4597193 42.8291681,46.2879064 C43.020531,46.1136608 43.1944425,45.935462 43.35,45.7530058 C43.4396637,45.6465731 43.5425664,45.5155088 43.6566018,45.3610292 C43.773646,45.1986433 43.8612035,45.116538 43.9198761,45.116538 C43.9556814,45.116538 43.9809558,45.129614 43.9978053,45.1551579 C44.0131504,45.1807018 44.0230796,45.2181053 44.0230796,45.2676725 L44.0230796,45.4239766" id="Fill-17" fill="#8C8987"></path>
                    <path d="M48.7084602,48.1416608 C48.2523186,48.2338012 47.921646,48.3596959 47.7227611,48.5217778 C47.5205664,48.681731 47.4188673,48.899462 47.4188673,49.1704094 C47.4188673,49.3458713 47.4655044,49.477848 47.5587788,49.5663392 C47.6475398,49.6572632 47.7862478,49.6992281 47.9706903,49.6992281 C48.2378761,49.6992281 48.4256283,49.6572632 48.5381593,49.5687719 C48.6533982,49.4827135 48.7084602,49.2893099 48.7084602,48.9912982 L48.7084602,48.1416608 Z M49.6508319,47.7679298 L49.6508319,49.1910877 C49.6508319,49.4100351 49.6697876,49.5435322 49.7058938,49.5867135 C49.7441062,49.6305029 49.8232389,49.6520936 49.9514159,49.6520936 C49.9691681,49.6520936 50.0004602,49.6508772 50.0434867,49.6450994 C50.0841062,49.6387135 50.1129912,49.6362807 50.1307434,49.6362807 C50.1632389,49.6362807 50.191823,49.6472281 50.2183009,49.6739883 C50.2459823,49.6992281 50.2577168,49.7272047 50.2577168,49.7563977 C50.2577168,49.8458012 50.1704602,49.9437193 49.9908319,50.046807 C49.8124071,50.150807 49.6315752,50.2040234 49.441115,50.2040234 C49.326177,50.2040234 49.2148496,50.1593216 49.1083363,50.0708304 C48.9982124,49.9838596 48.9070442,49.8555322 48.8270088,49.6910175 C48.5610265,49.8822924 48.2977522,50.0249123 48.0401947,50.1179649 C47.7790265,50.2113216 47.5157522,50.2584561 47.2488673,50.2584561 C46.9925133,50.2584561 46.7939292,50.1821287 46.6525133,50.027345 C46.5123009,49.8759064 46.4403894,49.6593918 46.4403894,49.3808421 C46.4403894,48.9867368 46.6103894,48.6729123 46.9494867,48.4408889 C47.2894867,48.2097778 47.8713982,48.0185029 48.7000354,47.8670643 C48.7000354,47.8454737 48.7012389,47.8150643 48.703646,47.7776608 C48.7072566,47.7387368 48.7084602,47.7061988 48.7084602,47.6843041 C48.7084602,47.2889825 48.6329381,46.9970526 48.4833982,46.8060819 C48.3335575,46.6160234 48.1084956,46.5190175 47.8043009,46.5190175 C47.636708,46.5190175 47.5193628,46.5494269 47.4546726,46.6096374 C47.3899823,46.6680234 47.3577876,46.7793216 47.3577876,46.9389708 L47.3577876,47.0429708 C47.3577876,47.1059181 47.3505664,47.1518363 47.3433451,47.1880234 C47.3349204,47.2220819 47.3216814,47.2488421 47.3039292,47.2704327 C47.2666195,47.3093567 47.1838761,47.3504094 47.0584071,47.391462 C46.9338407,47.4340351 46.815292,47.4544094 46.7111858,47.4544094 C46.6236283,47.4544094 46.5637522,47.4376842 46.5372743,47.4048421 C46.5086903,47.3723041 46.4942478,47.2996257 46.4942478,47.1858947 C46.4942478,46.9255906 46.6498053,46.689614 46.9615221,46.4743158 C47.2714336,46.2590175 47.6499469,46.1534971 48.0952566,46.1534971 C48.3801947,46.1534971 48.6389558,46.1985029 48.8676283,46.2879064 C49.0950973,46.3797427 49.2855575,46.5105029 49.4350973,46.6847485 C49.5142301,46.7756725 49.5704956,46.8833216 49.6026903,47.0125614 C49.6339823,47.1396725 49.6508319,47.3552749 49.6508319,47.6554152 L49.6508319,47.7679298 L49.6508319,47.7679298 Z" id="Fill-18" fill="#8C8987"></path>
                    <path d="M52.9148319,45.4239766 L52.9148319,46.1255205 C52.9148319,46.1936374 52.9256637,46.2380351 52.9449204,46.2590175 C52.9650796,46.2793918 53.0108142,46.2903392 53.0884425,46.2903392 L53.5542124,46.2903392 C53.6453805,46.2903392 53.7326372,46.2614503 53.8213982,46.2030643 C53.9062478,46.1449825 53.955292,46.1160936 53.9625133,46.1160936 C53.9877876,46.1160936 54.0058407,46.1255205 54.0202832,46.1425497 C54.0344248,46.1607953 54.0428496,46.1839064 54.0428496,46.2152281 C54.0428496,46.3797427 54.0031327,46.5056374 53.9230973,46.5904795 C53.8439646,46.6777544 53.7314336,46.7209357 53.5843009,46.7209357 L53.0788142,46.7209357 C53.0168319,46.7209357 52.9759115,46.731883 52.9506372,46.7549942 C52.9292743,46.7768889 52.9148319,46.8203743 52.9148319,46.8854503 L52.9148319,48.9453801 C52.9148319,49.260117 52.9473274,49.4672047 53.0129204,49.572117 C53.0776106,49.6764211 53.1901416,49.7272047 53.3568319,49.7272047 C53.4835044,49.7272047 53.615292,49.7004444 53.7470796,49.6496608 C53.8788673,49.5964444 53.9601062,49.572117 53.9889912,49.572117 C54.0272035,49.572117 54.057292,49.5809357 54.0786549,49.5988772 C54.1003186,49.6159064 54.1135575,49.6414503 54.1135575,49.6739883 C54.1135575,49.790152 53.9805664,49.9209123 53.717292,50.0626199 C53.4561239,50.2064561 53.176,50.2767018 52.8766195,50.2767018 C52.5363186,50.2767018 52.297115,50.1918596 52.1605133,50.0200468 C52.022708,49.8506667 51.9556106,49.5179883 51.9556106,49.0241404 L51.9556106,46.9210292 C51.9556106,46.8516959 51.941469,46.8021287 51.9186018,46.7695906 C51.8969381,46.7379649 51.8575221,46.7209357 51.8096814,46.7209357 L51.6192212,46.7209357 C51.5497168,46.7209357 51.499469,46.7127251 51.4756991,46.6944795 C51.4492212,46.6777544 51.4383894,46.6485614 51.4383894,46.6096374 C51.4383894,46.5673684 51.5328673,46.4597193 51.7233274,46.2879064 C51.9125841,46.1136608 52.0873982,45.935462 52.2432566,45.7530058 C52.3341239,45.6465731 52.435823,45.5155088 52.5495575,45.3610292 C52.666,45.1986433 52.7556637,45.116538 52.8143363,45.116538 C52.8477345,45.116538 52.8766195,45.129614 52.8910619,45.1551579 C52.9076106,45.1807018 52.9148319,45.2181053 52.9148319,45.2676725 L52.9148319,45.4239766" id="Fill-19" fill="#8C8987"></path>
                    <path d="M57.206354,47.6651462 C57.5009204,47.6651462 57.6925841,47.648117 57.7870619,47.6167953 C57.8806372,47.5839532 57.9284779,47.5042807 57.9284779,47.3771696 C57.9284779,47.1144327 57.8457345,46.897614 57.6817522,46.7245848 C57.5165664,46.5518596 57.3119646,46.4645848 57.0652389,46.4645848 C56.8302478,46.4645848 56.6352743,46.5612865 56.4773097,46.7549942 C56.3202478,46.946269 56.241115,47.183462 56.241115,47.4653567 C56.241115,47.5450292 56.2639823,47.5985497 56.3094159,47.6250058 C56.356354,47.6517661 56.4436106,47.6651462 56.5766018,47.6651462 L57.206354,47.6651462 Z M58.5570265,47.9312281 L56.6124071,47.9312281 C56.4508319,47.9312281 56.3527434,47.9458246 56.314531,47.9725848 C56.2772212,48.0014737 56.2603717,48.0692865 56.2603717,48.1805848 C56.2603717,48.568 56.3933628,48.9104094 56.6605487,49.2117661 C56.9286372,49.5119064 57.2517876,49.6618246 57.6278938,49.6618246 C57.8959823,49.6618246 58.1547434,49.5842807 58.4062832,49.4246316 C58.6590265,49.2649825 58.7989381,49.1874386 58.827823,49.1874386 C58.8600177,49.1874386 58.885292,49.1947368 58.9006372,49.2151111 C58.9150796,49.2357895 58.924708,49.2683275 58.924708,49.3157661 C58.924708,49.4945731 58.7270265,49.6992281 58.3295575,49.9306433 C57.9344956,50.160538 57.5081416,50.2767018 57.0483894,50.2767018 C56.552531,50.2767018 56.1430265,50.1000234 55.8198761,49.7430175 C55.4976283,49.3884444 55.3348496,48.9359532 55.3348496,48.3840234 C55.3348496,47.7426901 55.5084602,47.2090058 55.8580885,46.7863158 C56.2065133,46.3642339 56.6473097,46.1534971 57.180177,46.1534971 C57.6603894,46.1534971 58.0647788,46.3122339 58.401469,46.6315322 C58.7378584,46.9511345 58.9066549,47.3041871 58.9066549,47.6952515 C58.9066549,47.7980351 58.8901062,47.8634152 58.8564071,47.8901754 C58.8242124,47.9193684 58.7234159,47.9312281 58.5570265,47.9312281 L58.5570265,47.9312281 Z" id="Fill-20" fill="#8C8987"></path>
                    <path d="M65.5438761,48.4563977 C65.5438761,49.0058947 65.6169912,49.3616842 65.7644248,49.5237661 C65.910354,49.6837193 66.1775398,49.7633918 66.5677876,49.7633918 C67.2863009,49.7633918 67.8682124,49.5167719 68.3075044,49.0217076 C68.7446903,48.5266433 68.9613274,47.8634152 68.9613274,47.0347602 C68.9613274,46.1790409 68.7266372,45.4793216 68.2539469,44.9398596 C67.7806549,44.3988772 67.1665487,44.1264094 66.4122301,44.1264094 C66.0662124,44.1264094 65.8336283,44.1784094 65.7177876,44.2802807 C65.6025487,44.3830643 65.5438761,44.6156959 65.5438761,44.9772632 L65.5438761,48.4563977 Z M64.4471504,48.9237895 L64.4471504,45.1600234 C64.4471504,44.8693099 64.4185664,44.6613099 64.3635044,44.5357193 C64.3072389,44.4110409 64.207646,44.3079532 64.0605133,44.2279766 C63.9849912,44.1847953 63.8628319,44.148 63.6964425,44.1215439 C63.5324602,44.0950877 63.4497168,44.0321404 63.4497168,43.9327018 C63.4497168,43.8721871 63.4725841,43.8214035 63.5216283,43.7815673 C63.5670619,43.7438596 63.6305487,43.7247018 63.7096814,43.7247018 C63.7358584,43.7247018 63.852,43.7392982 64.0544956,43.7660585 C64.2590973,43.7922105 64.4507611,43.806807 64.6315929,43.806807 C64.900885,43.806807 65.2411858,43.7922105 65.6576106,43.7660585 C66.0734336,43.7392982 66.3571681,43.7247018 66.509115,43.7247018 C67.6657168,43.7247018 68.5530265,43.9764912 69.1755575,44.4846316 C69.7959823,44.9882105 70.1061947,45.7119532 70.1061947,46.6509942 C70.1061947,47.6663626 69.760177,48.5135673 69.0738584,49.1935205 C68.3842301,49.8737778 67.5173805,50.212538 66.4721062,50.212538 C66.3547611,50.212538 66.169115,50.2003743 65.9067434,50.1775673 C65.6470796,50.150807 65.4445841,50.1401637 65.2962478,50.1401637 C64.7838407,50.1401637 64.3322124,50.1617544 63.9452743,50.2076725 C63.9058584,50.2101053 63.883292,50.212538 63.8736637,50.212538 C63.8149912,50.212538 63.7704602,50.1991579 63.7313451,50.1699649 C63.6952389,50.141076 63.6747788,50.1045848 63.6747788,50.0589708 C63.6747788,49.9668304 63.7647434,49.8795556 63.9443717,49.7950175 C64.0066549,49.7633918 64.0569027,49.7393684 64.092708,49.7174737 C64.2184779,49.6496608 64.3060354,49.5529591 64.3635044,49.425848 C64.4185664,49.2987368 64.4471504,49.1330058 64.4471504,48.9237895 L64.4471504,48.9237895 Z" id="Fill-21" fill="#8C8987"></path>
                    <path d="M73.4108142,47.6651462 C73.7044779,47.6651462 73.8985487,47.648117 73.991823,47.6167953 C74.0866018,47.5839532 74.1332389,47.5042807 74.1332389,47.3771696 C74.1332389,47.1144327 74.0489912,46.897614 73.8862124,46.7245848 C73.722531,46.5518596 73.5164248,46.4645848 73.2696991,46.4645848 C73.0350088,46.4645848 72.8373274,46.5612865 72.6817699,46.7549942 C72.5250088,46.946269 72.4470796,47.183462 72.4470796,47.4653567 C72.4470796,47.5450292 72.4708496,47.5985497 72.5153805,47.6250058 C72.5596106,47.6517661 72.6492743,47.6651462 72.7801593,47.6651462 L73.4108142,47.6651462 Z M74.7617876,47.9312281 L72.8159646,47.9312281 C72.6555929,47.9312281 72.5550973,47.9458246 72.5189912,47.9725848 C72.482885,48.0014737 72.4639292,48.0692865 72.4639292,48.1805848 C72.4639292,48.568 72.597823,48.9104094 72.8662124,49.2117661 C73.1333982,49.5119064 73.4553451,49.6618246 73.8326549,49.6618246 C74.1007434,49.6618246 74.360708,49.5842807 74.6131504,49.4246316 C74.8622832,49.2649825 75.0033982,49.1874386 75.0322832,49.1874386 C75.0656814,49.1874386 75.0897522,49.1947368 75.1053982,49.2151111 C75.1222478,49.2357895 75.1303717,49.2683275 75.1303717,49.3157661 C75.1303717,49.4945731 74.9317876,49.6992281 74.5367257,49.9306433 C74.1401593,50.160538 73.7113982,50.2767018 73.251646,50.2767018 C72.7593982,50.2767018 72.3489912,50.1000234 72.0243363,49.7430175 C71.6999823,49.3884444 71.5396106,48.9359532 71.5396106,48.3840234 C71.5396106,47.7426901 71.7144248,47.2090058 72.0640531,46.7863158 C72.4112743,46.3642339 72.8517699,46.1534971 73.3858407,46.1534971 C73.8624425,46.1534971 74.2695398,46.3122339 74.6059292,46.6315322 C74.9450265,46.9511345 75.1114159,47.3041871 75.1114159,47.6952515 C75.1114159,47.7980351 75.0945664,47.8634152 75.0611681,47.8901754 C75.0265664,47.9193684 74.9266726,47.9312281 74.7617876,47.9312281 L74.7617876,47.9312281 Z" id="Fill-22" fill="#8C8987"></path>
                    <path d="M77.9469558,47.125076 L78.6209381,48.7060585 C78.6507257,48.7772164 78.6808142,48.8316491 78.7121062,48.8730058 C78.7418938,48.912538 78.7707788,48.9359532 78.7921416,48.9368655 C78.8101947,48.9368655 78.8366726,48.9177076 78.8724779,48.8730058 C78.9082832,48.8316491 78.9392743,48.7832982 78.9681593,48.7276491 L79.5536814,47.495462 C79.5897876,47.4279532 79.6195752,47.3385497 79.6508673,47.225731 C79.6773451,47.1144327 79.6911858,47.0311111 79.6911858,46.9751579 C79.6911858,46.8954854 79.6734336,46.832538 79.6448496,46.783883 C79.6150619,46.7355322 79.5729381,46.7127251 79.5178761,46.7127251 C79.5034336,46.7127251 79.4926018,46.7139415 79.4856814,46.7139415 C79.4772566,46.7163743 79.4712389,46.718807 79.4661239,46.7209357 C79.4246018,46.6847485 79.3635221,46.6497778 79.2843894,46.6123743 C79.1811858,46.5637193 79.128531,46.5035088 79.128531,46.439345 C79.128531,46.3931228 79.1465841,46.358152 79.1823894,46.3313918 C79.2184956,46.3021988 79.2642301,46.2903392 79.3201947,46.2903392 C79.3704425,46.2903392 79.452885,46.3009825 79.5729381,46.3216608 C79.6938938,46.3435556 79.7898761,46.3557193 79.8650973,46.3557193 C79.9595752,46.3557193 80.0733097,46.3435556 80.2002832,46.3216608 C80.3272566,46.3009825 80.4027788,46.2903392 80.4280531,46.2903392 C80.4903363,46.2903392 80.5405841,46.3021988 80.5715752,46.3265263 C80.6001593,46.3496374 80.6185133,46.387345 80.6185133,46.4381287 C80.6185133,46.4889123 80.5619469,46.5494269 80.4506195,46.6193684 C80.3404956,46.689614 80.2433097,46.8082105 80.1608673,46.9751579 L78.8857168,49.6086082 C78.7813097,49.8339415 78.6904425,49.9972398 78.6161239,50.0975906 C78.5430088,50.1991579 78.477115,50.2487251 78.4211504,50.2487251 C78.3838407,50.2487251 78.3480354,50.2329123 78.3143363,50.2003743 C78.278531,50.1675322 78.2463363,50.1167485 78.2150442,50.0492398 L77.0512212,47.3987602 C76.9793097,47.2318129 76.9110088,47.0913216 76.8463186,46.9800234 C76.7840354,46.8687251 76.7265664,46.7817544 76.6715044,46.718807 C76.6462301,46.689614 76.5878584,46.6509942 76.4942832,46.605076 C76.4010088,46.5576374 76.3564779,46.5056374 76.3564779,46.4463392 C76.3564779,46.4016374 76.3721239,46.3651462 76.4079292,46.3338246 C76.4416283,46.3046316 76.4870619,46.2903392 76.5373097,46.2903392 C76.5457345,46.2903392 76.6284779,46.3009825 76.7912566,46.3216608 C76.9531327,46.3435556 77.1135044,46.3557193 77.2774867,46.3557193 C77.5181947,46.3557193 77.7778584,46.3389942 78.0546726,46.3046316 C78.1338053,46.2952047 78.1852566,46.2903392 78.2042124,46.2903392 C78.2607788,46.2903392 78.3035044,46.3021988 78.3335929,46.3265263 C78.362177,46.3496374 78.3766195,46.387345 78.3766195,46.4381287 C78.3766195,46.5153684 78.294177,46.5795322 78.1274867,46.6294035 C77.9623009,46.6801871 77.8786549,46.7476959 77.8786549,46.832538 C77.8786549,46.8784561 77.8846726,46.9292398 77.896708,46.9800234 C77.9099469,47.0295906 77.925292,47.0779415 77.9469558,47.125076" id="Fill-23" fill="#8C8987"></path>
                    <path d="M83.7206372,47.6651462 C84.0118938,47.6651462 84.2080708,47.648117 84.3004425,47.6167953 C84.3961239,47.5839532 84.4427611,47.5042807 84.4427611,47.3771696 C84.4427611,47.1144327 84.3615221,46.897614 84.1948319,46.7245848 C84.0320531,46.5518596 83.8262478,46.4645848 83.5804248,46.4645848 C83.3436283,46.4645848 83.1471504,46.5612865 82.9915929,46.7549942 C82.8360354,46.946269 82.7569027,47.183462 82.7569027,47.4653567 C82.7569027,47.5450292 82.7782655,47.5985497 82.8249027,47.6250058 C82.8694336,47.6517661 82.9593982,47.6651462 83.0896814,47.6651462 L83.7206372,47.6651462 Z M85.0713097,47.9312281 L83.1257876,47.9312281 C82.9639115,47.9312281 82.865823,47.9458246 82.8285133,47.9725848 C82.792708,48.0014737 82.7725487,48.0692865 82.7725487,48.1805848 C82.7725487,48.568 82.9064425,48.9104094 83.1760354,49.2117661 C83.4429204,49.5119064 83.7651681,49.6618246 84.1412743,49.6618246 C84.4078584,49.6618246 84.6702301,49.5842807 84.9205664,49.4246316 C85.1706018,49.2649825 85.3108142,49.1874386 85.3433097,49.1874386 C85.3730973,49.1874386 85.3968673,49.1947368 85.4152212,49.2151111 C85.4308673,49.2357895 85.4401947,49.2683275 85.4401947,49.3157661 C85.4401947,49.4945731 85.2416106,49.6992281 84.8450442,49.9306433 C84.4499823,50.160538 84.0212212,50.2767018 83.5626726,50.2767018 C83.0680177,50.2767018 82.6600177,50.1000234 82.3341593,49.7430175 C82.010708,49.3884444 81.8479292,48.9359532 81.8479292,48.3840234 C81.8479292,47.7426901 82.0239469,47.2090058 82.3735752,46.7863158 C82.7210973,46.3642339 83.1615929,46.1534971 83.6932566,46.1534971 C84.1722655,46.1534971 84.5781593,46.3122339 84.9133451,46.6315322 C85.253646,46.9511345 85.4221416,47.3041871 85.4221416,47.6952515 C85.4221416,47.7980351 85.4055929,47.8634152 85.3718938,47.8901754 C85.3360885,47.9193684 85.238,47.9312281 85.0713097,47.9312281 L85.0713097,47.9312281 Z" id="Fill-24" fill="#8C8987"></path>
                    <path d="M88.3055221,45.0389942 L88.3055221,49.0156257 C88.3055221,49.2370058 88.3199646,49.3954386 88.3512566,49.4900117 C88.3810442,49.582152 88.431292,49.6584795 88.5068142,49.7174737 C88.5715044,49.7682573 88.6623717,49.8117427 88.7821239,49.8458012 C88.9006726,49.8795556 88.9581416,49.9400702 88.9581416,50.027345 C88.9581416,50.0829942 88.9436991,50.121614 88.9103009,50.1459415 C88.8793097,50.1727018 88.8278584,50.1845614 88.7607611,50.1845614 C88.7318761,50.1845614 88.6289735,50.1775673 88.4457345,50.1617544 C88.2636991,50.1459415 88.0949027,50.1401637 87.9438584,50.1401637 C87.6628319,50.1401637 87.3872212,50.1529357 87.1119115,50.1809123 C87.0616637,50.1845614 87.0327788,50.1845614 87.0195398,50.1845614 C86.969292,50.1845614 86.9310796,50.1727018 86.8997876,50.1483743 C86.87,50.121614 86.8555575,50.0899883 86.8555575,50.0513684 C86.8555575,50.0066667 86.938,49.9254737 87.1007788,49.8035322 C87.2638584,49.685848 87.3441947,49.4997427 87.3441947,49.250386 L87.3441947,44.8285614 C87.3441947,44.6080936 87.3321593,44.4606082 87.3107965,44.3876257 C87.2867257,44.3176842 87.2461062,44.2644678 87.1883363,44.2279766 C87.1453097,44.1990877 87.0685841,44.1784094 86.9584602,44.1701988 C86.8459292,44.1601637 86.7920708,44.1169825 86.7920708,44.0370058 C86.7920708,43.9339181 86.8913628,43.8676257 87.0902478,43.8311345 C87.2617522,43.8022456 87.4025664,43.7669708 87.5178053,43.7247018 C87.6483894,43.6796959 87.790708,43.6134035 87.9438584,43.5261287 C88.0985133,43.4388538 88.1953982,43.3956725 88.2363186,43.3956725 C88.2721239,43.3956725 88.3010088,43.410269 88.3259823,43.4415906 C88.347646,43.4732164 88.3593805,43.5139649 88.3593805,43.5647485 C88.3593805,43.5671813 88.3524602,43.732 88.3332035,44.0585965 C88.3154513,44.3876257 88.3055221,44.713614 88.3055221,45.0389942" id="Fill-25" fill="#8C8987"></path>
                    <path d="M92.1445133,46.4825263 C91.810531,46.4825263 91.5517699,46.5938246 91.3661239,46.8155088 C91.1819823,47.0381053 91.0884071,47.352538 91.0884071,47.7642807 C91.0884071,48.4043977 91.2117699,48.9307836 91.4609027,49.344655 C91.7100354,49.7588304 92.0271681,49.965614 92.4153097,49.965614 C92.7360531,49.965614 92.9875929,49.8555322 93.1693274,49.6329357 C93.3540708,49.4100351 93.4449381,49.1050292 93.4449381,48.7154854 C93.4449381,48.0668538 93.3215752,47.5319532 93.0760531,47.1132164 C92.830531,46.6935673 92.5194159,46.4825263 92.1445133,46.4825263 Z M92.2546372,46.1534971 C92.8762655,46.1534971 93.3850619,46.3389942 93.7753097,46.7063392 C94.1670619,47.0742924 94.3620354,47.5514152 94.3620354,48.1346667 C94.3620354,48.7614035 94.1562301,49.2771462 93.7503363,49.6812865 C93.3396283,50.0842105 92.8184956,50.2864327 92.1899469,50.2864327 C91.6020177,50.2864327 91.117292,50.0963743 90.735469,49.7199064 C90.3533451,49.3422222 90.1640885,48.8629708 90.1640885,48.282152 C90.1640885,47.6843041 90.3638761,47.1785965 90.7724779,46.7683743 C91.1792743,46.358152 91.6715221,46.1534971 92.2546372,46.1534971 L92.2546372,46.1534971 Z" id="Fill-26" fill="#8C8987"></path>
                    <path d="M97.0838407,49.3254971 C97.2132212,49.4997427 97.3666726,49.6362807 97.546,49.7308538 C97.7232212,49.8263392 97.9136814,49.8737778 98.1197876,49.8737778 C98.4357168,49.8737778 98.683646,49.7588304 98.8608673,49.5249825 C99.036885,49.2950877 99.1241416,48.9648421 99.1241416,48.5412398 C99.1241416,48.0279298 99.0095044,47.605848 98.7820354,47.277731 C98.5530619,46.9483977 98.2621062,46.7850994 97.9112743,46.7850994 C97.7484956,46.7850994 97.5962478,46.8155088 97.4599469,46.8735906 C97.3221416,46.9341053 97.1963717,47.0213801 97.0838407,47.1396725 L97.0838407,49.3254971 Z M97.1018938,46.2380351 L97.0838407,46.8021287 C97.3269558,46.575883 97.5547257,46.4113684 97.773469,46.3073684 C97.9904071,46.2042807 98.2118584,46.1534971 98.4453451,46.1534971 C98.8906549,46.1534971 99.2466018,46.3155789 99.5062655,46.6388304 C99.7635221,46.9629942 99.8929027,47.4084912 99.8929027,47.9725848 C99.8929027,48.6221287 99.6979292,49.1643275 99.3025664,49.6037427 C98.911115,50.0392047 98.4324071,50.2584561 97.8715575,50.2584561 C97.7376637,50.2584561 97.6082832,50.2405146 97.4849204,50.2015906 C97.3591504,50.1654035 97.2252566,50.1058012 97.0838407,50.0261287 L97.0838407,51.0341988 C97.0838407,51.1527953 97.1018938,51.2546667 97.1461239,51.3416374 C97.1855398,51.4276959 97.2466195,51.4964211 97.3302655,51.5508538 C97.3880354,51.5909942 97.4849204,51.6235322 97.619115,51.6539415 C97.7496991,51.6828304 97.8167965,51.7409123 97.8167965,51.8254503 C97.8167965,51.8838363 97.7963363,51.9248889 97.7566195,51.9549942 C97.7175044,51.9854035 97.658531,52 97.5818053,52 C97.574885,52 97.5435929,51.9975673 97.4945487,51.9899649 C97.1894513,51.9601637 96.8708142,51.9443509 96.5413451,51.9443509 C96.3400531,51.9443509 96.1381593,51.9589474 95.9356637,51.9854035 C95.8815044,51.9951345 95.8493097,52 95.840885,52 C95.8050796,52 95.7704779,51.9854035 95.744,51.9574269 C95.7163186,51.928538 95.7042832,51.8947836 95.7042832,51.8522105 C95.7042832,51.7916959 95.7584425,51.7250994 95.8697699,51.6563743 C95.9067788,51.6332632 95.9368673,51.6138012 95.9570265,51.5992047 C96.0123894,51.5572398 96.0506018,51.5012865 96.0719646,51.4289123 C96.0912212,51.3583626 96.1017522,51.2157427 96.1017522,50.9980117 L96.1017522,47.4522807 C96.1017522,47.2558363 96.0900177,47.121731 96.0626372,47.0466199 C96.0361593,46.9727251 95.9859115,46.9146433 95.914,46.8760234 C95.8697699,46.8544327 95.7954513,46.8370994 95.6937522,46.8252398 C95.5917522,46.8155088 95.5415044,46.7717193 95.5415044,46.6935673 C95.5415044,46.5989942 95.647115,46.5250994 95.8601416,46.4755322 C96.0156991,46.4356959 96.1450796,46.3992047 96.2494867,46.3642339 C96.4059469,46.3098012 96.5642124,46.2444211 96.722177,46.1668772 C96.8813451,46.0917661 96.9676991,46.0531462 96.9857522,46.0531462 C97.0263717,46.0531462 97.0561593,46.0653099 97.0730088,46.0929825 C97.0910619,46.1185263 97.1018938,46.1693099 97.1018938,46.2380351 L97.1018938,46.2380351 Z" id="Fill-27" fill="#8C8987"></path>
                    <path d="M102.821717,46.3000702 L102.794336,46.8334503 C103.036248,46.5926082 103.256496,46.4183626 103.461097,46.3122339 C103.663593,46.2054971 103.870903,46.1534971 104.079115,46.1534971 C104.318619,46.1534971 104.526832,46.2176608 104.700743,46.3459883 C104.874354,46.4767485 105.017876,46.6750175 105.131611,46.9389708 C105.438212,46.6412632 105.696673,46.4356959 105.904283,46.3231813 C106.109788,46.2091462 106.321912,46.1534971 106.536142,46.1534971 C106.948053,46.1534971 107.253451,46.3073684 107.45354,46.6172398 C107.654531,46.9255906 107.755327,47.3987602 107.755327,48.0376608 L107.755327,49.013193 C107.755327,49.230924 107.770973,49.3872281 107.801965,49.4827135 C107.830549,49.5809357 107.883504,49.6584795 107.961434,49.7174737 C108.029434,49.7682573 108.121805,49.8117427 108.240053,49.8458012 C108.356195,49.8795556 108.416071,49.9400702 108.416071,50.027345 C108.416071,50.0829942 108.399522,50.121614 108.367027,50.1459415 C108.331221,50.1727018 108.280973,50.1845614 108.217487,50.1845614 C108.188602,50.1845614 108.080885,50.1775673 107.897947,50.1617544 C107.716814,50.1459415 107.550425,50.1401637 107.402088,50.1401637 C107.120761,50.1401637 106.845451,50.1529357 106.579469,50.1809123 C106.539752,50.1845614 106.513575,50.1845614 106.503947,50.1845614 C106.456106,50.1845614 106.42,50.1699649 106.391416,50.141076 C106.362531,50.1109708 106.350796,50.0708304 106.350796,50.0200468 C106.350796,49.9960234 106.422407,49.923345 106.571947,49.8035322 C106.719681,49.685848 106.794903,49.5091696 106.794903,49.2759298 L106.794903,48.1830175 C106.794903,47.6721404 106.731416,47.3093567 106.608053,47.0913216 C106.48469,46.8760234 106.282195,46.7671579 106.001168,46.7671579 C105.754442,46.7671579 105.565186,46.832538 105.441522,46.9629942 C105.31515,47.0937544 105.252867,47.287462 105.252867,47.5416842 L105.252867,49.013193 C105.252867,49.230924 105.267009,49.3872281 105.299504,49.4805848 C105.328991,49.5772865 105.38315,49.6572632 105.459876,49.7174737 C105.523363,49.7682573 105.615434,49.8117427 105.733982,49.8458012 C105.853735,49.8795556 105.914814,49.9400702 105.914814,50.027345 C105.914814,50.0829942 105.896761,50.121614 105.860956,50.1459415 C105.827558,50.1727018 105.779717,50.1845614 105.715027,50.1845614 C105.672903,50.1845614 105.565186,50.1775673 105.395186,50.1617544 C105.223982,50.1459415 105.069327,50.1401637 104.931522,50.1401637 C104.650496,50.1401637 104.382106,50.1529357 104.126956,50.1809123 C104.094761,50.1845614 104.073398,50.1845614 104.065876,50.1845614 C104.02315,50.1845614 103.991858,50.1699649 103.964177,50.141076 C103.94131,50.1109708 103.928372,50.0708304 103.928372,50.0200468 C103.928372,49.9996725 103.993062,49.9266901 104.126956,49.8035322 C104.259947,49.6812865 104.32554,49.5067368 104.32554,49.2759298 L104.32554,48.1830175 C104.32554,47.6721404 104.264761,47.3093567 104.140195,47.0913216 C104.014425,46.8760234 103.813133,46.7671579 103.53331,46.7671579 C103.287487,46.7671579 103.103345,46.832538 102.981186,46.9629942 C102.857823,47.0937544 102.794336,47.287462 102.794336,47.5416842 L102.794336,49.013193 C102.794336,49.2385263 102.808779,49.3978713 102.83977,49.4900117 C102.868655,49.5785029 102.923416,49.6572632 103.004053,49.7174737 C103.07115,49.7682573 103.169239,49.8117427 103.299522,49.8458012 C103.426496,49.8795556 103.493593,49.9400702 103.493593,50.027345 C103.493593,50.079345 103.47554,50.1179649 103.440938,50.1447251 C103.403929,50.1714854 103.354885,50.1845614 103.284177,50.1845614 C103.244761,50.1845614 103.129522,50.1775673 102.942973,50.1617544 C102.75492,50.1459415 102.592142,50.1401637 102.448319,50.1401637 C102.154956,50.1401637 101.869717,50.1529357 101.595611,50.1809123 C101.554991,50.1845614 101.530018,50.1845614 101.517681,50.1845614 C101.468637,50.1845614 101.431628,50.1727018 101.399434,50.1447251 C101.368142,50.1179649 101.354,50.0829942 101.354,50.037076 C101.354,49.9996725 101.431628,49.923345 101.587487,49.8129591 C101.746655,49.7028772 101.82308,49.5119064 101.82308,49.240655 L101.82308,47.4787368 C101.82308,47.2585731 101.811345,47.1156491 101.786071,47.0481404 C101.761097,46.9824561 101.718071,46.9292398 101.652177,46.8854503 C101.603133,46.8568655 101.518885,46.8370994 101.393115,46.8276725 C101.270053,46.8179415 101.20777,46.7717193 101.20777,46.6847485 C101.20777,46.5950409 101.300142,46.5323977 101.481876,46.4934737 C101.667823,46.4572865 101.830602,46.4150175 101.970513,46.3642339 C102.129982,46.305848 102.28915,46.2404678 102.447115,46.1644444 C102.60508,46.0893333 102.695947,46.0531462 102.715204,46.0531462 C102.739274,46.0531462 102.761841,46.0625731 102.785912,46.0847719 C102.810885,46.1051462 102.821717,46.1255205 102.821717,46.1437661 L102.821717,46.3000702" id="Fill-28" fill="#8C8987"></path>
                    <path d="M111.500743,47.6651462 C111.796513,47.6651462 111.98908,47.648117 112.081451,47.6167953 C112.175929,47.5839532 112.22377,47.5042807 112.22377,47.3771696 C112.22377,47.1144327 112.141327,46.897614 111.977345,46.7245848 C111.814265,46.5518596 111.608761,46.4645848 111.360531,46.4645848 C111.124637,46.4645848 110.929664,46.5612865 110.772602,46.7549942 C110.615841,46.946269 110.537912,47.183462 110.537912,47.4653567 C110.537912,47.5450292 110.559575,47.5985497 110.60531,47.6250058 C110.65315,47.6517661 110.740407,47.6651462 110.871894,47.6651462 L111.500743,47.6651462 Z M112.851416,47.9312281 L110.905593,47.9312281 C110.746124,47.9312281 110.645628,47.9458246 110.609823,47.9725848 C110.572814,48.0014737 110.552354,48.0692865 110.552354,48.1805848 C110.552354,48.568 110.687752,48.9104094 110.958248,49.2117661 C111.223929,49.5119064 111.545274,49.6618246 111.923186,49.6618246 C112.191575,49.6618246 112.451239,49.5842807 112.702779,49.4246316 C112.953115,49.2649825 113.093327,49.1874386 113.123416,49.1874386 C113.158018,49.1874386 113.180584,49.1947368 113.197434,49.2151111 C113.21308,49.2357895 113.220301,49.2683275 113.220301,49.3157661 C113.220301,49.4945731 113.021416,49.6992281 112.627558,49.9306433 C112.230088,50.160538 111.803735,50.2767018 111.345186,50.2767018 C110.848124,50.2767018 110.439823,50.1000234 110.115469,49.7430175 C109.793221,49.3884444 109.630142,48.9359532 109.630142,48.3840234 C109.630142,47.7426901 109.804053,47.2090058 110.153681,46.7863158 C110.50331,46.3642339 110.944106,46.1534971 111.476673,46.1534971 C111.952071,46.1534971 112.360673,46.3122339 112.697062,46.6315322 C113.033451,46.9511345 113.202248,47.3041871 113.202248,47.6952515 C113.202248,47.7980351 113.186903,47.8634152 113.151699,47.8901754 C113.118301,47.9193684 113.017805,47.9312281 112.851416,47.9312281 L112.851416,47.9312281 Z" id="Fill-29" fill="#8C8987"></path>
                    <path d="M116.123841,46.3000702 L116.095257,46.8334503 C116.348,46.5977778 116.583894,46.4247485 116.799327,46.3167953 C117.017168,46.2079298 117.23531,46.1534971 117.455257,46.1534971 C117.890336,46.1534971 118.21469,46.3098012 118.429221,46.6242339 C118.644354,46.936538 118.752372,47.4084912 118.752372,48.0376608 L118.752372,49.013193 C118.752372,49.230924 118.768018,49.3872281 118.799009,49.4805848 C118.830301,49.5772865 118.883858,49.6572632 118.961788,49.7174737 C119.026478,49.7682573 119.117646,49.8117427 119.235894,49.8458012 C119.35715,49.8795556 119.414319,49.9400702 119.414319,50.027345 C119.414319,50.0829942 119.398673,50.121614 119.364071,50.1459415 C119.330673,50.1727018 119.280425,50.1845614 119.215735,50.1845614 C119.18685,50.1845614 119.08154,50.1775673 118.897097,50.1617544 C118.714159,50.1459415 118.546265,50.1401637 118.399133,50.1401637 C118.116301,50.1401637 117.836177,50.1529357 117.553646,50.1809123 C117.503398,50.1845614 117.472407,50.1845614 117.463982,50.1845614 C117.420655,50.1845614 117.387257,50.1714854 117.355965,50.1422924 C117.326177,50.1146199 117.312035,50.079345 117.312035,50.037076 C117.312035,49.9996725 117.390566,49.9209123 117.551239,49.8035322 C117.713115,49.6885848 117.791947,49.5167719 117.791947,49.2893099 L117.791947,48.1830175 C117.791947,47.6697076 117.723646,47.3041871 117.587345,47.0913216 C117.44954,46.8735906 117.224478,46.7671579 116.911858,46.7671579 C116.639858,46.7671579 116.437664,46.832538 116.301062,46.9605614 C116.164761,47.0913216 116.095257,47.2850292 116.095257,47.5416842 L116.095257,49.013193 C116.095257,49.2418713 116.113009,49.4030409 116.146708,49.4924444 C116.181611,49.5842807 116.243593,49.6584795 116.332354,49.7174737 C116.410283,49.7682573 116.521611,49.8117427 116.662726,49.8458012 C116.804142,49.8795556 116.87485,49.9400702 116.87485,50.027345 C116.87485,50.079345 116.856796,50.1179649 116.81708,50.1447251 C116.77646,50.1714854 116.720195,50.1845614 116.65069,50.1845614 C116.600442,50.1845614 116.47708,50.1775673 116.274584,50.1617544 C116.073593,50.1459415 115.899982,50.1401637 115.751646,50.1401637 C115.458283,50.1401637 115.170637,50.1529357 114.898938,50.1809123 C114.856814,50.1845614 114.828531,50.1845614 114.817699,50.1845614 C114.770761,50.1845614 114.730142,50.1727018 114.701558,50.1447251 C114.669062,50.1179649 114.653717,50.0829942 114.653717,50.037076 C114.653717,49.9996725 114.733752,49.923345 114.88931,49.8129591 C115.048478,49.7028772 115.126407,49.5119064 115.126407,49.240655 L115.126407,47.4787368 C115.126407,47.2585731 115.113469,47.1156491 115.088195,47.0481404 C115.06292,46.9824561 115.018991,46.9292398 114.952796,46.8854503 C114.906159,46.8568655 114.819805,46.8370994 114.696442,46.8276725 C114.572177,46.8179415 114.509894,46.7717193 114.509894,46.6847485 C114.509894,46.5950409 114.600761,46.5323977 114.784,46.4934737 C114.972053,46.4572865 115.133628,46.4150175 115.271133,46.3642339 C115.430602,46.305848 115.592478,46.2404678 115.747735,46.1644444 C115.906,46.0893333 115.997168,46.0531462 116.016124,46.0531462 C116.040195,46.0531462 116.065168,46.0625731 116.088035,46.0847719 C116.113009,46.1051462 116.123841,46.1255205 116.123841,46.1437661 L116.123841,46.3000702" id="Fill-30" fill="#8C8987"></path>
                    <path d="M122.053381,45.4239766 L122.053381,46.1255205 C122.053381,46.1936374 122.060903,46.2380351 122.082265,46.2590175 C122.100319,46.2793918 122.148159,46.2903392 122.224885,46.2903392 L122.689451,46.2903392 C122.782726,46.2903392 122.869982,46.2614503 122.956336,46.2030643 C123.04269,46.1449825 123.090531,46.1160936 123.100159,46.1160936 C123.122726,46.1160936 123.141982,46.1255205 123.156124,46.1425497 C123.170566,46.1607953 123.180496,46.1839064 123.180496,46.2152281 C123.180496,46.3797427 123.138372,46.5056374 123.060442,46.5904795 C122.98131,46.6777544 122.866673,46.7209357 122.719239,46.7209357 L122.214053,46.7209357 C122.153876,46.7209357 122.11115,46.731883 122.08708,46.7549942 C122.064513,46.7768889 122.053381,46.8203743 122.053381,46.8854503 L122.053381,48.9453801 C122.053381,49.260117 122.083469,49.4672047 122.148159,49.572117 C122.214053,49.6764211 122.32869,49.7272047 122.49177,49.7272047 C122.62115,49.7272047 122.751735,49.7004444 122.884425,49.6496608 C123.017717,49.5964444 123.095044,49.572117 123.126336,49.572117 C123.163646,49.572117 123.194637,49.5809357 123.216301,49.5988772 C123.239168,49.6159064 123.248496,49.6414503 123.248496,49.6739883 C123.248496,49.790152 123.115805,49.9209123 122.853434,50.0626199 C122.591363,50.2064561 122.310938,50.2767018 122.014265,50.2767018 C121.671558,50.2767018 121.433257,50.1918596 121.295752,50.0200468 C121.15915,49.8506667 121.09085,49.5179883 121.09085,49.0241404 L121.09085,46.9210292 C121.09085,46.8516959 121.081221,46.8021287 121.057451,46.7695906 C121.032177,46.7379649 120.995168,46.7209357 120.94492,46.7209357 L120.756867,46.7209357 C120.684956,46.7209357 120.638018,46.7127251 120.611841,46.6944795 C120.586566,46.6777544 120.573327,46.6485614 120.573327,46.6096374 C120.573327,46.5673684 120.668106,46.4597193 120.85977,46.2879064 C121.049027,46.1136608 121.223841,45.935462 121.379398,45.7530058 C121.47177,45.6465731 121.573469,45.5155088 121.686,45.3610292 C121.804248,45.1986433 121.891805,45.116538 121.949575,45.116538 C121.986584,45.116538 122.011558,45.129614 122.026,45.1551579 C122.043752,45.1807018 122.053381,45.2181053 122.053381,45.2676725 L122.053381,45.4239766" id="Fill-31" fill="#8C8987"></path>
                </g>
            </g>
        </g>
    </g>
</svg>