<?xml version="1.0" encoding="UTF-8"?>
<svg width="84px" height="56px" viewBox="0 0 84 56" version="1.1" xmlns="http://www.w3.org/2000/svg" xmlns:xlink="http://www.w3.org/1999/xlink">
    <!-- Generator: Sketch 45.2 (43514) - http://www.bohemiancoding.com/sketch -->
    <title>Цимайло</title>
    <desc>Created with Sketch.</desc>
    <defs></defs>
    <g id="Page-1" stroke="none" stroke-width="1" fill="none" fill-rule="evenodd">
        <g id="Sekond" transform="translate(-357.000000, -4506.000000)" fill="#8C8987">
            <g id="Team" transform="translate(357.000000, 4353.000000)">
                <g id="Цимайло" transform="translate(0.000000, 153.000000)">
                    <path d="M7.81563891,3.4053805 L8.78830261,3.4053805 L8.78830261,3 L5.04068659,3 L5.04068659,3.4053805 L6.01525747,3.4053805 L6.01525747,11.5089368 L2.77113795,11.5089368 L2.77113795,3.4053805 L3.74570884,3.4053805 L3.74570884,3 L0,3 L0,3.4053805 L0.970756516,3.4053805 L0.970756516,11.5089368 L0,11.5089368 L0,11.9143173 L6.64272092,11.9143173 C6.91544819,11.9143173 7.15956771,11.9447208 7.36554355,12.0055279 C7.56770502,12.0643081 7.75651621,12.1717339 7.92434838,12.3237516 C8.09408773,12.4838769 8.24094088,12.6865672 8.37062937,12.9480376 C8.50031786,13.2176156 8.62428481,13.5561083 8.73680865,13.957435 L8.74825175,14 L9,14 L9,11.5089368 L7.81563891,11.5089368 L7.81563891,3.4053805 Z" id="Fill-84"></path>
                    <polygon id="Fill-85" points="28.272552 11.590817 27.2895143 11.590817 27.2895143 3.49223498 27.3511951 3.49223498 30.2116423 12 30.383192 12 33.2340015 3.49223498 33.2937548 3.49223498 33.2937548 11.590817 32.2239784 11.590817 32.2239784 11.9959487 36 11.9959487 36 11.590817 35.0169622 11.590817 35.0169622 3.49223498 36 3.49223498 36 3 32.9757132 3 30.9710871 8.95948683 30.9190439 8.95948683 28.9799537 3.08710331 26 3.08710331 26 3.49223498 26.9001542 3.49223498 26.9001542 11.590817 26 11.590817 26 11.9959487 28.272552 11.9959487"></polygon>
                    <path d="M42.1327886,5.22932166 L43.6322778,8.59299781 L40.6966292,8.59299781 L42.1327886,5.22932166 Z M40.5291113,8.95142232 L43.8569969,8.95142232 L43.648621,8.64814004 L44.9765066,11.6041575 L43.8998979,11.6041575 L43.8998979,11.9980306 L48,11.9980306 L48,11.6041575 L46.9785495,11.6041575 L46.968335,11.6140044 L43.1072523,3.03544858 L43.0909091,3 L42.6312564,3 L38.968335,11.6021882 L38.9948927,11.6041575 L38,11.6041575 L38,11.9980306 L38.8416752,11.9980306 L38.8416752,12 L40.2717058,11.9980306 L40.2717058,11.6041575 L39.4157303,11.6041575 L40.6966292,8.63435449 L40.5291113,8.95142232 Z" id="Fill-86"></path>
                    <path d="M53.8009603,1.70804196 C54.0301179,1.8006993 54.2985596,1.87412587 54.5953732,1.92482517 C54.8943693,1.97552448 55.1977302,2 55.4989088,2 C55.8109996,2 56.1187254,1.97552448 56.4155391,1.92482517 C56.7167176,1.87412587 56.9829769,1.79895105 57.209952,1.70104895 C57.4478394,1.6013986 57.6377128,1.48076923 57.7773898,1.34265734 C57.932344,1.19230769 58,0.954545455 58,0.786713287 C58,0.263986014 57.6464426,0 56.9480576,0 C56.7298123,0 56.5421213,0.0524475524 56.3893496,0.155594406 C56.232213,0.26048951 56.1514622,0.409090909 56.1514622,0.594405594 C56.1514622,0.697552448 56.164557,0.788461538 56.1863815,0.865384615 C56.208206,0.926573427 56.232213,1 56.2627674,1.06468531 L56.280227,1.10664336 C56.2998691,1.1520979 56.3173287,1.19405594 56.3347883,1.23426573 C56.3544304,1.28496503 56.3653426,1.33566434 56.3653426,1.38286713 C56.3653426,1.48776224 56.280227,1.55944056 56.1034483,1.6048951 C55.904845,1.65734266 55.7062418,1.68181818 55.4989088,1.68181818 C55.2697512,1.68181818 55.0580533,1.65384615 54.8769096,1.59965035 C54.7132257,1.55244755 54.6346574,1.48076923 54.6346574,1.38286713 C54.6346574,1.27972028 54.6652117,1.17657343 54.7328677,1.07867133 C54.8092536,0.963286713 54.8463553,0.800699301 54.8463553,0.594405594 C54.8463553,0.40034965 54.7656045,0.251748252 54.6084679,0.148601399 C54.4535137,0.048951049 54.2701877,0 54.0497599,0 C53.6329114,0 53.3601048,0.0734265734 53.2138804,0.227272727 C53.072021,0.374125874 53,0.561188811 53,0.786713287 C53,0.944055944 53.0589262,1.18531469 53.2269751,1.3479021 C53.3775644,1.49125874 53.5696203,1.61188811 53.8009603,1.70804196" id="Fill-87"></path>
                    <polygon id="Fill-88" points="54.8114224 11.5907231 53.8221983 11.5907231 53.8221983 11.2469304 57.1778017 4.46316508 57.1778017 11.5907231 56.1866379 11.5907231 56.1866379 12 60 12 60 11.5907231 59.0088362 11.5907231 59.0088362 3.40927694 60 3.40927694 60 3 56.1866379 3 56.1866379 3.40927694 57.1778017 3.40927694 57.1778017 3.56070941 53.8221983 10.3444748 53.8221983 3.40927694 54.8114224 3.40927694 54.8114224 3 51 3 51 3.40927694 51.9892241 3.40927694 51.9892241 11.5907231 51 11.5907231 51 12 54.8114224 12"></polygon>
                    <polygon id="Fill-89" points="18.1885776 3.40927694 19.1797414 3.40927694 19.1797414 3.55866303 15.8221983 10.3444748 15.8221983 3.40927694 16.8133621 3.40927694 16.8133621 3 13 3 13 3.40927694 13.9911638 3.40927694 13.9911638 11.5907231 13 11.5907231 13 12 16.8133621 12 16.8133621 11.5907231 15.8221983 11.5907231 15.8221983 11.2469304 19.1797414 4.46111869 19.1797414 11.5907231 18.1885776 11.5907231 18.1885776 12 22 12 22 11.5907231 21.0107759 11.5907231 21.0107759 3.40927694 22 3.40927694 22 3 18.1885776 3"></polygon>
                    <path d="M66.0350916,10.6207585 C66.2138601,10.1177645 66.3608475,9.52694611 66.4740675,8.86427146 C66.5872876,8.19560878 66.6806444,7.51497006 66.7521518,6.84231537 C66.8236592,6.17165669 66.8792761,5.50698603 66.9170161,4.86227545 L66.9269477,4.66267465 C66.9567424,4.15768463 66.9785919,3.75249501 66.9924961,3.3992016 L69.1099095,3.3992016 L69.1099095,11.3792415 L68.0949018,11.3792415 L68.0949018,11.7784431 L72,11.7784431 L72,11.3792415 L70.9849923,11.3792415 L70.9849923,3.3992016 L72,3.3992016 L72,3 L65.5305672,3 L65.5305672,3.3992016 L66.5912602,3.3992016 C66.5753697,3.89620758 66.5535202,4.41117764 66.5137939,5.06786427 C66.4780402,5.71057884 66.4244096,6.35528942 66.3568749,6.98802395 C66.2873538,7.63672655 66.1979695,8.25748503 66.0926948,8.83233533 C65.98742,9.41916168 65.8503642,9.96606786 65.6894725,10.4610778 C65.5325535,10.9441118 65.3359082,11.1916168 65.2465239,11.3033932 C65.1571397,11.4131737 65.0617965,11.500998 64.9624807,11.5648703 C64.8671375,11.6267465 64.7717943,11.6606786 64.6804237,11.6606786 C64.6406974,11.6606786 64.6089164,11.6467066 64.5850806,11.6207585 C64.5433679,11.5808383 64.5215184,11.506986 64.5235047,11.4151697 C64.5235047,11.3233533 64.5354226,11.243513 64.5612448,11.1676647 C64.5950121,11.0718563 64.6248069,10.998004 64.6565879,10.9301397 C64.6963143,10.8403194 64.732068,10.744511 64.7598764,10.6626747 C64.7956301,10.5648703 64.813507,10.4530938 64.813507,10.3213573 C64.813507,10.1337325 64.7479585,9.9760479 64.6188479,9.8502994 C64.4897374,9.72654691 64.2950783,9.66467066 64.0388435,9.66467066 C63.7389097,9.66467066 63.4886339,9.73453094 63.2959612,9.87025948 C63.0993158,10.00998 63,10.247505 63,10.5768463 C63,10.8283433 63.0417126,11.0239521 63.1310969,11.1876248 C63.2264401,11.3652695 63.3654822,11.499002 63.5104833,11.6267465 C63.6395939,11.740519 63.8362392,11.8542914 64.016994,11.9141717 C64.1878173,11.9660679 64.4281616,12 64.6446701,12 C64.9585081,12 65.2504966,11.8483034 65.4848819,11.6007984 C65.7133083,11.3592814 65.8980358,11.0279441 66.0350916,10.6207585" id="Fill-90"></path>
                    <path d="M77.133218,5.93060401 C77.1857699,5.41581549 77.3006055,4.96193705 77.4718858,4.58468745 C77.6412197,4.21333237 77.8903547,3.9225358 78.2095588,3.71819226 C78.5307093,3.51384873 78.9647491,3.40971212 79.5058391,3.40971212 C80.08391,3.40971212 80.5413062,3.52170809 80.8663495,3.74177036 C81.1913927,3.96183263 81.4385813,4.26245341 81.5981834,4.63773818 C81.7616782,5.01498778 81.8628893,5.459042 81.8959775,5.95811179 C81.9349048,6.51023231 81.9504758,6.9149897 81.9504758,7.42781338 C81.9504758,8.01530105 81.9310121,8.46524979 81.8823529,9.02129999 C81.8414792,9.54394788 81.7363754,10.001756 81.574827,10.3809704 C81.4152249,10.7542904 81.1680363,11.0509815 80.8429931,11.2631844 C80.5179498,11.4753873 80.0683391,11.5834536 79.5058391,11.5834536 C79.0717993,11.5834536 78.6942042,11.5205786 78.3827855,11.3967936 C78.0772059,11.2749734 77.8222318,11.0549111 77.6275952,10.7425013 C77.4290657,10.4281266 77.2830882,9.99586147 77.191609,9.45945969 C77.0942907,8.90537433 77.0514706,8.3336054 77.0514706,7.53784451 C77.0514706,6.92874359 77.0767734,6.46897063 77.133218,5.93060401 M76.3644031,10.709099 C76.7711938,11.105997 77.2538927,11.4243014 77.7988754,11.6561527 C78.3419118,11.8840743 78.91609,12 79.5058391,12 C80.099481,12 80.6775519,11.8801447 81.2186419,11.6423988 C81.7538927,11.4066178 82.2346453,11.0784892 82.6492215,10.6678373 C83.0579585,10.2591503 83.3888408,9.7757992 83.6321367,9.22957321 C83.8773789,8.68334722 84,8.10371892 84,7.50051252 C84,6.81674761 83.8676471,6.18799827 83.6087803,5.63194807 C83.3499135,5.07786271 83.0073529,4.60040618 82.5888841,4.21333237 C82.1684689,3.82625856 81.6838235,3.52563778 81.1466263,3.31539972 C80.0975346,2.90671264 79.0134083,2.8811697 77.9253893,3.32129424 C77.3940311,3.53546199 76.9074394,3.84394213 76.4772924,4.23494563 C76.0471453,4.63184365 75.6909602,5.11126502 75.4165225,5.66535038 C75.1420848,6.22140058 75,6.85014992 75,7.53784451 C75,8.16462901 75.1265138,8.75801121 75.3737024,9.29834267 C75.6228374,9.83867414 75.9556661,10.3141658 76.3644031,10.709099" id="Fill-91"></path>
                    <polygon id="Fill-92" points="1 56 1.96440626 56 1.96440626 47.5961065 7.03559374 47.5961065 7.03559374 56 8 56 8 47 1 47"></polygon>
                    <path d="M27.9756614,49.6719078 C27.9756614,50.0645193 27.9121693,50.3665282 27.7555556,50.6806174 C27.615873,50.9685325 27.4042328,51.2242333 27.1756614,51.3893315 C26.8920635,51.586644 26.6042328,51.7295948 26.3375661,51.8040903 C26.0116402,51.8926796 25.6666667,51.8906662 25.357672,51.8805992 C24.9195767,51.8665055 24.4582011,51.8000635 23.952381,51.6752332 L23.952381,47.5981137 L24.2613757,47.5981137 C24.3777778,47.5961003 24.4920635,47.5940869 24.6,47.5940869 C25.8783069,47.5940869 26.6994709,47.7471047 27.173545,48.0712609 C27.7216931,48.4457519 27.9756614,48.9551402 27.9756614,49.6719078 M27.7640212,47.5558325 C27.0507937,47.1571808 26.0010582,46.9779889 24.5513228,47.0021496 L23,47.0021496 L23,56 L23.952381,56 L23.952381,52.0497242 C24.5238095,52.3094518 25.1587302,52.4403223 25.8380952,52.4403223 C26.2486772,52.4403223 26.642328,52.3779072 27.0148148,52.2571036 C27.389418,52.1363001 27.7259259,51.9611349 28.0201058,51.735635 C28.3164021,51.5061083 28.557672,51.2061128 28.7333333,50.8437022 C28.9089947,50.4772648 29,50.0685461 29,49.6276132 C29,48.7135331 28.5851852,48.0168993 27.7640212,47.5558325" id="Fill-93"></path>
                    <polygon id="Fill-94" points="32 47.5942256 35.0530647 47.5942256 35.0530647 56 35.9449489 56 35.9449489 47.5942256 39 47.5942256 39 47 32 47"></polygon>
                    <polygon id="Fill-95" points="50.0871333 50.9440466 44.9128667 50.9440466 44.9128667 47 44 47 44 56 44.9128667 56 44.9128667 51.5402865 50.0871333 51.5402865 50.0871333 56 51 56 51 47 50.0871333 47"></polygon>
                    <polygon id="Fill-96" points="83 56 83.898 56 83.898 47 83 47"></polygon>
                    <path d="M76.9406425,51.3105687 C77.4182961,51.1916704 77.9546089,51.1231527 78.3882682,51.1231527 C78.6689944,51.1231527 78.9350559,51.143305 79.1759777,51.1815943 L79.1759777,51.1836095 C79.4106145,51.2198836 79.6473464,51.2884013 79.8777933,51.3911778 C80.1040503,51.4879086 80.3009777,51.6168831 80.4601955,51.7720555 C80.6173184,51.9252127 80.7430168,52.1287506 80.8393855,52.3786386 C80.9441341,52.6486789 80.9860335,52.8844604 80.9860335,53.1968204 C80.9860335,53.5535155 80.9399441,53.8296014 80.8289106,54.1157635 C80.724162,54.3878191 80.5837989,54.601433 80.3994413,54.7686968 C80.2150838,54.9359606 79.9678771,55.0709807 79.6662011,55.1656964 C79.3561453,55.2624272 79.0146648,55.3309449 78.6522346,55.3631885 C78.3065642,55.3974474 77.8875698,55.4095387 77.3324022,55.3994626 L76.9406425,55.3994626 L76.9406425,51.3105687 Z M81.0195531,51.1473354 C80.728352,50.9538737 80.3952514,50.8067622 80.0328212,50.7080161 C79.676676,50.6133005 79.2849162,50.5649351 78.8701117,50.5649351 C78.1829609,50.5649351 77.5146648,50.7019704 76.9406425,50.9599194 L76.9406425,47 L76,47 L76,55.9959695 L77.5293296,55.9959695 C77.646648,55.9979848 77.7597765,56 77.8687151,56 C78.2939944,56 78.6941341,55.981863 79.0209497,55.9496193 C79.4420391,55.9072996 79.8463687,55.8226601 80.2171788,55.6977161 C80.6047486,55.5687416 80.9252793,55.3954322 81.174581,55.179803 C81.4322626,54.9621585 81.6333799,54.6780116 81.7821229,54.3313927 C81.926676,53.9908195 82,53.5817286 82,53.1182266 C82,52.684953 81.9120112,52.2919839 81.7381285,51.9554411 C81.5642458,51.6209136 81.323324,51.348858 81.0195531,51.1473354 L81.0195531,51.1473354 Z" id="Fill-97"></path>
                    <path d="M17.1445102,26.6824506 L17.1445102,29.3606373 L15.011314,29.3606373 C13.9910003,29.3606373 13.3306763,28.8334829 13.3306763,28.021544 C13.3306763,27.1712298 13.9519157,26.6824506 15.0380561,26.6824506 L17.1445102,26.6824506 Z M11.4505014,27.9225763 C11.4505014,29.2434919 12.1848804,30.239228 13.4664438,30.6633752 L11.0699409,33.9030521 L11,34 L13.2195937,34 L15.4186166,30.9925943 L17.1445102,30.9925943 L17.1445102,34 L19,34 L19,25 L14.9105168,25 C12.7773206,25 11.4505014,26.1189408 11.4505014,27.9225763 L11.4505014,27.9225763 Z" id="Fill-98"></path>
                    <polygon id="Fill-99" points="36 25 34.1350371 25 34.1350371 32.3296679 30.9418063 32.3296679 30.9418063 25 29.0581937 25 29.0581937 32.3296679 25.8670351 32.3296679 25.8670351 25 24 25 24 34 36 34"></polygon>
                    <polygon id="Fill-100" points="48 32.3296679 42.8817427 32.3296679 42.8817427 30.2978007 47.3609959 30.2978007 47.3609959 28.6274686 42.8817427 28.6274686 42.8817427 26.6703321 47.9377593 26.6703321 47.9377593 25 41 25 41 34 48 34"></polygon>
                    <polygon id="Fill-101" points="58.2928207 34 60 34 60 25 58.2928207 25 58.2928207 28.6153501 54.7109438 28.6153501 54.7109438 25 53 25 53 34 54.7109438 34 54.7109438 30.3361759 58.2928207 30.3361759"></polygon>
                    <polygon id="Fill-102" points="72.7941613 25.1030072 72.891143 25 70.6387927 25 66.7991094 29.1425045 66.7991094 25 65 25 65 34 66.7991094 34 66.7991094 31.388465 67.9628897 30.1665171 70.7674419 33.9414273 70.8109847 34 73 34 69.1939634 28.9041741"></polygon>
                    <path d="M79.5116029,32.3478166 C77.981951,32.3478166 76.8274602,31.1238323 76.8274602,29.4990224 C76.8274602,27.8761677 77.9722819,26.6521834 79.4883971,26.6521834 C81.0199828,26.6521834 82.1744736,27.8761677 82.1744736,29.4990224 C82.1744736,31.1238323 81.0296519,32.3478166 79.5116029,32.3478166 M79.5116029,25 C76.9821659,25 75,26.974799 75,29.4990224 C75,32.0662611 76.9299527,34 79.4883971,34 C82.0178341,34 84,32.0232457 84,29.4990224 C84,26.9337389 82.0700473,25 79.5116029,25" id="Fill-103"></path>
                    <path d="M1.74351222,26.8459489 C1.74351222,31.9662597 0.941295037,32.3957825 0.187452759,32.3957825 L0,32.3937847 L0,33.9520533 L0.13303099,33.9660377 C0.328546233,33.9900111 0.483749055,34 0.608717561,34 C2.72310406,34 3.47291509,32.2439512 3.47291509,27.2874584 L3.47291509,26.6641509 L6.16981607,26.6641509 L6.16981607,33.9021088 L8,33.9021088 L8,25 L1.74351222,25 L1.74351222,26.8459489 Z" id="Fill-104"></path>
                    <path d="M70.973545,49.6718121 C70.973545,50.0644295 70.9100529,50.366443 70.7534392,50.6825503 C70.615873,50.9684564 70.4042328,51.2241611 70.1756614,51.3892617 C69.9767196,51.5261745 69.6719577,51.7114094 69.3354497,51.8040268 C69.0137566,51.8885906 68.6582011,51.8845638 68.3555556,51.8805369 C67.9322751,51.866443 67.4603175,51.7979866 66.952381,51.6731544 L66.952381,47.5979866 L67.2592593,47.5979866 C67.3756614,47.5959732 67.4899471,47.5939597 67.5978836,47.5939597 C68.8761905,47.5939597 69.6973545,47.7469799 70.1714286,48.0711409 C70.7195767,48.4456376 70.973545,48.9550336 70.973545,49.6718121 M70.7619048,47.5557047 C70.0952381,47.1812081 69.1301587,47 67.8179894,47 C67.7312169,47 67.6402116,47 67.5492063,47.0020134 L66,47.0020134 L66,56 L66.952381,56 L66.952381,52.0516779 C67.5238095,52.309396 68.1587302,52.4402685 68.8359788,52.4402685 C69.2486772,52.4402685 69.642328,52.3778523 70.0126984,52.257047 C70.3873016,52.138255 70.7238095,51.9610738 71.0179894,51.7355705 C71.3142857,51.5060403 71.5555556,51.2060403 71.7312169,50.8436242 C71.9089947,50.4751678 72,50.066443 72,49.6275168 C72,48.7154362 71.5830688,48.0187919 70.7619048,47.5557047" id="Fill-105"></path>
                    <polygon id="Fill-106" points="56.854587 51.5392705 60.4290065 51.5392705 60.4290065 50.9451779 56.854587 50.9451779 56.854587 47.5961065 60.8306053 47.5961065 60.8306053 47 56 47 56 56 61 56 61 55.4038935 56.854587 55.4038935"></polygon>
                    <path d="M14.0130969,52.546213 L15.4169168,48.6794731 L16.8283765,52.546213 L14.0130969,52.546213 Z M15.6499318,47 L15.3214188,47 L12.0553888,55.853787 L12,56 L12.7582538,56 L13.8010914,53.1290889 L17.0442019,53.1290889 L18.06603,55.9308452 L18.0946794,56 L19,56 L15.6499318,47 Z" id="Fill-107"></path>
                </g>
            </g>
        </g>
    </g>
</svg>