<?xml version="1.0" encoding="UTF-8"?>
<svg width="56px" height="56px" viewBox="0 0 56 56" version="1.1" xmlns="http://www.w3.org/2000/svg" xmlns:xlink="http://www.w3.org/1999/xlink">
    <!-- Generator: Sketch 45.2 (43514) - http://www.bohemiancoding.com/sketch -->
    <title>Group</title>
    <desc>Created with Sketch.</desc>
    <defs>
        <circle id="path-1" cx="24.0377513" cy="23.9245405" r="23.7736216"></circle>
        <filter x="-14.7%" y="-10.5%" width="129.4%" height="129.4%" filterUnits="objectBoundingBox" id="filter-2">
            <feOffset dx="0" dy="2" in="SourceAlpha" result="shadowOffsetOuter1"></feOffset>
            <feGaussianBlur stdDeviation="2" in="shadowOffsetOuter1" result="shadowBlurOuter1"></feGaussianBlur>
            <feColorMatrix values="0 0 0 0 0   0 0 0 0 0   0 0 0 0 0  0 0 0 0.5 0" type="matrix" in="shadowBlurOuter1"></feColorMatrix>
        </filter>
    </defs>
    <g id="Page-1" stroke="none" stroke-width="1" fill="none" fill-rule="evenodd">
        <g id="Fest" transform="translate(-613.000000, -3130.000000)">
            <g id="Group-3" transform="translate(80.000000, 97.000000)">
                <g id="map" transform="translate(0.359842, 2804.000000)">
                    <g id="Group" transform="translate(536.491415, 231.245665)">
                        <g id="Oval-2">
                            <use fill="black" fill-opacity="1" filter="url(#filter-2)" xlink:href="#path-1"></use>
                            <use fill="#305556" fill-rule="evenodd" xlink:href="#path-1"></use>
                        </g>
                        <path d="M27.1699855,29.5762739 L30.5107162,25.7222787 L30.526515,25.7032068 C31.1024535,25.0283542 31.8191451,24.1862555 32.3879023,23.3764324 C33.1878967,22.2115781 33.5139267,21.3137307 33.5139267,20.2794457 C33.5139267,17.800096 31.6884458,16 29.1721259,16 C27.7703404,16 26.6816586,16.4782651 25.8385765,17.4626697 C25.2181141,18.194738 24.8892116,19.0617769 24.8001637,20.1914215 L24.7929824,20.2882482 L26.1129014,20.2882482 L26.1186464,20.2046251 C26.1646066,19.5723176 26.3254672,19.0471062 26.6098458,18.5981825 C27.1829118,17.7062034 28.0848804,17.2162018 29.1491458,17.2162018 C30.914304,17.2162018 32.1940078,18.4969546 32.1940078,20.2589068 C32.1940078,20.7459743 32.1078324,21.5205877 31.3595432,22.6150226 C31.0234594,23.1314315 30.0985108,24.2493395 29.7021042,24.7276046 L24.566054,30.7924757 L33.077305,30.7924757 L34.0755027,29.5762739 L27.1699855,29.5762739" id="Fill-1" fill="#D1C5BC"></path>
                        <path d="M20.6594053,22.6466689 C20.2789099,22.4552381 19.6560138,22.2709503 19.0389941,22.258093 L23.5094486,17.0566054 L16.689912,17.0566054 L15.6409785,18.1509035 L21.1486138,18.1509035 L16.7589595,23.2738189 C16.7589595,23.2738189 17.5728378,23.0709594 18.2118939,23.0666736 C18.9405648,23.0609593 19.6942102,23.235247 20.2465898,23.6166799 C21.0942573,24.115257 21.3763234,24.9366949 21.5056038,25.549559 C21.5702439,25.802419 21.6128476,26.0609934 21.6128476,26.3338536 C21.6128476,27.0195757 21.3968908,27.6567258 21.0266789,28.1838746 C20.4287575,29.0781705 19.4077368,29.6538913 18.2309921,29.6538913 C17.1277022,29.6538913 16.1360634,29.183886 15.5778075,28.393877 C15.5410801,28.345305 15.5116982,28.2824472 15.4779091,28.2281608 C15.213472,27.8667281 15.0342425,27.448152 14.9372823,26.9995754 L14,28.0867306 C14.0337892,28.2138749 14.1072439,28.4724493 14.155724,28.5681647 C15.1620537,30.5324727 17.3612882,30.7924757 18.2309921,30.7924757 C20.9840752,30.7924757 22.9056508,28.9610263 22.9056508,26.339568 C22.9056508,24.6366915 22.1505362,23.3952488 20.6594053,22.6466689" id="Fill-2" fill="#D1C5BC"></path>
                    </g>
                </g>
            </g>
        </g>
    </g>
</svg>