<?xml version="1.0" encoding="UTF-8"?>
<svg width="46px" height="21px" viewBox="0 0 46 21" version="1.1" xmlns="http://www.w3.org/2000/svg" xmlns:xlink="http://www.w3.org/1999/xlink">
    <!-- Generator: Sketch 45.2 (43514) - http://www.bohemiancoding.com/sketch -->
    <title>Shape</title>
    <desc>Created with Sketch.</desc>
    <defs></defs>
    <g id="Page-1" stroke="none" stroke-width="1" fill="none" fill-rule="evenodd">
        <g id="Fest" transform="translate(-1074.000000, -5420.000000)" fill="#305556">
            <g id="Group-3" transform="translate(80.000000, 97.000000)">
                <path d="M1037.66815,5323.07076 C1036.75238,5323.08432 1036.02091,5323.83752 1036.03416,5324.75329 L1036.03416,5341.53554 C1036.03416,5342.45162 1036.77679,5343.19425 1037.69288,5343.19425 C1038.60896,5343.19425 1039.35159,5342.45162 1039.35159,5341.53554 L1039.35159,5324.75329 C1039.35808,5324.30494 1039.18277,5323.87306 1038.86562,5323.55608 C1038.54847,5323.2391 1038.11649,5323.06403 1037.66815,5323.07076 L1037.66815,5323.07076 Z M1019.71606,5323.07317 C1019.16033,5323.05896 1018.63444,5323.32408 1018.31537,5323.77931 C1017.9963,5324.23453 1017.92649,5324.81932 1018.12942,5325.33686 L1024.43494,5342.1191 C1024.67863,5342.76724 1025.29929,5343.19581 1025.99173,5343.19406 C1026.68416,5343.19232 1027.30265,5342.76062 1027.54307,5342.11126 L1033.75328,5325.32872 C1033.96545,5324.77143 1033.86215,5324.14314 1033.48272,5323.68312 C1033.1033,5323.2231 1032.50614,5323.00215 1031.91867,5323.10441 C1031.33119,5323.20667 1030.84381,5323.6164 1030.64214,5324.17757 L1025.97573,5336.78861 L1021.23544,5324.17003 C1021.0038,5323.52594 1020.40032,5323.09028 1019.71606,5323.07317 Z M1014.11625,5323.00019 C1013.20048,5323.01375 1012.46901,5323.76695 1012.48226,5324.68272 L1012.48226,5341.46527 C1012.48226,5342.38135 1013.22489,5343.12398 1014.14098,5343.12398 C1015.05706,5343.12398 1015.79969,5342.38135 1015.79969,5341.46527 L1015.79969,5324.68303 C1015.80626,5324.23462 1015.63099,5323.80266 1015.31383,5323.48562 C1014.99667,5323.16857 1014.56465,5322.99345 1014.11625,5323.00019 Z M1002.1325,5323.09488 C1001.455,5323.10349 1000.85085,5323.5233 1000.60649,5324.15525 L994.119116,5340.9384 C993.89677,5341.49306 993.989958,5342.12445 994.363059,5342.59123 C994.736161,5343.05801 995.331498,5343.28802 995.921518,5343.19335 C996.511539,5343.09867 997.00503,5342.69396 997.213368,5342.13388 L998.892286,5337.78926 L1005.62274,5337.78926 L1007.38459,5342.1562 C1007.59844,5342.71687 1008.09845,5343.11833 1008.69208,5343.20599 C1009.28572,5343.29365 1009.88042,5343.05385 1010.2472,5342.57891 C1010.61397,5342.10398 1010.69564,5341.46798 1010.46075,5340.91578 L1003.692,5324.13294 C1003.43606,5323.49849 1002.81687,5323.08626 1002.13281,5323.09488 L1002.1325,5323.09488 Z M1002.18588,5329.26861 L1004.28491,5334.47154 L1000.17462,5334.47154 L1002.18558,5329.26861 L1002.18588,5329.26861 Z" id="Shape"></path>
            </g>
        </g>
    </g>
</svg>