<?xml version="1.0" encoding="UTF-8"?>
<svg width="20px" height="20px" viewBox="0 0 20 20" version="1.1" xmlns="http://www.w3.org/2000/svg" xmlns:xlink="http://www.w3.org/1999/xlink">
    <!-- Generator: Sketch 45.2 (43514) - http://www.bohemiancoding.com/sketch -->
    <title>Shape</title>
    <desc>Created with Sketch.</desc>
    <defs></defs>
    <g id="Page-1" stroke="none" stroke-width="1" fill="none" fill-rule="evenodd">
        <g id="Fest" transform="translate(-586.000000, -4563.000000)" fill-rule="nonzero" fill="#4E4F4F">
            <g id="Group-3" transform="translate(80.000000, 97.000000)">
                <path d="M511.8,4466 L520.2,4466 C523.4,4466 526,4468.6 526,4471.8 L526,4480.2 C526,4483.40325 523.403252,4486 520.2,4486 L511.8,4486 C508.6,4486 506,4483.4 506,4480.2 L506,4471.8 C506,4468.59675 508.596748,4466 511.8,4466 L511.8,4466 Z M511.6,4468 C509.611775,4468 508,4469.61177 508,4471.6 L508,4480.4 C508,4482.39 509.61,4484 511.6,4484 L520.4,4484 C522.388225,4484 524,4482.38823 524,4480.4 L524,4471.6 C524,4469.61 522.39,4468 520.4,4468 L511.6,4468 L511.6,4468 Z M521.25,4469.5 C521.940356,4469.5 522.5,4470.05964 522.5,4470.75 C522.5,4471.44036 521.940356,4472 521.25,4472 C520.559644,4472 520,4471.44036 520,4470.75 C520,4470.05964 520.559644,4469.5 521.25,4469.5 L521.25,4469.5 Z M516,4471 C518.761424,4471 521,4473.23858 521,4476 C521,4478.76142 518.761424,4481 516,4481 C513.238576,4481 511,4478.76142 511,4476 C511,4473.23858 513.238576,4471 516,4471 L516,4471 Z M516,4473 C514.343146,4473 513,4474.34315 513,4476 C513,4477.65685 514.343146,4479 516,4479 C517.656854,4479 519,4477.65685 519,4476 C519,4474.34315 517.656854,4473 516,4473 Z" id="Shape"></path>
            </g>
        </g>
    </g>
</svg>