<?xml version="1.0" encoding="UTF-8"?>
<svg width="41px" height="100px" viewBox="0 0 41 100" version="1.1" xmlns="http://www.w3.org/2000/svg" xmlns:xlink="http://www.w3.org/1999/xlink">
    <!-- Generator: Sketch 45.2 (43514) - http://www.bohemiancoding.com/sketch -->
    <title>Logo smoll</title>
    <desc>Created with Sketch.</desc>
    <defs>
        <polygon id="path-1" points="0.153983587 34.2842196 0.153983587 0.0286770566 98.0849784 0.0286770566 98.0849784 34.2842196"></polygon>
    </defs>
    <g id="Page-1" stroke="none" stroke-width="1" fill="none" fill-rule="evenodd">
        <g id="Fest" transform="translate(-1220.000000, -941.000000)">
            <g id="Logo-smoll" transform="translate(1240.500000, 991.000000) rotate(90.000000) translate(-1240.500000, -991.000000) translate(1190.500000, 970.500000)">
                <path d="M87.0982495,24.3454793 L93.0676799,17.4692425 L93.0959102,17.4352147 C94.1250339,16.2311534 95.405664,14.7286944 96.4219557,13.2838209 C97.8514367,11.2055065 98.4340079,9.60358152 98.4340079,7.75822678 C98.4340079,3.33461045 95.1721222,0.122907937 90.6758015,0.122907937 C88.1710018,0.122907937 86.2256758,0.97622091 84.7192031,2.73257982 C83.6105213,4.03872453 83.0228172,5.58568148 82.8637009,7.60117531 L82.8508689,7.77393193 L85.2093842,7.77393193 L85.2196497,7.62473303 C85.3017743,6.49657999 85.5892104,5.55950623 86.0973562,4.75854375 C87.121347,3.16708888 88.7330419,2.29283571 90.6347392,2.29283571 C93.7888364,2.29283571 96.0754926,4.57793456 96.0754926,7.72158144 C96.0754926,8.59059956 95.921509,9.97265247 94.5844182,11.9253257 C93.9838822,12.8466943 92.3311251,14.841248 91.6228006,15.6945609 L82.4453788,26.515407 L97.6538244,26.515407 L99.4374676,24.3454793 L87.0982495,24.3454793" id="Fill-1" fill="#305556"></path>
                <path d="M76.5606394,12.066672 C75.8959436,11.7159238 74.8077929,11.3782631 73.7299078,11.3547054 L81.539442,1.82429883 L69.6262452,1.82429883 L67.7938405,3.82932257 L77.4152483,3.82932257 L69.7468657,13.2157653 C69.7468657,13.2157653 71.1686474,12.8440768 72.2850285,12.8362242 C73.5579594,12.8257541 74.8745191,13.1450921 75.8394829,13.8439711 C77.3202917,14.7574872 77.8130392,16.2625637 78.0388818,17.3854817 C78.1518031,17.8487836 78.2262285,18.3225555 78.2262285,18.8225027 C78.2262285,20.0789144 77.8489687,21.2463303 77.2022377,22.2121968 C76.1577157,23.8507671 74.3740724,24.9056295 72.3183916,24.9056295 C70.3910303,24.9056295 68.658715,24.044464 67.6834856,22.5969729 C67.6193258,22.5079771 67.5679979,22.392806 67.5089709,22.2933401 C67.0470201,21.6311064 66.7339201,20.8641717 66.5645382,20.0422691 L64.9271794,22.0342052 C64.9862064,22.2671648 65.1145261,22.7409368 65.1992171,22.9163109 C66.9571963,26.515407 70.7990868,26.9917965 72.3183916,26.9917965 C77.1278123,26.9917965 80.4846545,23.6361301 80.4846545,18.8329728 C80.4846545,15.7128836 79.1655284,13.4382549 76.5606394,12.066672" id="Fill-2" fill="#305556"></path>
                <polyline id="Fill-3" fill="#4E4F4F" points="48.8820896 24.2748061 48.8820896 24.2617185 40.5618432 24.2617185 40.5618432 16.5478739 46.9008342 16.5478739 48.6357159 14.4381492 48.6357159 14.3648585 40.5618432 14.3648585 40.5618432 7.82104737 47.0573841 7.82104737 48.8538593 5.63803197 38.2982844 5.63803197 38.2982844 26.4447339 47.09588 26.4447339 48.8820896 24.2748061"></polyline>
                <polyline id="Fill-4" fill="#4E4F4F" points="57.0047239 27.6775879 59.2682826 24.9213346 59.2682826 7.82104737 64.4908926 7.82104737 66.2873677 5.63803197 52.3338884 5.63803197 50.6118386 7.72943401 50.6118386 7.82104737 57.0047239 7.82104737 57.0047239 27.6775879"></polyline>
                <path d="M5.27393785,38.4958165 L5.27393785,36.0117858 L4.23968142,36.0117858 C4.22684946,36.9645647 4.09596341,37.7917024 3.8393241,38.4958165 L5.27393785,38.4958165 Z M2.17373497,40.3987568 L2.17373497,38.4958165 L2.59718983,38.4958165 C2.93338733,37.9409013 3.10533567,37.0430904 3.10533567,35.8050013 L3.10533567,34.9909512 L6.41598279,34.9909512 L6.41598279,38.4958165 L7.00112042,38.4958165 L7.00112042,40.3987568 L5.92323531,40.3987568 L5.92323531,39.5192685 L3.2439209,39.5192685 L3.2439209,40.3987568 L2.17373497,40.3987568 L2.17373497,40.3987568 Z" id="Fill-5" fill="#4E4F4F"></path>
                <path d="M12.4264755,38.5350793 C12.762673,38.5350793 13.0347106,38.4120557 13.2579868,38.173861 C13.4786966,37.9356662 13.5941843,37.6241808 13.5941843,37.2551099 C13.5941843,36.8860389 13.4786966,36.5745535 13.2579868,36.3363588 C13.0347106,36.0981641 12.762673,35.9751404 12.4264755,35.9751404 C12.090278,35.9751404 11.8105411,36.0981641 11.5898313,36.3363588 C11.3665551,36.5745535 11.2587666,36.8860389 11.2587666,37.2551099 C11.2587666,37.6241808 11.3665551,37.9356662 11.5898313,38.173861 C11.8105411,38.4120557 12.090278,38.5350793 12.4264755,38.5350793 Z M12.4264755,39.6082644 C11.7540805,39.6082644 11.1946068,39.3831573 10.7506208,38.9250905 C10.3092011,38.4644062 10.0859249,37.909491 10.0859249,37.2551099 C10.0859249,36.6007288 10.3092011,36.0458136 10.7506208,35.5851293 C11.1946068,35.124445 11.7540805,34.9019554 12.4264755,34.9019554 C13.0988705,34.9019554 13.6557778,35.124445 14.0997638,35.5851293 C14.5437498,36.0458136 14.767026,36.6007288 14.767026,37.2551099 C14.767026,37.909491 14.5437498,38.4644062 14.0997638,38.9250905 C13.6557778,39.3831573 13.0988705,39.6082644 12.4264755,39.6082644 L12.4264755,39.6082644 Z" id="Fill-6" fill="#4E4F4F"></path>
                <polyline id="Fill-7" fill="#4E4F4F" points="18.1803288 39.5192685 18.1803288 34.9909512 19.3146746 34.9909512 20.4387548 36.731605 21.5654013 34.9909512 22.6971807 34.9909512 22.6971807 39.5192685 21.5602686 39.5192685 21.5602686 36.7551627 20.7672531 37.9723116 20.1410532 37.9723116 19.3198074 36.7551627 19.3198074 39.5192685 18.1803288 39.5192685"></polyline>
                <polyline id="Fill-8" fill="#4E4F4F" points="30.2295445 39.5192685 30.2295445 34.9909512 31.3715894 34.9909512 31.3715894 36.6007288 33.0448777 36.6007288 33.0448777 34.9909512 34.1869227 34.9909512 34.1869227 39.5192685 33.0448777 39.5192685 33.0448777 37.6346509 31.3715894 37.6346509 31.3715894 39.5192685 30.2295445 39.5192685"></polyline>
                <path d="M39.365904,37.6294159 L40.2898055,37.6294159 L39.8304211,36.4227371 L39.365904,37.6294159 Z M37.4231444,39.5192685 L39.2914786,34.964776 L40.384762,34.964776 L42.2530962,39.5192685 L41.0263603,39.5192685 L40.6542333,38.5612546 L39.0040425,38.5612546 L38.6293492,39.5192685 L37.4231444,39.5192685 L37.4231444,39.5192685 Z" id="Fill-9" fill="#4E4F4F"></path>
                <polyline id="Fill-10" fill="#4E4F4F" points="52.7368121 40.3987568 52.7368121 39.5192685 49.426165 39.5192685 49.426165 34.9909512 50.5656435 34.9909512 50.5656435 38.4958165 52.090081 38.4958165 52.090081 34.9909512 53.2295596 34.9909512 53.2295596 38.4958165 53.8146972 38.4958165 53.8146972 40.3987568 52.7368121 40.3987568"></polyline>
                <path d="M58.3033188,38.548167 L59.2220875,38.548167 C59.571117,38.548167 59.7815612,38.3754104 59.7815612,38.06916 C59.7815612,37.7655272 59.558285,37.584918 59.2220875,37.584918 L58.3033188,37.584918 L58.3033188,38.548167 Z M58.3033188,36.7263699 L59.1527949,36.7263699 C59.4325317,36.7263699 59.6121793,36.5745535 59.6121793,36.3363588 C59.6121793,36.0850765 59.4325317,35.9358776 59.1527949,35.9358776 L58.3033188,35.9358776 L58.3033188,36.7263699 Z M57.1638402,39.5192685 L57.1638402,34.9909512 L59.3247432,34.9909512 C60.1382898,34.9909512 60.7080291,35.3914325 60.7080291,36.1348094 C60.7080291,36.5745535 60.4616554,36.8860389 60.1870513,37.0142976 C60.4026283,37.0692657 60.6002406,37.1949068 60.7721889,37.4095438 C60.9415709,37.6241808 61.0313946,37.8885508 61.0313946,38.2183589 C61.0313946,38.60837 60.8851102,38.9250905 60.5925414,39.1632852 C60.3076718,39.4014799 59.9227128,39.5192685 59.4453637,39.5192685 L57.1638402,39.5192685 L57.1638402,39.5192685 Z" id="Fill-11" fill="#4E4F4F"></path>
                <polyline id="Fill-12" fill="#4E4F4F" points="64.4190336 39.5192685 64.4190336 34.9909512 67.7912741 34.9909512 67.7912741 36.0117858 65.5585121 36.0117858 65.5585121 36.6295215 67.3344561 36.6295215 67.3344561 37.6110932 65.5585121 37.6110932 65.5585121 38.4958165 67.842602 38.4958165 67.842602 39.5192685 64.4190336 39.5192685"></polyline>
                <polyline id="Fill-13" fill="#4E4F4F" points="72.3363563 39.5192685 72.3363563 36.0117858 71.0043983 36.0117858 71.0043983 34.9909512 74.8154921 34.9909512 74.8154921 36.0117858 73.4784013 36.0117858 73.4784013 39.5192685 72.3363563 39.5192685"></polyline>
                <polyline id="Fill-14" fill="#4E4F4F" points="78.1158736 39.5192685 78.1158736 34.9909512 79.2579185 34.9909512 79.2579185 36.6007288 80.9312069 36.6007288 80.9312069 34.9909512 82.0732518 34.9909512 82.0732518 39.5192685 80.9312069 39.5192685 80.9312069 37.6346509 79.2579185 37.6346509 79.2579185 39.5192685 78.1158736 39.5192685"></polyline>
                <path d="M87.8219724,38.5350793 C88.1581699,38.5350793 88.4302075,38.4120557 88.6534837,38.173861 C88.8741935,37.9356662 88.9896812,37.6241808 88.9896812,37.2551099 C88.9896812,36.8860389 88.8741935,36.5745535 88.6534837,36.3363588 C88.4302075,36.0981641 88.1581699,35.9751404 87.8219724,35.9751404 C87.4857749,35.9751404 87.2034716,36.0981641 86.9853282,36.3363588 C86.762052,36.5745535 86.6542635,36.8860389 86.6542635,37.2551099 C86.6542635,37.6241808 86.762052,37.9356662 86.9853282,38.173861 C87.2034716,38.4120557 87.4857749,38.5350793 87.8219724,38.5350793 Z M87.8219724,39.6082644 C87.1495774,39.6082644 86.5901037,39.3831573 86.1461177,38.9250905 C85.7021317,38.4644062 85.4814218,37.909491 85.4814218,37.2551099 C85.4814218,36.6007288 85.7021317,36.0458136 86.1461177,35.5851293 C86.5901037,35.124445 87.1495774,34.9019554 87.8219724,34.9019554 C88.491801,34.9019554 89.0512747,35.124445 89.4952607,35.5851293 C89.9392467,36.0458136 90.1625229,36.6007288 90.1625229,37.2551099 C90.1625229,37.909491 89.9392467,38.4644062 89.4952607,38.9250905 C89.0512747,39.3831573 88.491801,39.6082644 87.8219724,39.6082644 L87.8219724,39.6082644 Z" id="Fill-15" fill="#4E4F4F"></path>
                <g id="Group-19" transform="translate(0.000000, 5.235049)">
                    <mask id="mask-2" fill="white">
                        <use xlink:href="#path-1"></use>
                    </mask>
                    <g id="Clip-17"></g>
                    <polyline id="Fill-16" fill="#4E4F4F" mask="url(#mask-2)" points="93.5681265 34.2842196 93.5681265 29.7559023 94.7024723 29.7559023 95.8265525 31.4965561 96.9531991 29.7559023 98.0849784 29.7559023 98.0849784 34.2842196 96.9480663 34.2842196 96.9480663 31.5201138 96.1550508 32.7372627 95.5288509 32.7372627 94.7076051 31.5201138 94.7076051 34.2842196 93.5681265 34.2842196"></polyline>
                    <path d="M16.7097856,4.96009313 C16.0681873,4.30571202 15.0878251,3.52307221 14.0484359,3.02574256 C12.9756836,2.52317786 11.7207174,2.21430998 10.5299109,2.21430998 C5.8154468,2.21430998 2.32515216,6.08562865 2.32515216,10.8940211 C2.32515216,16.5426389 6.82403929,19.3826529 10.5555749,19.3826529 C11.9362944,19.3826529 13.2810844,18.9769366 14.3538367,18.4141688 C15.5164128,17.8226083 16.3427914,17.0399685 16.7097856,16.66828 L16.7097856,19.5370868 C14.4462268,21.1913623 12.0877116,21.5682858 10.5555749,21.5682858 C4.49888713,21.5682858 0,16.8881521 0,10.8599933 C0,4.64860772 4.55791417,0.0286770566 10.6813281,0.0286770566 C11.9054977,0.0286770566 14.2640129,0.185728524 16.7097856,2.0886688 L16.7097856,4.96009313" id="Fill-18" fill="#4E4F4F" mask="url(#mask-2)"></path>
                </g>
                <polyline id="Fill-20" fill="#4E4F4F" points="21.3677891 5.60662168 27.1242088 21.4949951 32.8780622 5.60662168 35.3879947 5.60662168 27.1242088 27.6775879 18.860423 5.60662168 21.3677891 5.60662168"></polyline>
            </g>
        </g>
    </g>
</svg>