<?xml version="1.0" encoding="UTF-8"?>
<svg width="411px" height="164px" viewBox="0 0 411 164" version="1.1" xmlns="http://www.w3.org/2000/svg" xmlns:xlink="http://www.w3.org/1999/xlink">
    <!-- Generator: Sketch 45.2 (43514) - http://www.bohemiancoding.com/sketch -->
    <title>Logo</title>
    <desc>Created with Sketch.</desc>
    <defs>
        <polygon id="path-1" points="0.635992729 138.836744 0.635992729 0.11613008 405.116769 0.11613008 405.116769 138.836744"></polygon>
    </defs>
    <g id="Page-1" stroke="none" stroke-width="1" fill="none" fill-rule="evenodd">
        <g id="Fest" transform="translate(-435.000000, -97.000000)">
            <g id="Group-3" transform="translate(80.000000, 97.000000)">
                <g id="Logo" transform="translate(355.000000, 0.000000)">
                    <path d="M359.738687,98.5890043 L384.394006,70.7431227 L384.510604,70.6053242 C388.761156,65.72938 394.050495,59.6450495 398.248047,53.7939164 C404.15218,45.3776126 406.558352,38.8904868 406.558352,31.4175722 C406.558352,13.503777 393.085906,0.497725718 374.514919,0.497725718 C364.169437,0.497725718 356.134729,3.95328621 349.9126,11.0658049 C345.333452,16.3551444 342.90608,22.6196728 342.248887,30.7815795 L342.195888,31.4811715 L351.937177,31.4811715 L351.979576,30.8769784 C352.318772,26.3084306 353.505959,22.513674 355.604735,19.2701111 C359.834086,12.8253848 366.49081,9.28502526 374.34532,9.28502526 C387.372572,9.28502526 396.817064,18.5387195 396.817064,31.2691739 C396.817064,34.7883337 396.181071,40.3850697 390.658534,48.2925793 C388.178162,52.0237367 381.35184,60.1008443 378.426274,63.5564048 L340.521107,107.376304 L403.335989,107.376304 L410.702905,98.5890043 L359.738687,98.5890043" id="Fill-1" fill="#305556"></path>
                    <path d="M316.215585,48.8649728 C313.470216,47.444589 308.975868,46.0772047 304.523919,45.9818057 L336.77935,7.38764695 L287.574712,7.38764695 L280.006399,15.5071541 L319.745345,15.5071541 L288.072907,53.5183196 C288.072907,53.5183196 293.94524,52.0131368 298.556187,51.9813372 C303.813727,51.9389376 309.251465,53.2321229 313.237019,56.0622905 C319.353149,59.7616482 321.388326,65.8565785 322.321115,70.4039265 C322.78751,72.2801051 323.094906,74.1986832 323.094906,76.22326 C323.094906,81.3112019 321.536724,86.0387478 318.865555,89.9501031 C314.551404,96.5856272 307.184488,100.857378 298.693985,100.857378 C290.733476,100.857378 283.578558,97.3700183 279.550604,91.5082853 C279.285607,91.1478894 279.07361,90.6814947 278.829812,90.2786993 C276.921834,87.59693 275.628649,84.4911655 274.929057,81.1628036 L268.166334,89.2293113 C268.410132,90.1727005 268.940125,92.0912786 269.289921,92.8014705 C276.550838,107.376304 292.418857,109.305482 298.693985,109.305482 C318.558158,109.305482 332.4228,95.7164372 332.4228,76.2656595 C332.4228,63.630604 326.974462,54.4193093 316.215585,48.8649728" id="Fill-2" fill="#305556"></path>
                    <polyline id="Fill-3" fill="#4E4F4F" points="201.895892 98.3028076 201.895892 98.2498082 167.531085 98.2498082 167.531085 67.0119653 193.712785 67.0119653 200.878304 58.468463 200.878304 58.1716664 167.531085 58.1716664 167.531085 31.6719693 194.359378 31.6719693 201.779293 22.8316704 158.181992 22.8316704 158.181992 107.090107 194.518376 107.090107 201.895892 98.3028076"></polyline>
                    <polyline id="Fill-4" fill="#4E4F4F" points="235.444508 112.08265 244.793602 100.920978 244.793602 31.6719693 266.364355 31.6719693 273.78427 22.8316704 216.152729 22.8316704 209.04021 31.3009736 209.04021 31.6719693 235.444508 31.6719693 235.444508 112.08265"></polyline>
                    <path d="M21.782751,155.891949 L21.782751,145.832664 L17.5109998,145.832664 C17.4580004,149.69102 16.9174066,153.040582 15.8574187,155.891949 L21.782751,155.891949 Z M8.97809736,163.598061 L8.97809736,155.891949 L10.7270774,155.891949 C12.1156615,153.644775 12.8258534,150.009016 12.8258534,144.995274 L12.8258534,141.698712 L26.4996971,141.698712 L26.4996971,155.891949 L28.9164694,155.891949 L28.9164694,163.598061 L24.4645203,163.598061 L24.4645203,160.036502 L13.3982468,160.036502 L13.3982468,163.598061 L8.97809736,163.598061 L8.97809736,163.598061 Z" id="Fill-5" fill="#4E4F4F"></path>
                    <path d="M51.3246133,156.050947 C52.7131974,156.050947 53.8367845,155.552753 54.758974,154.588164 C55.6705636,153.623575 56.1475581,152.36219 56.1475581,150.867607 C56.1475581,149.373024 55.6705636,148.111638 54.758974,147.147049 C53.8367845,146.18246 52.7131974,145.684266 51.3246133,145.684266 C49.9360291,145.684266 48.7806423,146.18246 47.8690528,147.147049 C46.9468633,148.111638 46.5016684,149.373024 46.5016684,150.867607 C46.5016684,152.36219 46.9468633,153.623575 47.8690528,154.588164 C48.7806423,155.552753 49.9360291,156.050947 51.3246133,156.050947 Z M51.3246133,160.396898 C48.547445,160.396898 46.2366714,159.485308 44.4028924,157.630329 C42.5797132,155.764751 41.6575238,153.517576 41.6575238,150.867607 C41.6575238,148.217637 42.5797132,145.970463 44.4028924,144.104884 C46.2366714,142.239305 48.547445,141.338316 51.3246133,141.338316 C54.1017815,141.338316 56.4019552,142.239305 58.2357342,144.104884 C60.0695133,145.970463 60.9917027,148.217637 60.9917027,150.867607 C60.9917027,153.517576 60.0695133,155.764751 58.2357342,157.630329 C56.4019552,159.485308 54.1017815,160.396898 51.3246133,160.396898 L51.3246133,160.396898 Z" id="Fill-6" fill="#4E4F4F"></path>
                    <polyline id="Fill-7" fill="#4E4F4F" points="75.0895416 160.036502 75.0895416 141.698712 79.774688 141.698712 84.4174349 148.747631 89.0707817 141.698712 93.7453283 141.698712 93.7453283 160.036502 89.049582 160.036502 89.049582 148.84303 85.7742194 153.771973 83.187849 153.771973 79.7958878 148.84303 79.7958878 160.036502 75.0895416 160.036502"></polyline>
                    <polyline id="Fill-8" fill="#4E4F4F" points="124.855973 160.036502 124.855973 141.698712 129.572919 141.698712 129.572919 148.217637 136.48404 148.217637 136.48404 141.698712 141.200986 141.698712 141.200986 160.036502 136.48404 160.036502 136.48404 152.404589 129.572919 152.404589 129.572919 160.036502 124.855973 160.036502"></polyline>
                    <path d="M162.591541,152.383389 L166.407498,152.383389 L164.510119,147.496845 L162.591541,152.383389 Z M154.567433,160.036502 L162.284145,141.592713 L166.799693,141.592713 L174.516405,160.036502 L169.449663,160.036502 L167.91268,156.156946 L161.096958,156.156946 L159.549376,160.036502 L154.567433,160.036502 L154.567433,160.036502 Z" id="Fill-9" fill="#4E4F4F"></path>
                    <polyline id="Fill-10" fill="#4E4F4F" points="217.81691 163.598061 217.81691 160.036502 204.143066 160.036502 204.143066 141.698712 208.849412 141.698712 208.849412 155.891949 215.14574 155.891949 215.14574 141.698712 219.852087 141.698712 219.852087 155.891949 222.268859 155.891949 222.268859 163.598061 217.81691 163.598061"></polyline>
                    <path d="M240.808047,156.103947 L244.602804,156.103947 C246.044387,156.103947 246.913577,155.404355 246.913577,154.164169 C246.913577,152.934583 245.991388,152.203191 244.602804,152.203191 L240.808047,152.203191 L240.808047,156.103947 Z M240.808047,148.726431 L244.316607,148.726431 C245.471994,148.726431 246.213985,148.111638 246.213985,147.147049 C246.213985,146.129461 245.471994,145.525268 244.316607,145.525268 L240.808047,145.525268 L240.808047,148.726431 Z M236.101701,160.036502 L236.101701,141.698712 L245.026799,141.698712 C248.38696,141.698712 250.740134,143.320493 250.740134,146.330859 C250.740134,148.111638 249.722545,149.373024 248.588358,149.892418 C249.478748,150.115015 250.294939,150.623809 251.00513,151.493 C251.704722,152.36219 252.075718,153.432777 252.075718,154.768362 C252.075718,156.347744 251.471525,157.630329 250.263139,158.594918 C249.086552,159.559507 247.496571,160.036502 245.524993,160.036502 L236.101701,160.036502 L236.101701,160.036502 Z" id="Fill-11" fill="#4E4F4F"></path>
                    <polyline id="Fill-12" fill="#4E4F4F" points="266.067558 160.036502 266.067558 141.698712 279.995799 141.698712 279.995799 145.832664 270.773904 145.832664 270.773904 148.334236 278.109021 148.334236 278.109021 152.30919 270.773904 152.30919 270.773904 155.891949 280.207797 155.891949 280.207797 160.036502 266.067558 160.036502"></polyline>
                    <polyline id="Fill-13" fill="#4E4F4F" points="298.768184 160.036502 298.768184 145.832664 293.266847 145.832664 293.266847 141.698712 309.007667 141.698712 309.007667 145.832664 303.485131 145.832664 303.485131 160.036502 298.768184 160.036502"></polyline>
                    <polyline id="Fill-14" fill="#4E4F4F" points="322.639112 160.036502 322.639112 141.698712 327.356058 141.698712 327.356058 148.217637 334.267179 148.217637 334.267179 141.698712 338.984125 141.698712 338.984125 160.036502 334.267179 160.036502 334.267179 152.404589 327.356058 152.404589 327.356058 160.036502 322.639112 160.036502"></polyline>
                    <path d="M362.727853,156.050947 C364.116437,156.050947 365.240025,155.552753 366.162214,154.588164 C367.073804,153.623575 367.550798,152.36219 367.550798,150.867607 C367.550798,149.373024 367.073804,148.111638 366.162214,147.147049 C365.240025,146.18246 364.116437,145.684266 362.727853,145.684266 C361.339269,145.684266 360.173282,146.18246 359.272293,147.147049 C358.350103,148.111638 357.904908,149.373024 357.904908,150.867607 C357.904908,152.36219 358.350103,153.623575 359.272293,154.588164 C360.173282,155.552753 361.339269,156.050947 362.727853,156.050947 Z M362.727853,160.396898 C359.950685,160.396898 357.639911,159.485308 355.806132,157.630329 C353.972353,155.764751 353.060764,153.517576 353.060764,150.867607 C353.060764,148.217637 353.972353,145.970463 355.806132,144.104884 C357.639911,142.239305 359.950685,141.338316 362.727853,141.338316 C365.494422,141.338316 367.805195,142.239305 369.638974,144.104884 C371.472753,145.970463 372.394943,148.217637 372.394943,150.867607 C372.394943,153.517576 371.472753,155.764751 369.638974,157.630329 C367.805195,159.485308 365.494422,160.396898 362.727853,160.396898 L362.727853,160.396898 Z" id="Fill-15" fill="#4E4F4F"></path>
                    <g id="Group-19" transform="translate(0.000000, 21.199758)">
                        <mask id="mask-2" fill="white">
                            <use xlink:href="#path-1"></use>
                        </mask>
                        <g id="Clip-17"></g>
                        <polyline id="Fill-16" fill="#4E4F4F" mask="url(#mask-2)" points="386.460982 138.836744 386.460982 120.498954 391.146128 120.498954 395.788875 127.547873 400.442222 120.498954 405.116769 120.498954 405.116769 138.836744 400.421022 138.836744 400.421022 127.643272 397.14566 132.572216 394.559289 132.572216 391.167328 127.643272 391.167328 138.836744 386.460982 138.836744"></polyline>
                        <path d="M69.015811,20.0863018 C66.3658413,17.4363321 62.3166876,14.2669683 58.0237367,12.2529913 C53.5929873,10.2178146 48.4096466,8.9670289 43.4913028,8.9670289 C24.0193254,8.9670289 9.60349021,24.6442497 9.60349021,44.1162271 C9.60349021,66.9907656 28.1850778,78.4916341 43.5973016,78.4916341 C49.3000364,78.4916341 54.8543729,76.8486529 59.2851222,74.5696789 C64.0868674,72.1741063 67.5000283,69.0047425 69.015811,67.4995597 L69.015811,79.1170269 C59.6667179,85.8161504 49.9254292,87.3425329 43.5973016,87.3425329 C18.5815876,87.3425329 0,68.3899496 0,43.9784286 C0,18.8249162 18.8253848,0.11613008 44.1166957,0.11613008 C49.1728379,0.11613008 58.9141265,0.752122809 69.015811,8.45823471 L69.015811,20.0863018" id="Fill-18" fill="#4E4F4F" mask="url(#mask-2)"></path>
                    </g>
                    <polyline id="Fill-20" fill="#4E4F4F" points="88.2545911 22.7044718 112.030119 87.0457363 135.795048 22.7044718 146.161729 22.7044718 112.030119 112.08265 77.8985095 22.7044718 88.2545911 22.7044718"></polyline>
                </g>
            </g>
        </g>
    </g>
</svg>